<?xml version="1.0" encoding="utf-8"?>
<!-- Generator: Adobe Illustrator 26.0.1, SVG Export Plug-In . SVG Version: 6.00 Build 0)  -->
<svg version="1.1" id="Слой_1" xmlns="http://www.w3.org/2000/svg" xmlns:xlink="http://www.w3.org/1999/xlink" x="0px" y="0px"
	 viewBox="0 0 128 128" style="enable-background:new 0 0 128 128;" xml:space="preserve">
<style type="text/css">
	.st0{fill:#E6F0FD;}
	.st1{fill:#0E6AED;}
	.st2{fill:#FFFFFF;}
	.st3{fill:none;}
	.st4{fill:#092C47;}
</style>
<g>
	<g id="Fills">
		<path class="st0" d="M60.5,83.6c0.9-4.3,5.1-7.2,9.6-6.3c3.1,0.7,5.6,3.1,6.3,6.3h33.9c5.9-25.5-9.9-51.1-35.5-57.1
			s-51.1,9.9-57.1,35.5c-1.7,7.1-1.7,14.5,0,21.6h42.8V83.6z"/>
		<path class="st1" d="M76.5,85.2c0,4.4-3.6,8.1-8.1,8.1s-8.1-3.6-8.1-8.1l0,0c0-0.6,0-1.1,0.2-1.6H17.7
			c5.9,25.5,31.5,41.5,57.1,35.5c16.9-3.9,30.2-16.6,35-33.3c0.2-0.7,0.5-1.5,0.6-2.2H76.4C76.5,84.2,76.5,84.7,76.5,85.2z"/>
		<path class="st2" d="M68.5,93.3c4.4,0,8-3.6,8-8.1c0-0.6,0-1.1-0.2-1.6c-0.9-4.3-5.1-7.2-9.6-6.3c-3.1,0.7-5.6,3.1-6.3,6.3
			c-0.1,0.6-0.2,1.1-0.2,1.6C60.4,89.7,64,93.3,68.5,93.3L68.5,93.3z"/>
	</g>
	<g id="Linework">
		<circle class="st3" cx="68.6" cy="85.2" r="6.9"/>
		<rect x="3.6" y="125.7" class="st4" width="2.3" height="2.3"/>
		<rect x="10.6" y="125.7" class="st4" width="2.3" height="2.3"/>
		<rect x="17.6" y="125.7" class="st4" width="2.3" height="2.3"/>
		<rect x="24.6" y="125.7" class="st4" width="2.3" height="2.3"/>
		<rect x="31.5" y="125.7" class="st4" width="2.3" height="2.3"/>
		<rect x="38.5" y="125.7" class="st4" width="2.3" height="2.3"/>
		<rect x="45.4" y="125.7" class="st4" width="2.3" height="2.3"/>
		<rect x="52.4" y="125.7" class="st4" width="2.3" height="2.3"/>
		<rect x="59.3" y="125.7" class="st4" width="2.3" height="2.3"/>
		<rect x="66.4" y="125.7" class="st4" width="2.3" height="2.3"/>
		<rect x="73.3" y="125.7" class="st4" width="2.3" height="2.3"/>
		<rect x="80.3" y="125.7" class="st4" width="2.3" height="2.3"/>
		<rect x="87.2" y="125.7" class="st4" width="2.3" height="2.3"/>
		<rect x="94.2" y="125.7" class="st4" width="2.3" height="2.3"/>
		<rect x="101.1" y="125.7" class="st4" width="2.3" height="2.3"/>
		<rect x="108.1" y="125.7" class="st4" width="2.3" height="2.3"/>
		<rect x="115" y="125.7" class="st4" width="2.3" height="2.3"/>
		<rect x="122.1" y="125.7" class="st4" width="2.3" height="2.3"/>
		<rect x="3.6" y="114.9" class="st4" width="2.3" height="2.3"/>
		<rect x="10.6" y="114.9" class="st4" width="2.3" height="2.3"/>
		<rect x="17.6" y="114.9" class="st4" width="2.3" height="2.3"/>
		<rect x="24.6" y="114.9" class="st4" width="2.3" height="2.3"/>
		<rect x="31.5" y="114.9" class="st4" width="2.3" height="2.3"/>
		<rect x="94.2" y="114.9" class="st4" width="2.3" height="2.3"/>
		<rect x="101.1" y="114.9" class="st4" width="2.3" height="2.3"/>
		<rect x="108.1" y="114.9" class="st4" width="2.3" height="2.3"/>
		<rect x="115" y="114.9" class="st4" width="2.3" height="2.3"/>
		<rect x="122.1" y="114.9" class="st4" width="2.3" height="2.3"/>
		<rect x="3.6" y="104" class="st4" width="2.3" height="2.3"/>
		<rect x="10.6" y="104" class="st4" width="2.3" height="2.3"/>
		<rect x="17.6" y="104" class="st4" width="2.3" height="2.3"/>
		<rect x="108.1" y="104" class="st4" width="2.3" height="2.3"/>
		<rect x="115" y="104" class="st4" width="2.3" height="2.3"/>
		<rect x="122.1" y="104" class="st4" width="2.3" height="2.3"/>
		<rect x="3.6" y="93.3" class="st4" width="2.3" height="2.3"/>
		<rect x="10.6" y="93.3" class="st4" width="2.3" height="2.3"/>
		<rect x="115" y="93.3" class="st4" width="2.3" height="2.3"/>
		<rect x="122.1" y="93.3" class="st4" width="2.3" height="2.3"/>
		<rect x="3.6" y="82.5" class="st4" width="2.3" height="2.3"/>
		<rect x="122.1" y="82.5" class="st4" width="2.3" height="2.3"/>
		<path class="st4" d="M109,61.6l2.2-0.6c-0.3-1.5-0.8-3-1.4-4.4l-2.2,0.8C108.2,58.7,108.6,60.1,109,61.6z"/>
		<path class="st4" d="M108.1,52.2c-0.7-1.4-1.4-2.8-2.2-4.1l-1.9,1.1c0.8,1.3,1.5,2.6,2.1,4L108.1,52.2z"/>
		<path class="st4" d="M109.9,79.2l2.3,0.3c0.2-1.5,0.3-3.1,0.5-4.7l-2.3-0.1C110.2,76.2,110.1,77.7,109.9,79.2z"/>
		<path class="st4" d="M103.4,44.1c-0.9-1.3-1.9-2.5-3-3.6l-1.7,1.6c1,1.1,1.9,2.3,2.7,3.4L103.4,44.1z"/>
		<path class="st4" d="M97.1,37.2c-1.1-1-2.3-2.1-3.5-3L92.2,36c1.1,0.9,2.3,1.8,3.4,2.8L97.1,37.2z"/>
		<path class="st4" d="M81.4,27.4c-1.1-0.5-2.4-0.9-3.5-1.3l-0.7,2.3c1.1,0.3,2.3,0.7,3.4,1.1L81.4,27.4z"/>
		<path class="st4" d="M89.7,31.5c-1.4-0.8-2.6-1.6-4.1-2.3l-1,2.1c1.4,0.7,2.6,1.4,3.9,2.2L89.7,31.5z"/>
		<path class="st4" d="M110.4,70.3l2.3-0.1c-0.1-1.6-0.2-3.1-0.5-4.7l-2.3,0.3C110.1,67.4,110.2,68.8,110.4,70.3z"/>
		<path class="st4" d="M24.1,49l-1.9-1.1c-0.8,1.4-1.5,2.7-2.2,4.1l2.1,1C22.7,51.6,23.5,50.3,24.1,49z"/>
		<path class="st4" d="M60.6,26.6l-0.2-2.3c-1.5,0.1-3.1,0.3-4.7,0.6l0.3,2.3C57.6,26.8,59.1,26.7,60.6,26.6z"/>
		<path class="st4" d="M36,35.8l-1.4-1.7c-1.3,0.9-2.4,1.9-3.5,3l1.6,1.7C33.6,37.7,34.7,36.7,36,35.8z"/>
		<path class="st4" d="M51.8,28.1l-0.6-2.2c-1.5,0.5-3,0.9-4.4,1.5l0.8,2.2C49,28.9,50.3,28.4,51.8,28.1z"/>
		<path class="st4" d="M20.4,57.1l-2.2-0.8c-0.6,1.5-1,3-1.4,4.4l2.2,0.6C19.5,59.8,19.8,58.5,20.4,57.1z"/>
		<path class="st4" d="M29.4,41.8l-1.7-1.5c-1,1.1-2.1,2.4-3,3.6l1.8,1.4C27.6,44.1,28.5,43,29.4,41.8z"/>
		<path class="st4" d="M18.2,65.7l-2.3-0.3c-0.2,1.5-0.5,3.1-0.5,4.7l2.3,0.1C17.8,68.6,17.9,67.1,18.2,65.7z"/>
		<path class="st4" d="M18,79c-0.2-1.5-0.3-3-0.3-4.4l-2.3,0.1c0,1.6,0.2,3.1,0.5,4.7L18,79z"/>
		<path class="st4" d="M43.5,31.1l-1-2.1c-1.4,0.7-2.7,1.5-4.1,2.3l1.3,1.9C40.9,32.6,42.1,31.8,43.5,31.1z"/>
		<path class="st4" d="M59.8,82.5H16.3l0.3,1.4c6.2,26.2,32.2,42.5,58.4,36.3c17.2-4,30.9-17.1,35.8-34.1l0.1-0.2
			c0.2-0.7,0.5-1.5,0.6-2.3h-2.3c-0.1,0.6-0.2,1-0.5,1.6l-0.1,0.3c-6.9,24.6-32.7,39-57.3,32c-15.7-4.4-27.9-16.9-32.1-32.7h40.2
			c0,0.2,0,0.3,0,0.5c0,5.1,4.1,9.2,9.2,9.2c5.1,0,9.2-4.1,9.2-9.2c0-4.7-3.4-8.5-8.1-9.1V0h-2.3v76.2
			C63.9,76.6,60.8,79.1,59.8,82.5z M68.6,78.4c3.8,0,6.9,3.1,6.9,6.9c0,3.8-3.1,6.9-6.9,6.9s-6.9-3.1-6.9-6.9l0,0
			C61.6,81.5,64.8,78.4,68.6,78.4z"/>
		
			<rect x="51.3" y="103.3" transform="matrix(0.4998 -0.8661 0.8661 0.4998 -61.7634 101.9207)" class="st4" width="12.1" height="2.3"/>
		<rect x="56.3" y="60.1" transform="matrix(0.866 -0.5 0.5 0.866 -25.3744 37.5628)" class="st4" width="2.3" height="12.1"/>
		
			<rect x="73.6" y="64.9" transform="matrix(0.4998 -0.8661 0.8661 0.4998 -17.4092 101.9904)" class="st4" width="12.1" height="2.3"/>
		
			<rect x="48.7" y="93.8" transform="matrix(0.8661 -0.4998 0.4998 0.8661 -40.4935 38.6297)" class="st4" width="6.3" height="2.3"/>
		<rect x="50.7" y="72.5" transform="matrix(0.4998 -0.8661 0.8661 0.4998 -39.612 82.709)" class="st4" width="2.3" height="6.3"/>
		<rect x="67.4" y="101.3" class="st4" width="2.3" height="6.3"/>
		<rect x="82" y="74.5" transform="matrix(0.866 -0.5 0.5 0.866 -26.4377 52.7128)" class="st4" width="6.3" height="2.3"/>
		<rect x="78.5" y="98.4" transform="matrix(0.866 -0.5 0.5 0.866 -41.568 53.8043)" class="st4" width="2.3" height="12.1"/>
		<rect x="84" y="91.7" transform="matrix(0.5 -0.866 0.866 0.5 -39.5981 121.1755)" class="st4" width="2.3" height="6.3"/>
	</g>
</g>
</svg>
