<?xml version="1.0" encoding="utf-8"?>
<!-- Generator: Adobe Illustrator 26.0.1, SVG Export Plug-In . SVG Version: 6.00 Build 0)  -->
<svg version="1.1" id="Слой_1" xmlns="http://www.w3.org/2000/svg" xmlns:xlink="http://www.w3.org/1999/xlink" x="0px" y="0px"
	 viewBox="0 0 128 128" style="enable-background:new 0 0 128 128;" xml:space="preserve">
<style type="text/css">
	.st0{clip-path:url(#SVGID_00000016764549693037718670000002581612918070430359_);}
	.st1{fill:#0A304E;}
	.st2{fill:#FFFFFF;}
	.st3{fill:#E7F0FD;}
	.st4{fill:#0E6AED;}
	.st5{fill:#E6F0FD;}
</style>
<g>
	<g>
		<defs>
			<rect id="SVGID_1_" width="128" height="128"/>
		</defs>
		<clipPath id="SVGID_00000158741067083392694460000012571230765374422400_">
			<use xlink:href="#SVGID_1_"  style="overflow:visible;"/>
		</clipPath>
		<g style="clip-path:url(#SVGID_00000158741067083392694460000012571230765374422400_);">
			<path class="st1" d="M128,28H94.2v2.3H128V28z"/>
			<path class="st1" d="M128,36.7H94.2v2.3H128V36.7z"/>
			<path class="st2" d="M63.9,58c16.8,0,30.4-11.1,30.4-24.8S80.7,8.4,63.9,8.4S33.5,19.5,33.5,33.2S47.1,58,63.9,58z"/>
			<path class="st1" d="M63.9,59c-17.3,0-31.4-11.6-31.4-25.8S46.6,7.3,63.9,7.3s31.4,11.6,31.4,25.8S81.2,59,63.9,59z M63.9,9.3
				C47.7,9.3,34.5,20,34.5,33.2S47.7,57,63.9,57s29.4-10.7,29.4-23.8S80.1,9.3,63.9,9.3z"/>
			<path class="st3" d="M63.9,51.9c13.1,0,23.7-8.3,23.7-18.6S77,14.7,63.9,14.7S40.2,23,40.2,33.3S50.8,51.9,63.9,51.9z"/>
			<path class="st1" d="M63.9,52.9c-13.6,0-24.7-8.8-24.7-19.6s11.1-19.6,24.7-19.6s24.6,8.8,24.6,19.6S77.5,52.9,63.9,52.9z
				 M63.9,15.7c-12.5,0-22.7,7.9-22.7,17.6s10.2,17.6,22.7,17.6S86.5,43,86.5,33.3S76.4,15.7,63.9,15.7z"/>
			<path class="st4" d="M99.4,96.3H72c-1.6,0-2.8-1.3-2.8-2.8V69.7c0.3-13.7,3.4-19.1,4.6-20.6c5.5-1.9,11.3-6.5,12.6-13.6
				c1.5-8.2-45.8-8.1-44.9,0.1c0.7,6.1,5.8,10.5,12.3,13.8c1.5,1.7,5,7,5,20.2v23.8c0,1.6-1.3,2.8-2.8,2.8H28.6l-4.9,11.5h35.1h10.3
				H104L99.4,96.3z"/>
			<path class="st5" d="M73.3,73.3v17.4h23.8l7,18.6H64H23.7l7.1-18.6h23.8V73.3H12.8v46.3h51.1H115V73.3H73.3z"/>
			<path class="st1" d="M11.8,120.7V72.3h43.8v19.6H31.5l-6.4,14.9h38.8h38.7l-6-14.9H72.3V72.3h43.8v48.5H11.8V120.7z M13.8,74.4
				v44.1h50.1h50.2V74.4H74.3v15.2h23.5l7.7,19.3H22.1l8.1-19.3h23.5V74.4H13.8z"/>
			<path class="st1" d="M82.6,81.1h-2v2h2V81.1z"/>
			<path class="st1" d="M21.8,81.1h-2v2h2V81.1z"/>
			<path class="st1" d="M88.7,81.1h-2v2h2V81.1z"/>
			<path class="st1" d="M27.9,81.1h-2v2h2V81.1z"/>
			<path class="st1" d="M94.8,81.1h-2v2h2V81.1z"/>
			<path class="st1" d="M34,81.1h-2v2h2V81.1z"/>
			<path class="st1" d="M100.9,81.1h-2v2h2V81.1z"/>
			<path class="st1" d="M40.1,81.1h-2v2h2V81.1z"/>
			<path class="st1" d="M107,81.1h-2v2h2V81.1z"/>
			<path class="st1" d="M46.2,81.1h-2v2h2V81.1z"/>
		</g>
	</g>
</g>
</svg>
