<?xml version="1.0" encoding="utf-8"?>
<!-- Generator: Adobe Illustrator 26.0.1, SVG Export Plug-In . SVG Version: 6.00 Build 0)  -->
<svg version="1.1" id="Слой_1" xmlns="http://www.w3.org/2000/svg" xmlns:xlink="http://www.w3.org/1999/xlink" x="0px" y="0px"
	 viewBox="0 0 128 128" style="enable-background:new 0 0 128 128;" xml:space="preserve">
<style type="text/css">
	.st0{fill:#0E6AED;}
	.st1{fill:#E6F0FD;}
	.st2{fill:none;stroke:#0A304E;strokeWidth:2;stroke-miterlimit:10;}
	.st3{fill:none;stroke:#0A304E;strokeWidth:2;stroke-miterlimit:10;stroke-dasharray:3.75,3.75;}
	.st4{fill:none;stroke:#0A304E;strokeWidth:2;stroke-miterlimit:10;stroke-dasharray:3.83,3.83;}
	.st5{fill:#FFFFFF;}
</style>
<g>
	<g id="Fills_00000034084994409806100550000012523081935441728954_">
		<polygon class="st0" points="115.8,105.9 115.8,127 12.2,127 12.2,67.3 53.9,67.3 53.9,105.9 		"/>
		<path class="st1" d="M74.1,67.3v3.3c0,0,0,1.7,0,4.5c-0.3,5.2-1.2,10.3-2.7,15.3c-1,3.3,2.7,5.7,2.7,7.3v8.2h41.7V67.3H74.1z"/>
	</g>
	<g id="Linework_00000161610671573181278330000002263598672843289779_">
		<line class="st2" x1="76.9" y1="67.3" x2="79" y2="67.3"/>
		<line class="st3" x1="82.8" y1="67.3" x2="111.8" y2="67.3"/>
		<polyline class="st2" points="113.7,67.3 115.8,67.3 115.8,69.3 		"/>
		<line class="st4" x1="115.8" y1="73.3" x2="115.8" y2="102.9"/>
		<line class="st2" x1="115.8" y1="104.9" x2="115.8" y2="106.9"/>
		<polygon class="st2" points="115.8,105.9 115.8,127 12.2,127 12.2,67.3 53.9,67.3 53.9,105.9 		"/>
		<path class="st2" d="M83.2,53.4c5-1.9,8.1-4.5,8.1-7.4c0-2.9-3.1-5.5-8.1-7.4c-3.5-1.2-7.1-2.1-10.7-2.5"/>
		<polyline class="st2" points="86,46.1 83.2,53.4 90.5,57.1 		"/>
		<path class="st5" d="M55.8,17.2l-1.9,3.5V3.2h20c-0.2,1.9-0.8,3.7-1.8,5.4l1.9-3.5v22.8c0,4-0.9,7.9-2.8,11.3l-0.9,1.6
			c2.5,2.6,3.8,6.2,3.6,9.8c0,2.8-0.6,5.5-1.9,7.9l1.9-3.5v22.9c0,4-0.9,7.9-2.8,11.3l-0.9,1.6c2.4,2.6,3.8,6.1,3.6,9.7
			c0,1.8-0.3,3.6-0.8,5.4H53.9v-8.2c0-4,0.9-7.9,2.8-11.3l0.8-1.5c-2.4-2.6-3.8-6.1-3.6-9.7c0-2.8,0.6-5.5,1.9-7.9l-1.9,3.5V47.8
			c0-4,0.9-7.9,2.8-11.3l0.8-1.5c-2.4-2.6-3.8-6.1-3.6-9.7C53.9,22.4,54.5,19.7,55.8,17.2z"/>
		<path class="st2" d="M53.9,70.6l17.4-31.3c1.9-3.5,2.8-7.4,2.8-11.3V5.1L56.7,36.4c-1.9,3.5-2.8,7.4-2.8,11.3V70.6z"/>
		<path class="st2" d="M55.8,67.2l14.6-26.3c2.5,2.6,3.8,6.1,3.6,9.7c0,2.8-0.6,5.5-1.9,7.9L57.5,84.8c-2.4-2.6-3.8-6.1-3.6-9.7
			C53.9,72.3,54.5,69.6,55.8,67.2z"/>
		<path class="st2" d="M53.9,105.9v-8.2c0-4,0.9-7.9,2.8-11.3L74.1,55v22.9c0,4-0.9,7.9-2.8,11.3l-9.3,16.6L53.9,105.9z"/>
		<path class="st2" d="M70.5,90.8c2.4,2.6,3.8,6.1,3.6,9.7c0,1.8-0.3,3.6-0.8,5.4H62.1L70.5,90.8z"/>
		<polygon class="st2" points="66,-1.1 53.9,20.7 53.9,5.1 53.9,-1.1 		"/>
		<path class="st2" d="M66.1-1.1h8c0.1,0.6,0.1,1.2,0.1,1.7c0,2.8-0.6,5.5-1.9,7.9L57.6,34.9c-2.4-2.6-3.8-6.1-3.6-9.7
			c0-2.8,0.6-5.5,1.9-7.9L66.1-1.1z"/>
		<path class="st2" d="M45.5,43.7c-5,1.9-8.1,4.5-8.1,7.4s3.1,5.5,8.1,7.4c6.3,2.2,12.9,3.2,19.5,3.1"/>
		<polyline class="st2" points="42.7,51 45.5,43.7 38.2,40 		"/>
	</g>
</g>
</svg>
