<?xml version="1.0" encoding="utf-8"?>
<!-- Generator: Adobe Illustrator 26.0.1, SVG Export Plug-In . SVG Version: 6.00 Build 0)  -->
<svg version="1.1" id="Слой_1" xmlns="http://www.w3.org/2000/svg" xmlns:xlink="http://www.w3.org/1999/xlink" x="0px" y="0px"
	 viewBox="0 0 128 128" style="enable-background:new 0 0 128 128;" xml:space="preserve">
<style type="text/css">
	.st0{fill:#E6F0FD;}
	.st1{fill:#0E6AED;}
	.st2{fill:none;stroke:#0A304E;strokeWidth:2;stroke-miterlimit:10;}
	.st3{fill:none;stroke:#092C47;strokeWidth:2;stroke-miterlimit:10;}
</style>
<g>
	<g id="Fills_00000001661855321657587050000005452902090469408146_">
		<path class="st0" d="M38.6,95.9v6.5h-8.8V90.3c0-2.1,1.2-3.8,2.7-3.8H58c1,0,1.8-1.2,1.8-2.6v-3.1L56,75.7v-4.2l3.8-5.1v-4.9
			L56,56.4v-4.2l3.8-5.1v-3c0-1.4-0.8-2.6-1.8-2.6H32.5c-1.5,0-2.7-1.7-2.7-3.8V25.5h8.8v6.5H58V16.2H25V2.4H7.7v123.1H25v-13.8h33
			V95.9L38.6,95.9z"/>
		<path class="st0" d="M73.3,32.1c1.1,0,1.8,1.2,1.8,2.6V56l6.8,3.9l19.4,0.1V2.4H84v13.8H58v15.8L73.3,32.1z"/>
		<path class="st0" d="M82,68.1L75.1,72v21.3c0,1.4-0.8,2.6-1.8,2.6H58v15.8H84v13.8h17.3V68L82,68.1z"/>
		<path class="st1" d="M128,42.6L112,60L82,59.9L75.1,56V34.7c0-1.4-0.8-2.6-1.8-2.6H38.6v-6.5h-8.8v12.2c0,2.1,1.2,3.8,2.7,3.8H58
			c1.1,0,1.8,1.2,1.8,2.6v3.1L56,52.3v4.2l3.8,5.1v4.9L56,71.6v4.2l3.8,5.1V84c0,1.4-0.8,2.6-1.8,2.6H32.5c-1.5,0-2.7,1.7-2.7,3.8
			v12.2h8.8V96h34.7c1.1,0,1.8-1.2,1.8-2.6V72l6.8-3.9l30.1-0.1L128,85.3V42.6z"/>
	</g>
	<g id="Linework_00000145781383740218740870000009441124396695014313_">
		<line class="st2" x1="7.7" y1="6.6" x2="0" y2="6.6"/>
		<line class="st2" x1="84" y1="6.6" x2="25" y2="6.6"/>
		<line class="st2" x1="109" y1="6.6" x2="101.3" y2="6.6"/>
		<line class="st2" x1="7.7" y1="121.4" x2="0" y2="121.4"/>
		<line class="st2" x1="84" y1="121.4" x2="25" y2="121.4"/>
		<line class="st2" x1="109" y1="121.4" x2="101.3" y2="121.4"/>
		<path class="st2" d="M38.6,95.9v6.5h-8.8V90.3c0-2.1,1.2-3.8,2.7-3.8H58c1,0,1.8-1.2,1.8-2.6v-3.1L56,75.7v-4.2l3.8-5.1v-4.9
			L56,56.4v-4.2l3.8-5.1v-3c0-1.4-0.8-2.6-1.8-2.6H32.5c-1.5,0-2.7-1.7-2.7-3.8V25.5h8.8v6.5h34.7c1.1,0,1.8,1.2,1.8,2.6V56l6.8,3.9
			L112,60l19.3-21.1V89L112,67.9L82,68l-6.8,3.9v21.4c0,1.4-0.8,2.6-1.8,2.6H38.6v6.5h-8.8V90.3c0-2.1,1.2-3.8,2.7-3.8H58
			c1,0,1.8-1.2,1.8-2.6v-3.1L56,75.7v-4.2l3.8-5.1v-4.9L56,56.4v-4.2l3.8-5.1v-3c0-1.4-0.8-2.6-1.8-2.6H32.5c-1.5,0-2.7-1.7-2.7-3.8
			V25.5h8.8v6.5"/>
		<line class="st2" x1="29.8" y1="16.3" x2="29.8" y2="25.1"/>
		<line class="st2" x1="29.8" y1="102.9" x2="29.8" y2="112.1"/>
		<polyline class="st3" points="101.3,68 101.3,125.5 84,125.5 84,111.7 67.9,111.7 25,111.7 25,125.5 7.7,125.5 7.7,2.4 25,2.4 
			25,16.3 84,16.3 84,2.4 101.3,2.4 101.3,59.4 		"/>
	</g>
</g>
</svg>
