<?xml version="1.0" encoding="utf-8"?>
<!-- Generator: Adobe Illustrator 26.0.1, SVG Export Plug-In . SVG Version: 6.00 Build 0)  -->
<svg version="1.1" id="Слой_1" xmlns="http://www.w3.org/2000/svg" xmlns:xlink="http://www.w3.org/1999/xlink" x="0px" y="0px"
	 viewBox="0 0 128 128" style="enable-background:new 0 0 128 128;" xml:space="preserve">
<style type="text/css">
	.st0{fill:#E6F0FD;}
	.st1{fill:#0E6AED;}
	.st2{fill:none;}
	.st3{fill:#092C47;}
</style>
<g id="Fills">
	<path class="st0" d="M64.7,102.5l18.5-18.5V0H58.5v34.4C75.8,48.9,78.1,74.7,63.6,92c-1.5,1.9-3.3,3.6-5.1,5.1l-0.3,0.1l5.2,5.2
		C63.8,102.8,64.3,102.8,64.7,102.5C64.7,102.5,64.7,102.5,64.7,102.5z"/>
	<path class="st1" d="M101.4,65.7l-36.7,36.7c-0.3,0.4-0.9,0.4-1.3,0c0,0,0,0,0,0l-5.2-5.2L42.4,81.5c-0.3-0.4-0.3-0.9,0-1.3
		L59,63.6L51.4,56L30.3,77.1c-2.1,2-2.1,5.4,0,7.4c0,0,0,0,0,0l14.8,14.8l15.3,15.3c2.1,2,5.4,2,7.4,0l15.3-15.3l0,0l26-26
		L101.4,65.7z"/>
	<path class="st0" d="M67.8,114.6c-2.1,2-5.4,2-7.4,0L45.1,99.3h-25V128H108V99.3H83L67.8,114.6z"/>
</g>
<g id="Linework">
	<path class="st2" d="M64.1,115.2c1.1,0,2.2-0.5,3-1.2l40.6-40.6l-6.2-6.2L84.2,84.3l0,0l-18.8,18.8c-0.4,0.3-0.8,0.5-1.3,0.6
		c-0.4,0-0.7-0.1-1-0.3c-0.1-0.1-0.2-0.2-0.3-0.2l-6.4-6.4l0,0L41.7,82.2c-0.7-0.7-0.7-1.9,0-2.7l15.9-15.9l-6.2-6.2L31,77.8
		c-1.6,1.7-1.6,4.3,0,6l14.5,14.5l15.6,15.6C61.8,114.7,62.9,115.2,64.1,115.2z"/>
	<path class="st3" d="M19.1,128h2v-27.7h23.5l15,15c0.4,0.4,0.9,0.8,1.5,1.1c2.4,1.3,5.4,0.8,7.4-1.1l15-15H107V128h2V98.3H85.5
		l25-25l-9-9L84.2,81.5V0h-2v83.5l-18.2,18.2l-4.3-4.3c17.5-15.2,19.3-41.7,4.1-59.1c-1.3-1.5-2.8-3-4.4-4.3V0h-2v34.9l0.4,0.3
		c16.9,14.1,19.2,39.3,5,56.2C61.5,93,60,94.6,58.3,96L43.2,80.8l17.2-17.2l-9-9L29.6,76.4c-2.4,2.4-2.5,6.4,0,8.8c0,0,0,0,0,0
		l13.1,13.1H19.1V128z M31,83.9c-1.6-1.7-1.6-4.3,0-6l20.4-20.4l6.2,6.2L41.7,79.5c-0.7,0.7-0.7,1.9,0,2.7l14.6,14.6l0,0l6.4,6.4
		c0.1,0.1,0.2,0.2,0.3,0.2c0.3,0.2,0.7,0.3,1,0.3c0.5,0,1-0.2,1.3-0.6l18.8-18.8l0,0l17.2-17.2l6.2,6.2l-40.6,40.6
		c-1.7,1.7-4.3,1.7-6,0L45.5,98.3L31,83.9z"/>
</g>
</svg>
