<svg id="Слой_1" data-name="Слой 1" xmlns="http://www.w3.org/2000/svg" viewBox="0 0 50 39.95"><defs><style>.cls-1{fill:#092c47;}</style></defs><path class="cls-1" d="M37,8.66h-.85V8.09A3.77,3.77,0,0,0,32.4,4.32h-.94V3.77A3.79,3.79,0,0,0,27.69,0H13A3.79,3.79,0,0,0,9.22,3.77V27.53A3.77,3.77,0,0,0,13,31.3h.95v.55a3.77,3.77,0,0,0,3.77,3.77h.84v.56A3.77,3.77,0,0,0,22.27,40H37a3.77,3.77,0,0,0,3.74-3.77V12.47A3.77,3.77,0,0,0,37,8.66ZM13.92,8.09V29.47H13a2,2,0,0,1-2-2V3.77a2,2,0,0,1,2-2H27.69a2,2,0,0,1,2,2v.55h-12a3.77,3.77,0,0,0-3.77,3.77Zm4.61,4.38v21.4h-.84a2,2,0,0,1-2-2V8.09a2,2,0,0,1,2-2H32.4a2,2,0,0,1,2,2v.57H22.3a3.77,3.77,0,0,0-3.77,3.77h0ZM39,36.22a2,2,0,0,1-2,2H22.3a2,2,0,0,1-2-2V12.47a2,2,0,0,1,2-2H37a2,2,0,0,1,2,2Z"/><path class="cls-1" d="M36,12.69H29.17a.89.89,0,0,0-.9.88h0a.89.89,0,0,0,.89.89H36a.89.89,0,0,0,.9-.88h0a.89.89,0,0,0-.89-.89Z"/><path class="cls-1" d="M36,15.07H29.17a.9.9,0,0,0-.9.9h0a.89.89,0,0,0,.89.89H36a.89.89,0,0,0,.9-.88h0a.9.9,0,0,0-.9-.9h0Z"/><path class="cls-1" d="M36,19.1H29.17a.89.89,0,0,0-.9.88h0a.89.89,0,0,0,.89.89H36a.89.89,0,0,0,.9-.88h0A.89.89,0,0,0,36,19.1Z"/><path class="cls-1" d="M36,21.47H29.17a.9.9,0,0,0-.9.9h0a.89.89,0,0,0,.89.89H36a.89.89,0,0,0,.9-.88h0a.9.9,0,0,0-.9-.9h0Z"/><path class="cls-1" d="M36,25.47H29.17a.9.9,0,0,0-.9.9h0a.89.89,0,0,0,.89.89H36a.89.89,0,0,0,.9-.88h0a.9.9,0,0,0-.9-.9h0Z"/><path class="cls-1" d="M36,27.81H29.17a.89.89,0,0,0-.9.88h0a.9.9,0,0,0,.9.9H36a.9.9,0,0,0,.9-.9h0A.89.89,0,0,0,36,27.8Z"/><path class="cls-1" d="M36,34.13H29.17a.9.9,0,0,0-.9.9h0a.89.89,0,0,0,.89.89H36a.89.89,0,0,0,.9-.88h0a.9.9,0,0,0-.9-.9h0Z"/><path class="cls-1" d="M36,31.75H29.17a.89.89,0,0,0-.9.88h0a.89.89,0,0,0,.89.89H36a.89.89,0,0,0,.9-.88h0a.89.89,0,0,0-.89-.89Z"/><circle class="cls-1" cx="24.47" cy="14.77" r="2.06"/><circle class="cls-1" cx="24.47" cy="21.18" r="2.06"/><circle class="cls-1" cx="24.5" cy="27.51" r="2.06"/><circle class="cls-1" cx="24.47" cy="33.83" r="2.06"/></svg>