<svg id="Слой_1" data-name="Слой 1" xmlns="http://www.w3.org/2000/svg" viewBox="0 0 50 39.95"><defs><style>.cls-1{fill:#092c47;}.cls-2{fill:#0e6aed;}.cls-3{fill:#4800e3;}</style></defs><path class="cls-1" d="M20,0,.59,9,0,9.26V28.77a1,1,0,0,0,.55.92L19.42,39.82h0a1,1,0,0,0,.49.13h.27a1.11,1.11,0,0,0,.5-.12L39.53,29.69a1,1,0,0,0,.55-.93V9.23L20.44.18Zm-.91,37.57L1.86,28.29v-17l7.73,3.86L19.12,20ZM20,18.35,7.93,12.29,3.06,9.87,9,7.13l16.58,8.45Zm18.19,9.94L21,37.57V20l4.63-2.31,1-.5v7.32l6-3.42v-6.9l5.63-2.81v17Zm-6.6-15.73L15.12,4.3,20,2,37,9.87Z"/><polygon class="cls-1" points="42.92 4.88 44.37 3.69 42.92 2.51 42.13 0.34 41.34 2.51 39.9 3.69 41.34 4.88 42.13 7.05 42.92 4.88"/><polygon class="cls-1" points="44.37 9.25 43.58 11.42 42.13 12.61 43.58 13.79 44.37 15.96 45.16 13.79 46.61 12.61 45.16 11.42 44.37 9.25"/><polygon class="cls-1" points="48.55 5.32 47.76 3.15 46.97 5.32 45.52 6.5 46.97 7.69 47.76 9.86 48.55 7.69 50 6.5 48.55 5.32"/><polygon class="cls-2" points="6.61 26.98 8.04 27.67 9.56 26.65 8.95 25.25 6.61 26.98"/><polygon class="cls-2" points="14.82 23.11 14.15 21.41 11.24 23.56 9.39 19.13 7.84 18.39 12.48 29.82 13.57 29.15 11.88 25.09 14.82 23.11"/><polygon class="cls-3" points="13.89 21.27 12.33 20.53 10.69 21.71 11.3 23.19 13.89 21.27"/><polygon class="cls-3" points="6.5 19.13 8.35 23.39 5.7 25.29 6.38 26.84 9.01 24.89 10.79 29.02 12.23 29.72 7.58 18.29 6.5 19.13"/></svg>