<svg id="Слой_1" data-name="Слой 1" xmlns="http://www.w3.org/2000/svg" viewBox="0 0 50 39.95"><defs><style>.cls-1{fill:#092c47;}</style></defs><path class="cls-1" d="M14.49,25.39H16.4a7.82,7.82,0,0,0,.6,1.47L15.66,28.2a1.68,1.68,0,0,0,0,2.38h0l1.49,1.49a1.7,1.7,0,0,0,2.38,0l1.34-1.35a9.63,9.63,0,0,0,1.45.6v1.91A1.68,1.68,0,0,0,24,34.86h2.1a1.69,1.69,0,0,0,1.65-1.67V31.33a9.11,9.11,0,0,0,1.44-.6l1.35,1.35a1.66,1.66,0,0,0,1.19.47h0a1.68,1.68,0,0,0,1.18-.47l1.5-1.49a1.74,1.74,0,0,0,0-2.45L33.06,26.8a9.63,9.63,0,0,0,.6-1.45h1.9a1.68,1.68,0,0,0,1.68-1.68h0V21.6a1.68,1.68,0,0,0-1.68-1.68h-1.9a9.63,9.63,0,0,0-.6-1.45l1.35-1.34a1.7,1.7,0,0,0,0-2.38l-1.5-1.49a1.72,1.72,0,0,0-2.37,0l-1.35,1.35a9.11,9.11,0,0,0-1.44-.6V12.1a1.69,1.69,0,0,0-1.68-1.67H24a1.69,1.69,0,0,0-1.68,1.67V14a9.63,9.63,0,0,0-1.45.6l-1.35-1.35a1.7,1.7,0,0,0-2.38,0l-1.49,1.5a1.67,1.67,0,0,0,0,2.36h0L17,18.48a9.07,9.07,0,0,0-.59,1.44H14.49a1.68,1.68,0,0,0-1.68,1.68h0v2.11A1.68,1.68,0,0,0,14.49,25.39Zm3-4.69a7.62,7.62,0,0,1,.83-2,.61.61,0,0,0-.09-.75l-1.68-1.68a.43.43,0,0,1,0-.61h0L18,14.16a.45.45,0,0,1,.61,0l1.72,1.7a.63.63,0,0,0,.76.1,8.16,8.16,0,0,1,2-.84.63.63,0,0,0,.47-.6v-2.4a.43.43,0,0,1,.43-.43H26.1a.44.44,0,0,1,.43.43V14.5a.62.62,0,0,0,.47.6,8.16,8.16,0,0,1,2,.84.63.63,0,0,0,.76-.1l1.68-1.68a.47.47,0,0,1,.31-.12.47.47,0,0,1,.3.12l1.49,1.5a.43.43,0,0,1,.13.3.44.44,0,0,1-.13.31L31.87,18a.62.62,0,0,0-.1.75,8.16,8.16,0,0,1,.84,2,.61.61,0,0,0,.6.47h2.37a.43.43,0,0,1,.43.43h0v2.11a.43.43,0,0,1-.43.43H33.21a.62.62,0,0,0-.6.47,8.16,8.16,0,0,1-.84,2,.62.62,0,0,0,.1.75L33.54,29a.4.4,0,0,1,.13.31.44.44,0,0,1-.13.31l-1.49,1.49a.45.45,0,0,1-.61,0l-1.69-1.64a.63.63,0,0,0-.76-.1,8.16,8.16,0,0,1-2,.84.62.62,0,0,0-.47.6v2.38a.43.43,0,0,1-.43.43H24a.43.43,0,0,1-.43-.43h0V30.86a.63.63,0,0,0-.47-.6,8.16,8.16,0,0,1-2-.84.63.63,0,0,0-.33-.06.62.62,0,0,0-.44.18l-1.67,1.68a.44.44,0,0,1-.62,0l-1.49-1.5a.43.43,0,0,1-.13-.3.44.44,0,0,1,.13-.31l1.68-1.68a.61.61,0,0,0,.09-.75,7.62,7.62,0,0,1-.83-2,.62.62,0,0,0-.6-.47h-2.4a.43.43,0,0,1-.43-.43h0V21.6a.43.43,0,0,1,.43-.43h2.38a.62.62,0,0,0,.6-.47Z"/><path class="cls-1" d="M25,26.59a3.94,3.94,0,1,0-3.93-3.95h0A4,4,0,0,0,25,26.59Zm-2.57-3.94A2.58,2.58,0,1,1,25,25.23h0a2.58,2.58,0,0,1-2.53-2.58Z"/><path class="cls-1" d="M42.56,0h-35A2.48,2.48,0,0,0,5.11,2.46v35a2.48,2.48,0,0,0,2.45,2.46h35A2.46,2.46,0,0,0,45,37.46v-35A2.46,2.46,0,0,0,42.56,0Zm.92,6.33V37.49a.93.93,0,0,1-.92.93h-35a.93.93,0,0,1-.92-.93V6.33Zm0-3.87V4.79H6.6V2.46a.93.93,0,0,1,.92-.93h35a.94.94,0,0,1,1,.88h0Z"/><path class="cls-1" d="M9.12,2.05H7.59a.37.37,0,0,0-.36.37V3.94a.36.36,0,0,0,.35.37H9.12A.37.37,0,0,0,9.48,4h0V2.42a.36.36,0,0,0-.35-.37h0Z"/><path class="cls-1" d="M13,2.05H11.55a.4.4,0,0,0-.4.4h0V3.91a.4.4,0,0,0,.4.4H13a.4.4,0,0,0,.39-.4V2.45A.4.4,0,0,0,13,2.05Z"/></svg>