<svg id="Слой_1" data-name="Слой 1" xmlns="http://www.w3.org/2000/svg" viewBox="0 0 50 40.02"><defs><style>.cls-1{fill:#092c47;}</style></defs><rect class="cls-1" x="32.41" y="11.32" width="4.07" height="1.67"/><rect class="cls-1" x="32.51" y="19.2" width="4.07" height="1.67"/><rect class="cls-1" x="15.18" y="19.2" width="1.68" height="1.67"/><rect class="cls-1" x="18.09" y="19.2" width="1.68" height="1.67"/><rect class="cls-1" x="15.18" y="11.32" width="1.68" height="1.67"/><rect class="cls-1" x="18.09" y="11.32" width="1.68" height="1.67"/><path class="cls-1" d="M26,17V16.9L11.3,31.74l-.12.12H20.6v8.08H32.08V31.88h8.58Zm5,13.78v8.08H21.76V30.74H13.91l12-12.22,12,12.22Z"/><path class="cls-1" d="M13.1,24.74h3.61V23.55H13.1v-7H24.82v-1.1H13.1V8.37H38.74v7.08h-12v1.13h12v7h-4v1.16h4v3.87l1.17,1.13V7.21h-.1L33.47,0H18.3L12,7.21V29.74l1.13-1.13ZM32.91,1.15l5.37,6.06H13.52l5.32-6.09Z"/><path class="cls-1" d="M22.1,25.74a1.38,1.38,0,0,1,.45.08A3.9,3.9,0,0,1,23,26h.07l.35-.87h-.06a3,3,0,0,0-1.28-.3,2.14,2.14,0,0,0-1.1.27,1.92,1.92,0,0,0-.72.8,2.62,2.62,0,0,0-.25,1.2,2.43,2.43,0,0,0,.51,1.62,1.86,1.86,0,0,0,1.47.59,3.09,3.09,0,0,0,1.2-.23h0v-.88h-.1a3.24,3.24,0,0,1-1.06.22c-.67,0-1-.44-1-1.35a1.77,1.77,0,0,1,.27-1A.86.86,0,0,1,22.1,25.74Z"/><path class="cls-1" d="M25,24.84l-1.55,4.42h1.12l.31-1h1.45l.31,1h1.12l-1.55-4.42Zm1.07,2.51h-.92c.21-.69.37-1.19.46-1.51h0C25.66,26,25.79,26.43,26.08,27.35Z"/><path class="cls-1" d="M31.22,25.43a2.32,2.32,0,0,0-1.67-.57H28.14v4.4h1.28a2.53,2.53,0,0,0,1.77-.58,2.45,2.45,0,0,0,0-3.25ZM30.73,27c0,.9-.4,1.33-1.23,1.33h-.32V25.74h.41C30.36,25.74,30.73,26.21,30.73,27Z"/></svg>