<?xml version="1.0" encoding="UTF-8"?>
<svg xmlns="http://www.w3.org/2000/svg" id="icons" viewBox="0 0 250 250">
  <defs>
    <style>.cls-1{fill:#253842;}</style>
  </defs>
  <title>icon-industries-education-graduation-cap-001</title>
  <path class="cls-1" d="M127.77,152.31a20.45,20.45,0,0,1-6.86-1.18L.25,109.79,0,88.68l119.36-39a23,23,0,0,1,15.27,0L249.75,88.7l.25,20.91-21.23,8.23-3.76-9.7,14.5-5.63-.07-6.32L131.23,59.59a12.75,12.75,0,0,0-8.51,0L10.5,96.2l.07,6.13,113.77,39a10.3,10.3,0,0,0,6.8,0l77.61-27.86,3.52,9.8-77.63,27.86A20.76,20.76,0,0,1,127.77,152.31Z"></path>
  <path class="cls-1" d="M223.31,196.36H212.9V133.93c0-9.75-3.71-10.8-5.49-11.3L128.07,97.26l3.17-9.91,79.17,25.31c5.79,1.64,12.9,6.71,12.9,21.27Z"></path>
  <path class="cls-1" d="M124.45,201.57c-33.61,0-67.64-8.94-67.64-26V128.72h10.4v46.83c0,5.3,20.21,15.61,57.24,15.61s57.23-10.31,57.23-15.61V128.72h10.41v46.83C192.09,192.63,158.06,201.57,124.45,201.57Z"></path>
</svg>
