<?xml version="1.0" encoding="UTF-8"?>
<svg xmlns="http://www.w3.org/2000/svg" id="icons" viewBox="0 0 250 250">
  <defs>
    <style>.cls-1{fill:#253842;}</style>
  </defs>
  <title>icon-industries-waste-factory-001</title>
  <path class="cls-1" d="M89.56,107.59a5.45,5.45,0,0,0-5.32-4.33h-38a5.45,5.45,0,0,0-5.33,4.33L13.7,238a5.22,5.22,0,0,0-.11,1.11v5.44A5.43,5.43,0,0,0,19,250h92.39a5.44,5.44,0,0,0,5.44-5.43v-5.44a5.24,5.24,0,0,0-.12-1.11Zm-65,131.54,26-125H79.82l26,125Z"></path>
  <path class="cls-1" d="M231,184.78h-8l-20.13-30.19a5.43,5.43,0,0,0-4.52-2.42H187.5a5.44,5.44,0,0,0-5.43,5.44v27.17h-2.53l-20.13-30.19a5.43,5.43,0,0,0-4.52-2.42H144a5.44,5.44,0,0,0-5.43,5.44v27.17h-2.53l-20.13-30.19a5.42,5.42,0,0,0-4.52-2.42H106V163h2.52l20.13,30.19a5.43,5.43,0,0,0,4.52,2.42H144a5.44,5.44,0,0,0,5.44-5.43V163H152l20.13,30.19a5.43,5.43,0,0,0,4.52,2.42H187.5a5.43,5.43,0,0,0,5.43-5.43V163h2.53l20.13,30.19a5.43,5.43,0,0,0,4.52,2.42h5.43v43.48H122.28V250H231a5.43,5.43,0,0,0,5.43-5.43V190.22A5.44,5.44,0,0,0,231,184.78Z"></path>
  <rect class="cls-1" x="198.37" y="217.39" width="16.3" height="10.87"></rect>
  <rect class="cls-1" x="171.2" y="217.39" width="16.3" height="10.87"></rect>
  <rect class="cls-1" x="144.02" y="217.39" width="16.3" height="10.87"></rect>
  <path class="cls-1" d="M48.37,96.74l6.52-8.69a21.75,21.75,0,0,1,4.62-37.44l2.9-1.22.38-3.13A21.41,21.41,0,0,1,94,29.59l1.78.9a21.74,21.74,0,0,1,5.89,5.38l8.7-6.53a33.09,33.09,0,0,0-7.11-6.87,21.45,21.45,0,0,1,19.06-11.6,21.69,21.69,0,0,1,18.13,9.8,37.77,37.77,0,0,0-7.59,9.2l9.41,5.45a28.56,28.56,0,0,1,13-11.44l.43-.16a26.59,26.59,0,0,1,4.46-1.33c.37-.08.74-.16,1.12-.22a27.91,27.91,0,0,1,10.87.29A27,27,0,0,1,192.31,43,27.44,27.44,0,0,1,186.86,66a27.13,27.13,0,0,1-42.75-.76,7.09,7.09,0,0,0-12.29,1.88A21.56,21.56,0,0,1,97,75.91l-.63-.56a21.55,21.55,0,0,1-6.25-11.22L79.46,66.3a32.36,32.36,0,0,0,7.37,14.88A21.69,21.69,0,0,1,80.9,88l6.56,8.67a32.87,32.87,0,0,0,7.9-8.57c.68.39,1.43.65,2.15,1s1.34.67,2,1,1.41.5,2.13.72a30.38,30.38,0,0,0,2.94.79c.6.13,1.18.27,1.78.36a32.28,32.28,0,0,0,5,.44,32.68,32.68,0,0,0,28-16,38,38,0,0,0,55.85-3.47,38,38,0,0,0-20.78-61,39,39,0,0,0-8.76-.87v-.12c-.92,0-1.81.12-2.72.18-.63,0-1.27,0-1.9.13a37.58,37.58,0,0,0-5.38,1c-.64.18-1.26.44-1.9.65-1.19.4-2.36.82-3.5,1.33-.3.13-.62.2-.92.34a32.51,32.51,0,0,0-56,3.15,31.29,31.29,0,0,0-9.17-1.39A32.58,32.58,0,0,0,52.52,41.91a32.62,32.62,0,0,0-4.15,54.83Z"></path>
</svg>
