<?xml version="1.0" encoding="UTF-8"?>
<svg xmlns="http://www.w3.org/2000/svg" id="icons" viewBox="0 0 250 250">
  <defs>
    <style>.cls-1{fill:#253842;}</style>
  </defs>
  <title>icon-industries-transportation-car-001</title>
  <path class="cls-1" d="M184.94,94.06c-16.8-15.79-37-31.56-60.27-31.56H83.83c-18.07,0-30.28,9.67-44.41,20.87-4.27,3.38-8.67,6.87-13.56,10.38H10.92a5.22,5.22,0,0,0-4.86,3.34c-5.45,14.16-7.71,37.83-4.75,49.67,3.21,12.84,12.17,19.9,25.24,19.9h1.11a28.61,28.61,0,0,0,55.07,0c12.12,0,25.91,0,39.83.05,12.23,0,24.47.06,35.52.06h5a28.61,28.61,0,0,0,55-.1h26.66a5.2,5.2,0,0,0,5.21-5.2V130.21C250,112.87,209.14,98,184.94,94.06Zm-129.75,83a18.23,18.23,0,1,1,18.23-18.23A18.25,18.25,0,0,1,55.19,177.08Zm135.41,0a18.23,18.23,0,1,1,18.23-18.23A18.25,18.25,0,0,1,190.6,177.08Zm49-20.83H219.11a28.63,28.63,0,0,0-57,.1c-12.07,0-25.74,0-39.49,0-13.56,0-27-.06-38.89-.06a28.63,28.63,0,0,0-57,0h-.13c-8.28,0-13.09-3.82-15.14-12s-.95-26.78,3.21-40.06h12.9a5.26,5.26,0,0,0,3-1c5.67-4,10.6-7.91,15.37-11.68,13.64-10.81,23.5-18.62,37.94-18.62h40.84c16,0,32.26,8.92,54.29,29.82a5.14,5.14,0,0,0,2.83,1.37c29.23,4.29,57.79,19.62,57.79,26.1Z"></path>
  <path class="cls-1" d="M155.75,104.17H75.58l-14.1-14.1-7.37,7.36,15.63,15.63a5.22,5.22,0,0,0,3.68,1.52h83.33a5.33,5.33,0,0,0,1.93-.36l10.41-4.16-3.85-9.67Z"></path>
</svg>
