<?xml version="1.0" encoding="UTF-8"?>
<svg xmlns="http://www.w3.org/2000/svg" id="icons" viewBox="0 0 250 250">
  <defs>
    <style>.cls-1{fill:#253842;}</style>
  </defs>
  <title>icon-industries-medical-needle-001</title>
  <polygon class="cls-1" points="250 52.56 197.44 0 189.93 7.51 204.94 22.52 167.4 60.07 174.91 67.58 212.45 30.03 219.96 37.54 182.42 75.09 189.93 82.6 227.47 45.05 242.49 60.07 250 52.56"></polygon>
  <path class="cls-1" d="M189.93,97.62,152.38,60.07l-3.75-3.75-7.51-7.51-7.51,7.51,7.51,7.51L54.76,150.18,66,161.45,43.5,184,51,191.48l-51,51L7.51,250l51-51L66,206.5,88.55,184l11.27,11.27,86.35-86.36,7.51,7.51,7.51-7.51-7.51-7.51ZM81,176.46l-15,15L58.52,184l15-15,3.75,3.76Zm18.78,3.76-15-15L73.54,153.94h0l-3.75-3.76,15-15,11.26,11.27,7.51-7.51L92.31,127.65l11.26-11.26,11.26,11.26,7.51-7.5-11.26-11.27,11.27-11.26,11.26,11.26,7.51-7.51L129.85,90.11l18.78-18.78,30,30Z"></path>
</svg>
