<?xml version="1.0" encoding="UTF-8"?>
<svg xmlns="http://www.w3.org/2000/svg" id="icons" viewBox="0 0 250 250">
  <defs>
    <style>.cls-1{fill:#253842;}</style>
  </defs>
  <title>icon-industries-waste-lightbulb-001</title>
  <path class="cls-1" d="M181.51,131.59V119.12a20.67,20.67,0,0,0-7.1-15.27,28.14,28.14,0,0,0,6.38-17.4,27.77,27.77,0,0,0-6.67-18.94A26.63,26.63,0,0,0,179.23,47,20.35,20.35,0,0,0,169,32.51c3.34-8.38,2.5-17.89-2.59-24.8s-13.22-9.37-21.76-6.59L88.34,19.41c-8.15,2.65-13.9,10.45-14.64,19.87a24.43,24.43,0,0,0,6.38,18.65,24.48,24.48,0,0,0-7.87,12.24c-2.06,7.59-.42,15.66,4.64,23.17-5.56,5-8.36,10.61-8.36,16.72v21.53A5.38,5.38,0,0,0,63.1,137v25.79a44.29,44.29,0,0,0,30.2,41.72l-2.72,5.44a5.39,5.39,0,0,0,1,6.21l2.64,2.64-3.65,7.3a5.38,5.38,0,0,0,1.29,6.47l18.59,16.14A5.4,5.4,0,0,0,114,250h22a5.38,5.38,0,0,0,3.53-1.32l18.59-16.14a5.38,5.38,0,0,0,1.29-6.47l-3.65-7.3,2.64-2.64a5.39,5.39,0,0,0,1-6.21l-2.72-5.44a44.29,44.29,0,0,0,30.2-41.72V137A5.38,5.38,0,0,0,181.51,131.59Zm-10.76,0H149.22V120.82a17.65,17.65,0,0,0-1.67-7.43l17.06-3.1c3.58,1.68,6.14,5.18,6.14,8.83Zm-34.5-16.15a8.59,8.59,0,0,1,2.21,5.38v10.77H111.54V122.8a3.44,3.44,0,0,1,2.82-3.38ZM84.43,40.12c.4-5.06,3.24-9.17,7.24-10.47L148,11.36c5.16-1.69,8.16.56,9.77,2.73,2.83,3.86,3.61,10.63.1,16.7L90.4,52.7A13.61,13.61,0,0,1,84.43,40.12ZM82.6,73a13.62,13.62,0,0,1,8.81-9.31l70-22.73c4,1.36,6.56,4,7.28,7.93.94,5.07-1.24,11-5,14L86.27,88C82.64,82.91,81.33,77.67,82.6,73Zm-3.35,37.06c0-3.73,2.55-7.32,7.66-11L165,73.73a17.18,17.18,0,0,1-1.9,25.89l-50.69,9.21a14.19,14.19,0,0,0-11.65,14v8.79H79.25Zm68.8,101.2-2.63,2.64a5.38,5.38,0,0,0-1,6.22l3.51,7L134,239.24H116l-13.92-12.09,3.51-7a5.38,5.38,0,0,0-1-6.22L102,211.26l2.25-4.5c1.23.1,2.47.18,3.73.18h34.14c1.26,0,2.5-.08,3.73-.18Zm28.08-48.5c0,18.43-15.28,33.42-34.06,33.42H107.93c-18.78,0-34.06-15-34.06-33.42V142.35H176.13Z"></path>
</svg>
