<?xml version="1.0" encoding="UTF-8"?>
<svg xmlns="http://www.w3.org/2000/svg" id="icons" viewBox="0 0 250 250">
  <defs>
    <style>.cls-1{fill:#253842;}</style>
  </defs>
  <title>icon-industries-logistics-rocket-001</title>
  <path class="cls-1" d="M213.78,220.59a33.57,33.57,0,0,0,1.26-9.08h-.18a34.42,34.42,0,0,0-34.37-34h-.13A34.87,34.87,0,0,0,175,178l-.43.07a32.31,32.31,0,0,0-5.31,1.37h-.08A35.7,35.7,0,0,0,145.84,162V135.41H135.42v31.24a5.21,5.21,0,0,0,5.21,5.21c7.25,0,15.71,5.73,19.36,12.54a33.9,33.9,0,0,0-13.59,27.11h10.41a23.52,23.52,0,0,1,13.64-21.28c.36-.17.71-.36,1.08-.51a23.41,23.41,0,0,1,3.51-1.09c.44-.11.89-.18,1.34-.26a23,23,0,0,1,3.74-.38l.37,0a24,24,0,0,1,24,24,22.84,22.84,0,0,1-11.6,20l5.21,9a33.74,33.74,0,0,0,11.2-10.63c5.93,4.77,10.27,12.59,9.37,18L228.91,250C230.55,240.21,223.72,227.45,213.78,220.59Z"></path>
  <path class="cls-1" d="M117.4,224.48a33.84,33.84,0,0,0-23.35-10.95l-.59,10.4A23.58,23.58,0,0,1,110,231.87,31,31,0,0,0,104.17,250h10.42a20.83,20.83,0,0,1,20.82-20.83h0V218.74h0A31,31,0,0,0,117.4,224.48Z"></path>
  <path class="cls-1" d="M73.35,187.26c2.86-8.19,15.71-15.4,25.62-15.4a5.2,5.2,0,0,0,5.2-5.21V135.41H93.76v26.44c-13.38,2-27.39,11.39-30.7,23.38-.13,0-.27,0-.4,0l-.4,0v0a31.61,31.61,0,0,0-31.43,31.39,30.25,30.25,0,0,0,1.73,10.15C25,232.64,20.85,240.73,20.85,250H31.26c0-7.06,3.5-12.7,10.4-16.78a5.33,5.33,0,0,0,1.91-7,20.83,20.83,0,0,1-2.32-9.57A20.78,20.78,0,0,1,66,196a20.58,20.58,0,0,1,13.75,9.27l8.8-5.58A31,31,0,0,0,73.35,187.26Z"></path>
  <path class="cls-1" d="M78.4,131.85a5.22,5.22,0,0,0,7.27,3l17-8.48,13,17.36a5.21,5.21,0,0,0,8.33,0l13-17.36,16.94,8.48a5.27,5.27,0,0,0,4.33.15,5.22,5.22,0,0,0,2.94-3.16l5.21-15.63a5.19,5.19,0,0,0-1.26-5.33l-19.3-19.3V52.08c0-26.33-14.91-52.08-26-52.08s-26,25.75-26,52.08V91.59l-19.31,19.3a5.23,5.23,0,0,0-1.26,5.33Zm24.25-34.43a5.2,5.2,0,0,0,1.52-3.68V52.08c0-22.43,11.39-39.35,15.62-41.54,4.24,2.21,15.63,19.14,15.63,41.54V93.74A5.17,5.17,0,0,0,137,97.42L155.5,116l-2.29,6.87-15.46-7.73a5.2,5.2,0,0,0-6.49,1.54L119.8,131.93l-11.46-15.27a5.21,5.21,0,0,0-6.5-1.54l-15.46,7.73L84.09,116Z"></path>
  <rect class="cls-1" x="114.59" y="57.29" width="10.42" height="10.42"></rect>
</svg>
