<?xml version="1.0" encoding="UTF-8"?>
<svg xmlns="http://www.w3.org/2000/svg" id="icons" viewBox="0 0 250 250">
  <defs>
    <style>.cls-1{fill:#253842;}</style>
  </defs>
  <title>icon-industries-robotics-factory-001</title>
  <path class="cls-1" d="M36.46,197.92a36.29,36.29,0,0,0,26-11v42.25H72.92V161.46a36.26,36.26,0,0,0-5.74-19.56l.35.1L83.15,84.7l-.32-.08a31.45,31.45,0,0,0,11.9-11.7h59.13a29.94,29.94,0,0,0,2.39,2.39v28.86h-2.16l-20.34,20.34L152.08,149l8.34-6.25L147.5,125.49l10.91-10.91h37.35l10.91,10.91-12.92,17.22,8.33,6.25,18.34-24.45-20.35-20.34h-2.15V75.31a31.2,31.2,0,1,0-44.06-44.06H85A31.23,31.23,0,0,0,37.83,66.43l-1.1-.37-20.84,62.5,3,1A36.49,36.49,0,0,0,0,161.46v67.71H10.42V186.92A36.29,36.29,0,0,0,36.46,197.92Zm151-93.75H166.67V81.51a30.71,30.71,0,0,0,20.83,0ZM177.08,31.25a20.84,20.84,0,1,1-20.83,20.83A20.86,20.86,0,0,1,177.08,31.25ZM147.66,62.5H98.49A31.94,31.94,0,0,0,99,57.29a31,31,0,0,0-4.23-15.62h52.93a30.55,30.55,0,0,0,0,20.83Zm-79.95-26A20.83,20.83,0,1,1,46.88,57.29,20.85,20.85,0,0,1,67.71,36.46Zm-23.81,41A31.14,31.14,0,0,0,67.71,88.54a31.54,31.54,0,0,0,3.66-.23L59.18,133a36,36,0,0,0-31.49-6.89Zm-7.44,57.94a26,26,0,1,1-26,26A26.07,26.07,0,0,1,36.46,135.42Z"></path>
  <path class="cls-1" d="M244.79,161.46a5.21,5.21,0,0,0-5.21-5.21H203.12a5.2,5.2,0,0,0-5.2,5.21v15.62H187.5V161.46a5.21,5.21,0,0,0-5.21-5.21H145.83a5.21,5.21,0,0,0-5.21,5.21v15.62H130.21V161.46a5.21,5.21,0,0,0-5.21-5.21H93.75a5.21,5.21,0,0,0-5.21,5.21v15.62H78.12V187.5H250V177.08h-5.21ZM99,177.08V166.67h20.83v10.41Zm52.08,0V166.67h26v10.41Zm57.29,0V166.67h26v10.41Z"></path>
</svg>
