<svg id="Layer_1" data-name="Layer 1" xmlns="http://www.w3.org/2000/svg" viewBox="0 0 380 380"><defs><style>.cls-1,.cls-14,.cls-19{fill:#0e6aed;}.cls-2{fill:#1691d0;isolation:isolate;opacity:0.25;}.cls-10,.cls-11,.cls-3,.cls-6{fill:#fff;}.cls-11,.cls-13,.cls-14,.cls-17,.cls-18,.cls-19,.cls-3,.cls-4,.cls-5,.cls-6,.cls-7{stroke:#3f5965;stroke-linejoin:round;}.cls-18,.cls-3{stroke-width:3.59px;}.cls-4,.cls-5{fill:#f3f3f3;}.cls-4{stroke-width:1.77px;}.cls-19,.cls-5,.cls-6,.cls-7{stroke-width:2.03px;}.cls-13,.cls-14,.cls-17,.cls-19,.cls-6,.cls-7,.cls-8{stroke-linecap:round;}.cls-13,.cls-16,.cls-17,.cls-18,.cls-7,.cls-8{fill:none;}.cls-8{stroke:#cad9df;stroke-miterlimit:10;stroke-width:2.39px;}.cls-9{fill:#28b1ba;}.cls-11{stroke-width:3.85px;}.cls-12{fill:#5ec6cc;fill-opacity:0.05;}.cls-13{stroke-width:2.23px;}.cls-14{stroke-width:3.21px;}.cls-15{fill:#cad9df;}.cls-17{stroke-width:1.54px;}</style></defs><path class="cls-1" d="M77.49,194.08A1,1,0,0,1,77,194l-6.5-3.7a1,1,0,0,1-.46-.62,1.8,1.8,0,0,1,.24-1.32l1.54-2.65a1.62,1.62,0,0,1,1.31-.91,1,1,0,0,1,.48.12l3.89,2.22a.73.73,0,0,0,.26-.29l12-20.66a1.62,1.62,0,0,1,1.31-.9,1,1,0,0,1,.48.12l1.53.88a1,1,0,0,1,.46.61,1.77,1.77,0,0,1-.24,1.33l-14.46,25A1.63,1.63,0,0,1,77.49,194.08Z"/><path class="cls-2" d="M82.31,188.31v4.54a2.29,2.29,0,0,1-.81,1.67h0l-13,7.54V185.17a1.08,1.08,0,0,1,.27-.64l13.59-7.85v1.12l2.07-3.57a2.69,2.69,0,0,0-.5-.39,2.33,2.33,0,0,0-2.38.08l-14.18,8.19a3.71,3.71,0,0,0-1.67,3.06v18a2.19,2.19,0,0,0,1,2,1.84,1.84,0,0,0,.94.25,2.21,2.21,0,0,0,1.09-.3l14.18-8.19h0a5,5,0,0,0,2.2-4.09v-9.36Z"/><path class="cls-1" d="M117.29,170.26a1,1,0,0,1-.47-.12l-6.5-3.71a1,1,0,0,1-.46-.61,1.77,1.77,0,0,1,.24-1.33l1.54-2.64a1.62,1.62,0,0,1,1.31-.91,1,1,0,0,1,.47.12l3.9,2.22a.83.83,0,0,0,.26-.3l12-20.65a1.62,1.62,0,0,1,1.31-.91,1,1,0,0,1,.47.13l1.54.87a1,1,0,0,1,.46.62,1.76,1.76,0,0,1-.24,1.32l-14.46,25A1.66,1.66,0,0,1,117.29,170.26Z"/><path class="cls-2" d="M122.11,164.49V169a2.28,2.28,0,0,1-.81,1.68h0l-13,7.54V161.35a1.08,1.08,0,0,1,.27-.64l13.58-7.85V154l2.07-3.57a2.05,2.05,0,0,0-.49-.39,2.35,2.35,0,0,0-2.39.08l-14.17,8.19a3.71,3.71,0,0,0-1.67,3.06v18a2.22,2.22,0,0,0,1,2,1.93,1.93,0,0,0,1,.25,2.21,2.21,0,0,0,1.09-.3l14.17-8.19h0A5,5,0,0,0,125,169v-9.35Z"/><path class="cls-1" d="M157.1,147.45a1,1,0,0,1-.47-.12l-6.5-3.71a1,1,0,0,1-.46-.61,1.77,1.77,0,0,1,.24-1.33l1.53-2.65a1.62,1.62,0,0,1,1.32-.9,1,1,0,0,1,.47.12l3.9,2.22a1.08,1.08,0,0,0,.26-.3l11.94-20.65a1.63,1.63,0,0,1,1.32-.91.85.85,0,0,1,.47.13l1.54.87a1.08,1.08,0,0,1,.46.61,1.83,1.83,0,0,1-.24,1.33l-14.46,25A1.64,1.64,0,0,1,157.1,147.45Z"/><path class="cls-2" d="M161.92,141.68v4.53a2.26,2.26,0,0,1-.81,1.67h0l-13.05,7.54V138.54a1.08,1.08,0,0,1,.27-.64l13.59-7.85v1.12L164,127.6a2.05,2.05,0,0,0-.49-.39,2.31,2.31,0,0,0-2.39.08L147,135.48a3.66,3.66,0,0,0-1.67,3.06v18a2.22,2.22,0,0,0,1,2,2,2,0,0,0,.95.25,2.17,2.17,0,0,0,1.08-.3l14.18-8.19h0a5,5,0,0,0,2.21-4.1v-9.36Z"/><path class="cls-1" d="M77.49,147.87a1,1,0,0,1-.48-.12L70.51,144a1.08,1.08,0,0,1-.46-.61,1.83,1.83,0,0,1,.24-1.33l1.54-2.65a1.62,1.62,0,0,1,1.31-.91,1,1,0,0,1,.48.13l3.89,2.22a.83.83,0,0,0,.26-.3l12-20.65A1.64,1.64,0,0,1,91,119a1,1,0,0,1,.48.12L93,120a1,1,0,0,1,.46.61,1.77,1.77,0,0,1-.24,1.33L78.8,147A1.63,1.63,0,0,1,77.49,147.87Z"/><path class="cls-2" d="M82.31,142.1v4.53a2.29,2.29,0,0,1-.81,1.67h0l-13,7.54V139a1,1,0,0,1,.27-.64l13.59-7.85v1.11l2-3.62a1.73,1.73,0,0,0-.5-.39,2.29,2.29,0,0,0-2.38.08L67.32,135.9a3.66,3.66,0,0,0-1.67,3.1v18a2.22,2.22,0,0,0,1,2,1.94,1.94,0,0,0,.94.25,2.21,2.21,0,0,0,1.09-.3l14.18-8.19h0a5,5,0,0,0,2.2-4.1V137.3Z"/><path class="cls-1" d="M117.29,124.05a1,1,0,0,1-.47-.13l-6.5-3.7a1,1,0,0,1-.46-.62,1.76,1.76,0,0,1,.24-1.32l1.54-2.65a1.62,1.62,0,0,1,1.31-.91,1,1,0,0,1,.47.13l3.9,2.22a1.48,1.48,0,0,0,.26-.3l12-20.65a1.62,1.62,0,0,1,1.31-.91,1,1,0,0,1,.47.12l1.54.88a1,1,0,0,1,.46.61,1.77,1.77,0,0,1-.24,1.33l-14.46,25A1.66,1.66,0,0,1,117.29,124.05Z"/><path class="cls-2" d="M122.11,118.28v4.53a2.26,2.26,0,0,1-.81,1.67h0l-13,7.54V115.14a1,1,0,0,1,.27-.64l13.58-7.85v1.11l2.07-3.57a2.63,2.63,0,0,0-.49-.39,2.35,2.35,0,0,0-2.39.08l-14.17,8.19a3.69,3.69,0,0,0-1.67,3.07v18a2.19,2.19,0,0,0,1,2,1.85,1.85,0,0,0,1,.26,2.22,2.22,0,0,0,1.09-.31l14.17-8.19h0a5,5,0,0,0,2.21-4.09v-9.36Z"/><path class="cls-1" d="M157.1,101.23a1,1,0,0,1-.47-.12l-6.5-3.7a1,1,0,0,1-.46-.62,1.76,1.76,0,0,1,.24-1.32l1.53-2.65a1.63,1.63,0,0,1,1.32-.91,1,1,0,0,1,.47.12l3.9,2.22a1.2,1.2,0,0,0,.26-.29L169.33,73.3a1.62,1.62,0,0,1,1.32-.9,1,1,0,0,1,.47.12l1.54.88a1,1,0,0,1,.46.61,1.8,1.8,0,0,1-.24,1.32l-14.46,25A1.62,1.62,0,0,1,157.1,101.23Z"/><path class="cls-2" d="M161.92,95.46V100a2.29,2.29,0,0,1-.81,1.67h0l-13.05,7.54V92.32a1.15,1.15,0,0,1,.27-.64l13.59-7.85V85L164,81.38a2.63,2.63,0,0,0-.49-.39,2.35,2.35,0,0,0-2.39.08L147,89.26a3.71,3.71,0,0,0-1.67,3.06v18a2.19,2.19,0,0,0,1,2,1.88,1.88,0,0,0,.95.25,2.17,2.17,0,0,0,1.08-.3l14.18-8.19h0A5,5,0,0,0,164.7,100V90.64Z"/><path class="cls-1" d="M77.49,101.65a1,1,0,0,1-.48-.12l-6.5-3.71a1,1,0,0,1-.46-.61,1.8,1.8,0,0,1,.24-1.32l1.54-2.65a1.62,1.62,0,0,1,1.31-.91,1,1,0,0,1,.48.12l3.89,2.22a.73.73,0,0,0,.26-.29l12-20.66a1.62,1.62,0,0,1,1.31-.9,1,1,0,0,1,.48.12l1.53.87a1,1,0,0,1,.46.62,1.76,1.76,0,0,1-.24,1.32l-14.46,25A1.62,1.62,0,0,1,77.49,101.65Z"/><path class="cls-2" d="M82.31,95.88v4.54a2.33,2.33,0,0,1-.81,1.67h0l-13,7.54V92.74a1.08,1.08,0,0,1,.27-.64l13.59-7.85v1.12l2.07-3.57a2.69,2.69,0,0,0-.5-.39,2.33,2.33,0,0,0-2.38.08L67.32,89.68a3.71,3.71,0,0,0-1.67,3.06v18a2.22,2.22,0,0,0,1,2,1.84,1.84,0,0,0,.94.25,2.21,2.21,0,0,0,1.09-.3l14.18-8.19h0a5,5,0,0,0,2.2-4.09V91.06Z"/><path class="cls-1" d="M40.68,215.54a1,1,0,0,1-.47-.13l-6.5-3.7a1,1,0,0,1-.46-.62,1.76,1.76,0,0,1,.24-1.32L35,207.12a1.63,1.63,0,0,1,1.32-.91,1,1,0,0,1,.47.13l3.9,2.22a1.48,1.48,0,0,0,.26-.3l11.94-20.65a1.63,1.63,0,0,1,1.32-.91,1,1,0,0,1,.47.12l1.54.88a1,1,0,0,1,.46.61,1.83,1.83,0,0,1-.24,1.33L42,214.63A1.63,1.63,0,0,1,40.68,215.54Z"/><path class="cls-2" d="M44.9,210.13v4.44a2.23,2.23,0,0,1-.78,1.63h0l-12.53,7.38V207.06a1.14,1.14,0,0,1,.26-.63L45,198.75v1.09l2-3.5a3.48,3.48,0,0,0-.48-.38,2.24,2.24,0,0,0-2.3.08l-13.66,8a3.66,3.66,0,0,0-1.61,3v17.62a2.15,2.15,0,0,0,1,2,1.87,1.87,0,0,0,.92.25,2.1,2.1,0,0,0,1-.3l13.67-8h0a4.93,4.93,0,0,0,2.13-4v-9.16Z"/><path class="cls-1" d="M40.68,169.32a1,1,0,0,1-.47-.12l-6.5-3.71a1,1,0,0,1-.46-.61,1.77,1.77,0,0,1,.24-1.33L35,160.9a1.62,1.62,0,0,1,1.32-.9,1,1,0,0,1,.47.12l3.9,2.22A1.12,1.12,0,0,0,41,162l11.94-20.65a1.63,1.63,0,0,1,1.32-.91,1,1,0,0,1,.47.13l1.54.87a1,1,0,0,1,.46.62,1.8,1.8,0,0,1-.24,1.32L42,168.41A1.63,1.63,0,0,1,40.68,169.32Z"/><path class="cls-2" d="M45.5,163.55v4.53a2.31,2.31,0,0,1-.81,1.68h0l-13,7.53V160.41a1.08,1.08,0,0,1,.27-.64l13.59-7.85V153l2.07-3.57a2.23,2.23,0,0,0-2.88-.31l-14.17,8.19a3.7,3.7,0,0,0-1.67,3.06v18a2.22,2.22,0,0,0,1,2,1.88,1.88,0,0,0,1,.25,2.17,2.17,0,0,0,1.08-.3l14.18-8.19h0a5,5,0,0,0,2.21-4.1v-9.35Z"/><path class="cls-1" d="M40.68,123.11a1,1,0,0,1-.47-.13l-6.5-3.7a1,1,0,0,1-.46-.62,1.76,1.76,0,0,1,.24-1.32L35,114.69a1.63,1.63,0,0,1,1.32-.91.85.85,0,0,1,.47.13l3.9,2.22a1.48,1.48,0,0,0,.26-.3l12-20.65a1.63,1.63,0,0,1,1.32-.91,1,1,0,0,1,.47.12l1.54.88a1,1,0,0,1,.46.61,1.83,1.83,0,0,1-.24,1.33L42,122.2A1.63,1.63,0,0,1,40.68,123.11Z"/><path class="cls-2" d="M45.5,117.34v4.53a2.26,2.26,0,0,1-.81,1.67h0l-13,7.54V114.2a1.08,1.08,0,0,1,.27-.64l13.59-7.85v1.11l2.07-3.57a2.63,2.63,0,0,0-.49-.39,2.35,2.35,0,0,0-2.39.08l-14.17,8.19a3.69,3.69,0,0,0-1.67,3.07v18a2.19,2.19,0,0,0,1,2,1.88,1.88,0,0,0,1,.25,2.17,2.17,0,0,0,1.08-.3L46.09,126h0a5,5,0,0,0,2.21-4.09v-9.36Z"/><path class="cls-1" d="M117.29,77.83a1,1,0,0,1-.47-.12L110.32,74a1,1,0,0,1-.46-.61,1.77,1.77,0,0,1,.24-1.33l1.54-2.65a1.61,1.61,0,0,1,1.31-.9,1,1,0,0,1,.47.12l3.9,2.22a1.08,1.08,0,0,0,.26-.3l12-20.65a1.62,1.62,0,0,1,1.31-.91,1,1,0,0,1,.47.13l1.54.87a1,1,0,0,1,.46.62,1.76,1.76,0,0,1-.24,1.32l-14.46,25A1.66,1.66,0,0,1,117.29,77.83Z"/><path class="cls-2" d="M122.11,72.06v4.53a2.31,2.31,0,0,1-.81,1.68h0l-13,7.54V68.92a1.08,1.08,0,0,1,.27-.64l13.58-7.85v1.12l2-3.55a2.05,2.05,0,0,0-.49-.39,2.35,2.35,0,0,0-2.39.08l-14.17,8.19a3.7,3.7,0,0,0-1.67,3.06v18a2.22,2.22,0,0,0,1,2,1.93,1.93,0,0,0,1,.25,2.21,2.21,0,0,0,1.09-.3l14.17-8.19h0a5,5,0,0,0,2.21-4.1V67.24Z"/><path class="cls-1" d="M157.1,55a.85.85,0,0,1-.47-.13l-6.5-3.7a1,1,0,0,1-.46-.61,1.77,1.77,0,0,1,.24-1.33l1.53-2.65a1.63,1.63,0,0,1,1.32-.91,1,1,0,0,1,.47.13l3.9,2.22a1.08,1.08,0,0,0,.26-.3l11.94-20.65a1.63,1.63,0,0,1,1.32-.91,1,1,0,0,1,.47.12l1.54.88a1,1,0,0,1,.46.61,1.83,1.83,0,0,1-.24,1.33l-14.46,25A1.64,1.64,0,0,1,157.1,55Z"/><path class="cls-2" d="M161.92,49.25v4.53a2.26,2.26,0,0,1-.81,1.67h0L148.06,63V46.11a1.08,1.08,0,0,1,.27-.64l13.59-7.85v1.11L164,35.17a2.09,2.09,0,0,0-.49-.4,2.35,2.35,0,0,0-2.39.08L147,43.05a3.66,3.66,0,0,0-1.67,3.06v18a2.22,2.22,0,0,0,1,2,2,2,0,0,0,.95.25,2.17,2.17,0,0,0,1.08-.3l14.18-8.2h0a5,5,0,0,0,2.21-4.09V44.42Z"/><path class="cls-3" d="M283.48,79.92V70.11l-8.06,4.66V65.21l-7.7,4.45V60.43L260,64.91v-9.3L158.42,114.24a1.34,1.34,0,0,0-.69,1.15c-.22,12.32-3,169.61,0,167.85l6.76-3.9c.22,5.73.54,9,1,8.72l6.71-3.87c.22,5.69.54,8.91,1,8.65l7.07-4.08c.22,5.9.54,9.25,1,9l7.84-4.52c.22,6,.54,9.49,1,9.22l102.22-59V74.81Z"/><path class="cls-4" d="M260,55.61,158.42,114.24a1.34,1.34,0,0,0-.69,1.15c-.22,12.32-3,169.61,0,167.85l102.22-59Z"/><path class="cls-5" d="M267.72,60.43,166.17,119.06a1.33,1.33,0,0,0-.68,1.15c-.23,12.32-3,169.6,0,167.85l102.22-59Z"/><path class="cls-5" d="M275.42,65.21,173.87,123.84a1.33,1.33,0,0,0-.68,1.15c-.23,12.32-3,169.6,0,167.85l102.22-59Z"/><path class="cls-5" d="M283.48,70.11,181.94,128.74a1.34,1.34,0,0,0-.69,1.15c-.22,12.32-3,169.61,0,167.85l102.21-59Z"/><path class="cls-6" d="M262.59,92l-71.8,41.46a1.34,1.34,0,0,0-.69,1.15c-.22,12.32-3,169.61,0,167.85l102.22-59V74.81l-15.81,9.13"/><line class="cls-7" x1="270.37" y1="87.49" x2="265.74" y2="90.17"/><path class="cls-8" d="M216,159.26l-13.22,7.64c-.46.26-.83,0-.83-.63V150.88a2,2,0,0,1,.83-1.59L216,141.66c.71-.41,1.29,0,1.29,1V156.8A3.06,3.06,0,0,1,216,159.26Z"/><path class="cls-8" d="M216,194.49l-13.22,7.64c-.46.26-.83,0-.83-.63V186.1a2,2,0,0,1,.83-1.58L216,176.89c.71-.42,1.29,0,1.29,1V192A3.1,3.1,0,0,1,216,194.49Z"/><path class="cls-8" d="M216,229.72l-13.22,7.63c-.46.27-.83,0-.83-.62v-15.4a2,2,0,0,1,.83-1.58L216,212.11c.71-.41,1.29,0,1.29,1v14.16A3.11,3.11,0,0,1,216,229.72Z"/><path class="cls-8" d="M216,264.94l-13.22,7.64c-.46.26-.83,0-.83-.63V256.56a2,2,0,0,1,.83-1.59L216,247.34c.71-.41,1.29,0,1.29,1v14.17A3.06,3.06,0,0,1,216,264.94Z"/><line class="cls-8" x1="232.22" y1="135.56" x2="279.1" y2="108.49"/><line class="cls-8" x1="232.22" y1="143.45" x2="246.67" y2="135.11"/><line class="cls-8" x1="232.22" y1="170.79" x2="279.1" y2="143.72"/><line class="cls-8" x1="232.22" y1="178.68" x2="246.67" y2="170.34"/><line class="cls-8" x1="232.22" y1="206.02" x2="279.1" y2="178.95"/><line class="cls-8" x1="232.22" y1="213.91" x2="246.67" y2="205.56"/><line class="cls-8" x1="232.22" y1="241.24" x2="279.1" y2="214.17"/><line class="cls-8" x1="232.22" y1="249.13" x2="246.67" y2="240.79"/><path class="cls-1" d="M211.82,152.38l-3.4-1.94c-.24-.14-.61.08-.84.48l-1.31,2.26c-.24.4-.24.83,0,1l5.55,3.16c.23.13.61-.08.84-.48l14-24.23c.24-.4.24-.83,0-1l-1.31-.75c-.23-.13-.6.09-.84.48l-11.89,20.52C212.43,152.29,212.05,152.51,211.82,152.38Z"/><path class="cls-1" d="M211.82,187.56l-3.4-1.94c-.24-.13-.61.09-.84.49l-1.31,2.26c-.24.4-.24.83,0,1l5.55,3.17c.23.13.61-.09.84-.49l14-24.22c.24-.4.24-.83,0-1l-1.31-.75c-.23-.13-.6.08-.84.48l-11.89,20.52C212.43,187.48,212.05,187.7,211.82,187.56Z"/><path class="cls-1" d="M211.82,222.75l-3.4-1.94c-.24-.13-.61.08-.84.48l-1.31,2.27c-.24.4-.24.83,0,1l5.55,3.16c.23.14.61-.08.84-.48l14-24.23c.24-.4.24-.83,0-1l-1.31-.75c-.23-.13-.6.09-.84.49l-11.89,20.52C212.43,222.67,212.05,222.88,211.82,222.75Z"/><path class="cls-9" d="M212,263.42a.8.8,0,0,1-.4-.11l-5.6-3.16a.84.84,0,0,1-.39-.53,1.5,1.5,0,0,1,.21-1.13l1.31-2.27a1.42,1.42,0,0,1,1.12-.77,1,1,0,0,1,.41.1l3.33,1.9a.88.88,0,0,0,.22-.25l11.89-20.52a1.38,1.38,0,0,1,1.13-.78.8.8,0,0,1,.4.11l1.32.75a.79.79,0,0,1,.39.52,1.58,1.58,0,0,1-.21,1.14l-14,24.22A1.38,1.38,0,0,1,212,263.42Z"/><path class="cls-10" d="M225.24,236.41h.15l1.31.75c.24.13.24.56,0,1l-14,24.23a.92.92,0,0,1-.69.52h-.15l-5.55-3.17c-.24-.13-.24-.56,0-1l1.31-2.26a.91.91,0,0,1,.68-.52.22.22,0,0,1,.16,0l3.4,1.94a.38.38,0,0,0,.15,0,1,1,0,0,0,.69-.53l11.89-20.52a.92.92,0,0,1,.69-.52m0-1a1.92,1.92,0,0,0-1.57,1l-11.8,20.37-3-1.68a1.38,1.38,0,0,0-.66-.17,1.9,1.9,0,0,0-1.56,1l-1.31,2.26a2,2,0,0,0-.26,1.52,1.4,1.4,0,0,0,.63.84l5.56,3.16a1.25,1.25,0,0,0,.65.18,1.93,1.93,0,0,0,1.57-1l14-24.23a2.07,2.07,0,0,0,.26-1.52,1.35,1.35,0,0,0-.63-.83l-1.31-.75a1.38,1.38,0,0,0-.66-.17Z"/><path class="cls-11" d="M88.61,312.36l70.79,40.87a4.42,4.42,0,0,0,4.42,0l70.78-40.87a4.43,4.43,0,0,0,2.22-3.83V226.86a4.42,4.42,0,0,0-2.3-3.88L162,183.08a4.42,4.42,0,0,0-4.34,0L88.61,223a4.42,4.42,0,0,0-2.21,3.83v81.74A4.4,4.4,0,0,0,88.61,312.36Z"/><path class="cls-12" d="M236.82,224.93v83.6a4.43,4.43,0,0,1-2.22,3.83l-74.32,41.15V266.89Z"/><line class="cls-13" x1="214.43" y1="236.55" x2="218.06" y2="234.55"/><polyline class="cls-13" points="104.26 234.55 159.77 266.6 211.57 238.12"/><line class="cls-13" x1="160.28" y1="321.85" x2="160.28" y2="266.6"/><polyline class="cls-14" points="131.47 199.48 204.06 242.1 204.06 262.85 191.09 270.53 191.09 249.78 118.49 207.16"/><path class="cls-15" d="M340,195.71c-4.06,2.53-17.73,10.35-31.61,3.17a2.47,2.47,0,0,0-3.28.91c-13.92,23.92-27.82,32.53-32.25,34.81a2.41,2.41,0,0,0-1.29,2.38c5.55,55.15,40.6,63.88,44.72,61.82,0,0,31.52-34.18,34.87-96.89a.85.85,0,0,0-.37-.73l-8.43-5.45A2.21,2.21,0,0,0,340,195.71Z"/><path class="cls-16" d="M316.26,298.8s31.68-34.35,34.89-97.36c0-.34-16.3,12.5-32.89,3.85a2.42,2.42,0,0,0-3.2.94c-16.86,29-33.72,35.19-33.7,35.5C284.57,301,316.26,298.8,316.26,298.8Z"/><path class="cls-10" d="M316.26,298.8s31.68-34.35,34.89-97.36c0-.34-16.29,12.49-32.88,3.85a2.43,2.43,0,0,0-3.21,1c-13.4,23-26.78,31.86-31.71,34.53a3.55,3.55,0,0,0-1.85,3.35C285.43,301,316.26,298.8,316.26,298.8Z"/><path class="cls-7" d="M351.15,201.44c0-.34-16.29,12.49-32.88,3.85a2.43,2.43,0,0,0-3.21,1c-13.4,23-26.78,31.86-31.71,34.53a3.55,3.55,0,0,0-1.85,3.35c3.93,56.86,34.76,54.68,34.76,54.68"/><path class="cls-17" d="M316.26,298.8s30.23-36.38,34.81-96.24a1.9,1.9,0,0,0-.86-1.73l-8.11-5.25a1.75,1.75,0,0,0-1.89,0c-3.75,2.35-17.69,10.63-31.85,3.31a2.47,2.47,0,0,0-3.28.91C290,225.65,275,233.62,272,235a.89.89,0,0,0-.51.89C276.65,292,312.11,300.88,316.26,298.8Z"/><path class="cls-18" d="M316.26,298.8s30.23-36.38,34.81-96.24a1.9,1.9,0,0,0-.86-1.73l-8.11-5.25a1.75,1.75,0,0,0-1.89,0c-3.75,2.35-17.69,10.63-31.85,3.31a2.47,2.47,0,0,0-3.28.91C290,225.65,275,233.62,272,235a.89.89,0,0,0-.51.89C276.65,292,312.11,300.88,316.26,298.8Z"/><path class="cls-19" d="M317.66,225.25l3.76,11.11c.18.56.72.69,1.33.34l12.16-7c1.36-.78,1.92.88.83,2.43L325.89,246a2.57,2.57,0,0,0-.51,2.09l3.76,11.11c.42,1.23-1.05,3.32-2.15,3l-9.84-2.52a1.81,1.81,0,0,0-1.65,1l-9.84,13.89c-1.1,1.55-2.57,1.17-2.16-.55l3.76-15.45c.19-.77,0-1.38-.5-1.5l-9.85-2.53c-1.09-.28-.53-2.59.82-3.38l12.17-7a3.08,3.08,0,0,0,1.33-1.88L315,226.79C315.41,225.07,317.24,224,317.66,225.25Z"/><path class="cls-1" d="M148.87,315.37a1.49,1.49,0,0,1-1.2-.58,2,2,0,0,1-.28-1.8l3-12.29v-.12l-7.57-1.94a1.52,1.52,0,0,1-1.15-1.37,3.33,3.33,0,0,1,1.56-3l9.68-5.58a1.61,1.61,0,0,0,.61-.9l3-12.29a2.93,2.93,0,0,1,2.49-2.37,1.51,1.51,0,0,1,1.44,1.07l2.87,8.49,9.49-5.49a2,2,0,0,1,1-.28,1.46,1.46,0,0,1,1.34.82,2.74,2.74,0,0,1-.42,2.75l-7.83,11.05a1.33,1.33,0,0,0-.28.82l3,8.83a2.82,2.82,0,0,1-.54,2.52,2.45,2.45,0,0,1-1.9,1.16,1.83,1.83,0,0,1-.4-.05l-7.74-2a1.15,1.15,0,0,0-.39.37l-7.83,11A2.44,2.44,0,0,1,148.87,315.37Z"/><path class="cls-10" d="M159,274a.56.56,0,0,1,.54.43l3,8.83a.59.59,0,0,0,.56.43,1,1,0,0,0,.5-.16l9.68-5.58a1,1,0,0,1,.5-.16c.69,0,.87,1.08.15,2.09L166.1,291a2,2,0,0,0-.4,1.66l3,8.83a2.17,2.17,0,0,1-1.55,2.44H167l-7.83-2H159a1.62,1.62,0,0,0-1.16.77l-7.83,11a1.54,1.54,0,0,1-1.14.77c-.46,0-.76-.43-.57-1.21l3-12.29c.15-.61,0-1.09-.4-1.19l-7.83-2c-.87-.22-.42-2.06.66-2.68l9.67-5.59a2.51,2.51,0,0,0,1.06-1.49l3-12.29c.23-1,1-1.65,1.57-1.65m0-1.88h0a3.83,3.83,0,0,0-3.4,3.09l-3,12.28a.7.7,0,0,1-.19.32l-9.66,5.58a4.19,4.19,0,0,0-2,4,2.5,2.5,0,0,0,1.84,2.15l6.68,1.71-2.8,11.5a3,3,0,0,0,.46,2.61,2.41,2.41,0,0,0,1.94.94,3.38,3.38,0,0,0,2.68-1.57l7.73-10.91,7.23,1.85a2.72,2.72,0,0,0,.63.08,3.38,3.38,0,0,0,2.67-1.55,3.77,3.77,0,0,0,.66-3.38l-2.92-8.63a.56.56,0,0,1,.09-.17l7.83-11a3.65,3.65,0,0,0,.49-3.73,2.41,2.41,0,0,0-2.18-1.33,2.71,2.71,0,0,0-1.44.41l-8.5,4.9-2.5-7.39a2.44,2.44,0,0,0-2.33-1.71Z"/><path class="cls-1" d="M169.93,271.88a1.31,1.31,0,0,1-1-.5,1.67,1.67,0,0,1-.24-1.45l1.88-7.73L166,261a1.35,1.35,0,0,1-1-1.16,2.48,2.48,0,0,1,1.17-2.31l6.28-3.63a.71.71,0,0,0,.24-.37l1.94-8a2.25,2.25,0,0,1,1.93-1.79,1.28,1.28,0,0,1,1.25.92l1.73,5.12,5.81-3.35a1.52,1.52,0,0,1,.8-.23,1.27,1.27,0,0,1,1.16.71,2.06,2.06,0,0,1-.3,2.13l-5.07,7.16a.58.58,0,0,0-.13.3l1.93,5.66a2.22,2.22,0,0,1-.4,1.94,1.93,1.93,0,0,1-1.5.89,1.27,1.27,0,0,1-.34-.05l-4.87-1.24v.06L171.44,271A1.94,1.94,0,0,1,169.93,271.88Z"/><path class="cls-10" d="M176.5,244.73a.38.38,0,0,1,.36.28l1.94,5.73a.36.36,0,0,0,.36.27.62.62,0,0,0,.32-.09l6.28-3.63a.64.64,0,0,1,.33-.1c.45,0,.56.7.09,1.36l-5.07,7.16a1.28,1.28,0,0,0-.26,1.08l1.93,5.73a1.4,1.4,0,0,1-1,1.58h-.11l-5.07-1.3h-.1a1,1,0,0,0-.75.5l-5.08,7.16a1,1,0,0,1-.74.51c-.3,0-.49-.28-.37-.79l1.94-8c.1-.4,0-.71-.26-.77l-5.08-1.3c-.56-.15-.27-1.34.43-1.75l6.27-3.62a1.62,1.62,0,0,0,.69-1l1.94-8c.15-.62.65-1.07,1-1.07m0-1.88h0a3.15,3.15,0,0,0-2.84,2.51l-1.91,7.85-6.11,3.52A3.46,3.46,0,0,0,164,260a2.29,2.29,0,0,0,1.69,1.94l3.7.95-1.66,6.82a2.58,2.58,0,0,0,.42,2.26,2.26,2.26,0,0,0,1.78.86,2.84,2.84,0,0,0,2.28-1.3l4.75-6.7,4.25,1.09a2.78,2.78,0,0,0,.57.07,2.86,2.86,0,0,0,2.27-1.28,3.13,3.13,0,0,0,.52-2.79l-1.79-5.3,4.94-7a3,3,0,0,0,.37-3.1,2.24,2.24,0,0,0-2-1.22,2.45,2.45,0,0,0-1.27.35L180,248.44l-1.37-4a2.25,2.25,0,0,0-2.14-1.56Z"/></svg>