<svg id="Layer_1" data-name="Layer 1" xmlns="http://www.w3.org/2000/svg" xmlns:xlink="http://www.w3.org/1999/xlink" viewBox="0 0 380 380"><defs><style>.cls-1,.cls-175,.cls-176,.cls-178,.cls-187,.cls-204,.cls-205,.cls-206,.cls-207,.cls-208,.cls-213,.cls-214,.cls-216,.cls-218,.cls-222,.cls-224,.cls-231{fill:none;}.cls-2{opacity:0.9;}.cls-3{opacity:0.51;}.cls-4{fill:url(#linear-gradient);}.cls-5{fill:url(#linear-gradient-2);}.cls-6{fill:url(#linear-gradient-3);}.cls-7{fill:url(#linear-gradient-4);}.cls-8{fill:url(#linear-gradient-5);}.cls-9{fill:url(#linear-gradient-6);}.cls-10{fill:url(#linear-gradient-7);}.cls-11{fill:url(#linear-gradient-8);}.cls-12{fill:url(#linear-gradient-9);}.cls-13{fill:url(#linear-gradient-10);}.cls-14{fill:url(#linear-gradient-11);}.cls-15{fill:url(#linear-gradient-12);}.cls-16{fill:url(#linear-gradient-13);}.cls-17{fill:url(#linear-gradient-14);}.cls-18{fill:url(#linear-gradient-15);}.cls-19{fill:url(#linear-gradient-16);}.cls-20{fill:url(#linear-gradient-17);}.cls-21{fill:url(#linear-gradient-18);}.cls-22{fill:url(#linear-gradient-19);}.cls-23{fill:url(#linear-gradient-20);}.cls-24{fill:url(#linear-gradient-21);}.cls-25{fill:url(#linear-gradient-22);}.cls-26{fill:url(#linear-gradient-23);}.cls-27{fill:url(#linear-gradient-24);}.cls-28{fill:url(#linear-gradient-25);}.cls-29{fill:url(#linear-gradient-26);}.cls-30{fill:url(#linear-gradient-27);}.cls-31{fill:url(#linear-gradient-28);}.cls-32{fill:url(#linear-gradient-29);}.cls-33{fill:url(#linear-gradient-30);}.cls-34{fill:url(#linear-gradient-31);}.cls-35{fill:url(#linear-gradient-32);}.cls-36{fill:url(#linear-gradient-33);}.cls-37{fill:url(#linear-gradient-34);}.cls-38{fill:url(#linear-gradient-35);}.cls-39{fill:url(#linear-gradient-36);}.cls-40{fill:url(#linear-gradient-37);}.cls-41{fill:url(#linear-gradient-38);}.cls-42{fill:url(#linear-gradient-39);}.cls-43{fill:url(#linear-gradient-40);}.cls-44{fill:url(#linear-gradient-41);}.cls-45{fill:url(#linear-gradient-42);}.cls-46{fill:url(#linear-gradient-43);}.cls-47{fill:url(#linear-gradient-44);}.cls-48{fill:url(#linear-gradient-45);}.cls-49{fill:url(#linear-gradient-46);}.cls-50{fill:url(#linear-gradient-47);}.cls-51{fill:url(#linear-gradient-48);}.cls-52{fill:url(#linear-gradient-49);}.cls-53{fill:url(#linear-gradient-50);}.cls-54{fill:url(#linear-gradient-51);}.cls-55{fill:url(#linear-gradient-52);}.cls-56{fill:url(#linear-gradient-53);}.cls-57{fill:url(#linear-gradient-54);}.cls-58{fill:url(#linear-gradient-55);}.cls-59{fill:url(#linear-gradient-56);}.cls-60{fill:url(#linear-gradient-57);}.cls-61{fill:url(#linear-gradient-58);}.cls-62{fill:url(#linear-gradient-59);}.cls-63{fill:url(#linear-gradient-60);}.cls-64{fill:url(#linear-gradient-61);}.cls-65{fill:url(#linear-gradient-62);}.cls-66{fill:url(#linear-gradient-63);}.cls-67{fill:url(#linear-gradient-64);}.cls-68{fill:url(#linear-gradient-65);}.cls-69{fill:url(#linear-gradient-66);}.cls-70{fill:url(#linear-gradient-67);}.cls-71{fill:url(#linear-gradient-68);}.cls-72{fill:url(#linear-gradient-69);}.cls-73{fill:url(#linear-gradient-70);}.cls-74{fill:url(#linear-gradient-71);}.cls-75{fill:url(#linear-gradient-72);}.cls-76{fill:url(#linear-gradient-73);}.cls-77{fill:url(#linear-gradient-74);}.cls-78{fill:url(#linear-gradient-75);}.cls-79{fill:url(#linear-gradient-76);}.cls-80{fill:url(#linear-gradient-77);}.cls-81{fill:url(#linear-gradient-78);}.cls-82{fill:url(#linear-gradient-79);}.cls-83{fill:url(#linear-gradient-80);}.cls-84{fill:url(#linear-gradient-81);}.cls-85{fill:url(#linear-gradient-82);}.cls-86{fill:url(#linear-gradient-83);}.cls-87{fill:url(#linear-gradient-84);}.cls-88{fill:url(#linear-gradient-85);}.cls-89{fill:url(#linear-gradient-86);}.cls-90{fill:url(#linear-gradient-87);}.cls-91{fill:url(#linear-gradient-88);}.cls-92{fill:url(#linear-gradient-89);}.cls-93{fill:url(#linear-gradient-90);}.cls-94{fill:url(#linear-gradient-91);}.cls-95{fill:url(#linear-gradient-92);}.cls-96{fill:url(#linear-gradient-93);}.cls-97{fill:url(#linear-gradient-94);}.cls-98{fill:url(#linear-gradient-95);}.cls-99{fill:url(#linear-gradient-96);}.cls-100{fill:url(#linear-gradient-97);}.cls-101{fill:url(#linear-gradient-98);}.cls-102{fill:url(#linear-gradient-99);}.cls-103{fill:url(#linear-gradient-100);}.cls-104{fill:url(#linear-gradient-101);}.cls-105{fill:url(#linear-gradient-102);}.cls-106{fill:url(#linear-gradient-103);}.cls-107{fill:url(#linear-gradient-104);}.cls-108{fill:url(#linear-gradient-105);}.cls-109{fill:url(#linear-gradient-106);}.cls-110{fill:url(#linear-gradient-107);}.cls-111{fill:url(#linear-gradient-108);}.cls-112{fill:url(#linear-gradient-109);}.cls-113{fill:url(#linear-gradient-110);}.cls-114{fill:url(#linear-gradient-111);}.cls-115{fill:url(#linear-gradient-112);}.cls-116{fill:url(#linear-gradient-113);}.cls-117{fill:url(#linear-gradient-114);}.cls-118{fill:url(#linear-gradient-115);}.cls-119{fill:url(#linear-gradient-116);}.cls-120{fill:url(#linear-gradient-117);}.cls-121{fill:url(#linear-gradient-118);}.cls-122{fill:url(#linear-gradient-119);}.cls-123{fill:url(#linear-gradient-120);}.cls-124{fill:url(#linear-gradient-121);}.cls-125{fill:url(#linear-gradient-122);}.cls-126{fill:url(#linear-gradient-123);}.cls-127{fill:url(#linear-gradient-124);}.cls-128{fill:url(#linear-gradient-125);}.cls-129{fill:url(#linear-gradient-126);}.cls-130{fill:url(#linear-gradient-127);}.cls-131{fill:url(#linear-gradient-128);}.cls-132{fill:url(#linear-gradient-129);}.cls-133{fill:url(#linear-gradient-130);}.cls-134{fill:url(#linear-gradient-131);}.cls-135{fill:url(#linear-gradient-132);}.cls-136{fill:url(#linear-gradient-133);}.cls-137{fill:url(#linear-gradient-134);}.cls-138{fill:url(#linear-gradient-135);}.cls-139{fill:url(#linear-gradient-136);}.cls-140{fill:url(#linear-gradient-137);}.cls-141{fill:url(#linear-gradient-138);}.cls-142{fill:url(#linear-gradient-139);}.cls-143{fill:url(#linear-gradient-140);}.cls-144{fill:url(#linear-gradient-141);}.cls-145{fill:url(#linear-gradient-142);}.cls-146{fill:url(#linear-gradient-143);}.cls-147{fill:url(#linear-gradient-144);}.cls-148{fill:url(#linear-gradient-145);}.cls-149{fill:url(#linear-gradient-146);}.cls-150{fill:url(#linear-gradient-147);}.cls-151{fill:url(#linear-gradient-148);}.cls-152{fill:url(#linear-gradient-149);}.cls-153{fill:url(#linear-gradient-150);}.cls-154{fill:url(#linear-gradient-151);}.cls-155{fill:url(#linear-gradient-152);}.cls-156{fill:url(#linear-gradient-153);}.cls-157{fill:url(#linear-gradient-154);}.cls-158{fill:url(#linear-gradient-155);}.cls-159{fill:url(#linear-gradient-156);}.cls-160{fill:url(#linear-gradient-157);}.cls-161{fill:url(#linear-gradient-158);}.cls-162{fill:url(#linear-gradient-159);}.cls-163{fill:url(#linear-gradient-160);}.cls-164{fill:url(#linear-gradient-161);}.cls-165{fill:url(#linear-gradient-162);}.cls-166{fill:url(#linear-gradient-163);}.cls-167{fill:url(#linear-gradient-164);}.cls-168{fill:url(#linear-gradient-165);}.cls-169{fill:url(#linear-gradient-166);}.cls-170{fill:url(#linear-gradient-167);}.cls-171{fill:url(#linear-gradient-168);}.cls-172{fill:url(#linear-gradient-169);}.cls-173{fill:url(#linear-gradient-170);}.cls-174{fill:url(#linear-gradient-171);}.cls-175,.cls-176,.cls-178,.cls-187{stroke:#1691d0;}.cls-175,.cls-176,.cls-204,.cls-205,.cls-206,.cls-208,.cls-209,.cls-213,.cls-214,.cls-216,.cls-217,.cls-218,.cls-222,.cls-223,.cls-224,.cls-225,.cls-226,.cls-227,.cls-228,.cls-229,.cls-230{stroke-linejoin:round;}.cls-175,.cls-176,.cls-178,.cls-224{stroke-width:0.96px;}.cls-175,.cls-176,.cls-202,.cls-203{isolation:isolate;}.cls-175,.cls-176{opacity:0.74;}.cls-176,.cls-204,.cls-205,.cls-206,.cls-207,.cls-216,.cls-222,.cls-225,.cls-226,.cls-227,.cls-228,.cls-229,.cls-230,.cls-231{stroke-linecap:round;}.cls-177{fill:url(#radial-gradient);}.cls-178,.cls-187,.cls-207,.cls-212{stroke-miterlimit:10;}.cls-179{fill:url(#radial-gradient-2);}.cls-180{fill:url(#radial-gradient-3);}.cls-181{fill:url(#radial-gradient-4);}.cls-182{fill:url(#radial-gradient-5);}.cls-183{fill:url(#radial-gradient-6);}.cls-184{fill:url(#radial-gradient-7);}.cls-185{opacity:0.53;}.cls-186{fill:url(#radial-gradient-8);}.cls-187{stroke-width:0.72px;}.cls-188{fill:url(#radial-gradient-9);}.cls-189{fill:url(#radial-gradient-10);}.cls-190{fill:url(#radial-gradient-11);}.cls-191{fill:url(#radial-gradient-12);}.cls-192{fill:url(#radial-gradient-13);}.cls-193{fill:url(#radial-gradient-14);}.cls-194{fill:url(#radial-gradient-15);}.cls-195{fill:url(#radial-gradient-16);}.cls-196{fill:url(#radial-gradient-17);}.cls-197{fill:url(#radial-gradient-18);}.cls-198{fill:url(#radial-gradient-19);}.cls-199{fill:url(#radial-gradient-20);}.cls-200{fill:url(#radial-gradient-21);}.cls-201{fill:url(#radial-gradient-22);}.cls-202,.cls-203,.cls-221,.cls-230{fill:#0e6aed;}.cls-202{opacity:0.1;}.cls-203{opacity:0.09;}.cls-204,.cls-205,.cls-206,.cls-207,.cls-208,.cls-209,.cls-212,.cls-213,.cls-214,.cls-216,.cls-217,.cls-218,.cls-222,.cls-224,.cls-225,.cls-226,.cls-227,.cls-228,.cls-229,.cls-230,.cls-232{stroke:#3f5965;}.cls-204,.cls-205,.cls-206,.cls-207,.cls-214,.cls-216{stroke-width:2.48px;}.cls-205{stroke-dasharray:0.01 5.35;}.cls-206{stroke-dasharray:0.01 4.92;}.cls-208{stroke-width:7.91px;}.cls-209,.cls-211,.cls-217,.cls-223,.cls-232{fill:#fff;}.cls-209{stroke-width:4.96px;}.cls-210{fill:#cad9df;}.cls-212,.cls-220{fill:#5ec6cc;}.cls-212{fill-opacity:0.05;}.cls-212,.cls-213{stroke-width:1.86px;}.cls-215,.cls-229{fill:#3f5965;}.cls-216{stroke-dasharray:0.01 4.89;}.cls-217,.cls-218{stroke-width:2.31px;}.cls-219{opacity:0.05;}.cls-222,.cls-225,.cls-226,.cls-229{stroke-width:1.15px;}.cls-223{stroke:#0e6aed;stroke-width:1.38px;}.cls-225,.cls-227{fill:#f4fafb;}.cls-226,.cls-228{fill:#cee9e7;}.cls-227,.cls-228{stroke-width:0.94px;}.cls-230{stroke-width:1.89px;}.cls-231{stroke:#fff;stroke-width:2.48px;}.cls-231,.cls-232{stroke-miterlimit:10;}.cls-232{stroke-width:1.24px;}</style><linearGradient id="linear-gradient" x1="-33.78" y1="297.2" x2="-10.5" y2="288.55" gradientTransform="matrix(1, 0, 0, -1, 0, 380)" gradientUnits="userSpaceOnUse"><stop offset="0.49" stop-color="#1691d0"/><stop offset="1" stop-color="#1691d0" stop-opacity="0"/></linearGradient><linearGradient id="linear-gradient-2" x1="-37.15" y1="306.47" x2="-15.49" y2="298.42" xlink:href="#linear-gradient"/><linearGradient id="linear-gradient-3" x1="-47.37" y1="334.04" x2="-30.91" y2="327.92" xlink:href="#linear-gradient"/><linearGradient id="linear-gradient-4" x1="-54.2" y1="352.41" x2="-40.48" y2="347.31" xlink:href="#linear-gradient"/><linearGradient id="linear-gradient-5" x1="-14.53" y1="281.36" x2="9.94" y2="272.26" xlink:href="#linear-gradient"/><linearGradient id="linear-gradient-6" x1="-10.86" y1="311.73" x2="7.34" y2="304.97" xlink:href="#linear-gradient"/><linearGradient id="linear-gradient-7" x1="-12.69" y1="283.75" x2="6.6" y2="276.58" xlink:href="#linear-gradient"/><linearGradient id="linear-gradient-8" x1="-8.12" y1="321.69" x2="5.49" y2="316.64" xlink:href="#linear-gradient"/><linearGradient id="linear-gradient-9" x1="-9.01" y1="326.96" x2="6.12" y2="321.33" xlink:href="#linear-gradient"/><linearGradient id="linear-gradient-10" x1="-26.97" y1="266.01" x2="-6.72" y2="258.49" xlink:href="#linear-gradient"/><linearGradient id="linear-gradient-11" x1="-30.36" y1="275.24" x2="-10" y2="267.68" xlink:href="#linear-gradient"/><linearGradient id="linear-gradient-12" x1="-33.76" y1="284.43" x2="-13.78" y2="277.01" xlink:href="#linear-gradient"/><linearGradient id="linear-gradient-13" x1="-47.38" y1="321.22" x2="-31.65" y2="315.38" xlink:href="#linear-gradient"/><linearGradient id="linear-gradient-14" x1="-50.76" y1="330.5" x2="-36.19" y2="325.08" xlink:href="#linear-gradient"/><linearGradient id="linear-gradient-15" x1="-15.44" y1="248.15" x2="1.74" y2="241.77" xlink:href="#linear-gradient"/><linearGradient id="linear-gradient-16" x1="-12.69" y1="270.95" x2="4.34" y2="264.62" xlink:href="#linear-gradient"/><linearGradient id="linear-gradient-17" x1="-11.76" y1="278.57" x2="4.69" y2="272.45" xlink:href="#linear-gradient"/><linearGradient id="linear-gradient-18" x1="-9.93" y1="293.75" x2="4.95" y2="288.22" xlink:href="#linear-gradient"/><linearGradient id="linear-gradient-19" x1="-14.53" y1="242.96" x2="0.55" y2="237.36" xlink:href="#linear-gradient"/><linearGradient id="linear-gradient-20" x1="-10.86" y1="273.34" x2="3.49" y2="268.01" xlink:href="#linear-gradient"/><linearGradient id="linear-gradient-21" x1="-11.77" y1="265.74" x2="3.01" y2="260.25" xlink:href="#linear-gradient"/><linearGradient id="linear-gradient-22" x1="-9.94" y1="280.95" x2="3.86" y2="275.82" xlink:href="#linear-gradient"/><linearGradient id="linear-gradient-23" x1="-9.02" y1="301.33" x2="4.98" y2="296.13" xlink:href="#linear-gradient"/><linearGradient id="linear-gradient-24" x1="-33.76" y1="258.86" x2="-18.75" y2="253.28" xlink:href="#linear-gradient"/><linearGradient id="linear-gradient-25" x1="-37.16" y1="268.06" x2="-22.25" y2="262.52" xlink:href="#linear-gradient"/><linearGradient id="linear-gradient-26" x1="-50.78" y1="304.87" x2="-37.73" y2="300.02" xlink:href="#linear-gradient"/><linearGradient id="linear-gradient-27" x1="-54.19" y1="314.03" x2="-41.8" y2="309.43" xlink:href="#linear-gradient"/><linearGradient id="linear-gradient-28" x1="-54.19" y1="326.84" x2="-41.18" y2="322.01" xlink:href="#linear-gradient"/><linearGradient id="linear-gradient-29" x1="-27.03" y1="279.39" x2="-2.07" y2="270.12" xlink:href="#linear-gradient"/><linearGradient id="linear-gradient-30" x1="-11.75" y1="304.68" x2="8.21" y2="297.26" xlink:href="#linear-gradient"/><linearGradient id="linear-gradient-31" x1="-11.76" y1="291.87" x2="6.51" y2="285.08" xlink:href="#linear-gradient"/><linearGradient id="linear-gradient-32" x1="-44.03" y1="312.64" x2="-27.07" y2="306.33" xlink:href="#linear-gradient"/><linearGradient id="linear-gradient-33" x1="-30.43" y1="263.46" x2="-12.99" y2="256.98" xlink:href="#linear-gradient"/><linearGradient id="linear-gradient-34" x1="-44.04" y1="300.27" x2="-28.38" y2="294.45" xlink:href="#linear-gradient"/><linearGradient id="linear-gradient-35" x1="-13.59" y1="263.88" x2="3.84" y2="257.4" xlink:href="#linear-gradient"/><linearGradient id="linear-gradient-36" x1="-15.41" y1="235.9" x2="-0.55" y2="230.37" xlink:href="#linear-gradient"/><linearGradient id="linear-gradient-37" x1="-47.38" y1="281.88" x2="-34.88" y2="277.24" xlink:href="#linear-gradient"/><linearGradient id="linear-gradient-38" x1="-50.79" y1="291.09" x2="-38.69" y2="286.59" xlink:href="#linear-gradient"/><linearGradient id="linear-gradient-39" x1="-33.75" y1="232.32" x2="-22.06" y2="227.97" xlink:href="#linear-gradient"/><linearGradient id="linear-gradient-40" x1="-37.14" y1="241.55" x2="-25.37" y2="237.17" xlink:href="#linear-gradient"/><linearGradient id="linear-gradient-41" x1="-47.36" y1="269.15" x2="-35.88" y2="264.88" xlink:href="#linear-gradient"/><linearGradient id="linear-gradient-42" x1="-54.18" y1="287.52" x2="-43.28" y2="283.47" xlink:href="#linear-gradient"/><linearGradient id="linear-gradient-43" x1="-14.53" y1="216.4" x2="-2.84" y2="212.06" xlink:href="#linear-gradient"/><linearGradient id="linear-gradient-44" x1="-10.86" y1="246.8" x2="0.96" y2="242.41" xlink:href="#linear-gradient"/><linearGradient id="linear-gradient-45" x1="-12.68" y1="218.83" x2="-1.89" y2="214.81" xlink:href="#linear-gradient"/><linearGradient id="linear-gradient-46" x1="-8.11" y1="256.78" x2="2.2" y2="252.95" xlink:href="#linear-gradient"/><linearGradient id="linear-gradient-47" x1="-9.02" y1="261.99" x2="2.33" y2="257.77" xlink:href="#linear-gradient"/><linearGradient id="linear-gradient-48" x1="-26.96" y1="201.1" x2="-16.82" y2="197.33" xlink:href="#linear-gradient"/><linearGradient id="linear-gradient-49" x1="-30.35" y1="210.32" x2="-19.99" y2="206.47" xlink:href="#linear-gradient"/><linearGradient id="linear-gradient-50" x1="-33.75" y1="219.52" x2="-23.22" y2="215.61" xlink:href="#linear-gradient"/><linearGradient id="linear-gradient-51" x1="-47.37" y1="256.31" x2="-36.82" y2="252.39" xlink:href="#linear-gradient"/><linearGradient id="linear-gradient-52" x1="-50.78" y1="265.51" x2="-40.39" y2="261.65" xlink:href="#linear-gradient"/><linearGradient id="linear-gradient-53" x1="-15.44" y1="183.21" x2="-6.08" y2="179.73" xlink:href="#linear-gradient"/><linearGradient id="linear-gradient-54" x1="-12.68" y1="206.03" x2="-2.85" y2="202.37" xlink:href="#linear-gradient"/><linearGradient id="linear-gradient-55" x1="-11.77" y1="213.58" x2="-1.88" y2="209.91" xlink:href="#linear-gradient"/><linearGradient id="linear-gradient-56" x1="-9.93" y1="228.83" x2="-0.07" y2="225.16" xlink:href="#linear-gradient"/><linearGradient id="linear-gradient-57" x1="-14.52" y1="178.03" x2="-5.76" y2="174.77" xlink:href="#linear-gradient"/><linearGradient id="linear-gradient-58" x1="-10.86" y1="208.38" x2="-1.73" y2="204.99" xlink:href="#linear-gradient"/><linearGradient id="linear-gradient-59" x1="-11.77" y1="200.81" x2="-2.68" y2="197.43" xlink:href="#linear-gradient"/><linearGradient id="linear-gradient-60" x1="-9.94" y1="216" x2="-0.82" y2="212.61" xlink:href="#linear-gradient"/><linearGradient id="linear-gradient-61" x1="-14.53" y1="228.98" x2="-1.43" y2="224.12" xlink:href="#linear-gradient"/><linearGradient id="linear-gradient-62" x1="-13.61" y1="236.59" x2="-0.36" y2="231.67" xlink:href="#linear-gradient"/><linearGradient id="linear-gradient-63" x1="-10.86" y1="259.38" x2="2.09" y2="254.57" xlink:href="#linear-gradient"/><linearGradient id="linear-gradient-64" x1="-12.68" y1="244.22" x2="0.59" y2="239.28" xlink:href="#linear-gradient"/><linearGradient id="linear-gradient-65" x1="-11.77" y1="251.77" x2="1.4" y2="246.88" xlink:href="#linear-gradient"/><linearGradient id="linear-gradient-66" x1="-8.1" y1="282.2" x2="3.65" y2="277.83" xlink:href="#linear-gradient"/><linearGradient id="linear-gradient-67" x1="-9.05" y1="236.31" x2="0.71" y2="232.69" xlink:href="#linear-gradient"/><linearGradient id="linear-gradient-68" x1="-33.77" y1="193.87" x2="-25.01" y2="190.62" xlink:href="#linear-gradient"/><linearGradient id="linear-gradient-69" x1="-37.15" y1="203.15" x2="-28.28" y2="199.85" xlink:href="#linear-gradient"/><linearGradient id="linear-gradient-70" x1="-50.76" y1="239.98" x2="-41.81" y2="236.65" xlink:href="#linear-gradient"/><linearGradient id="linear-gradient-71" x1="-54.19" y1="249.1" x2="-45.33" y2="245.81" xlink:href="#linear-gradient"/><linearGradient id="linear-gradient-72" x1="-54.16" y1="261.97" x2="-44.67" y2="258.44" xlink:href="#linear-gradient"/><linearGradient id="linear-gradient-73" x1="-27.02" y1="227.29" x2="-14.3" y2="222.56" xlink:href="#linear-gradient"/><linearGradient id="linear-gradient-74" x1="-27.03" y1="214.46" x2="-15.72" y2="210.26" xlink:href="#linear-gradient"/><linearGradient id="linear-gradient-75" x1="-11.76" y1="239.7" x2="0.2" y2="235.26" xlink:href="#linear-gradient"/><linearGradient id="linear-gradient-76" x1="-11.76" y1="226.9" x2="-0.9" y2="222.87" xlink:href="#linear-gradient"/><linearGradient id="linear-gradient-77" x1="-44.03" y1="247.7" x2="-33.36" y2="243.73" xlink:href="#linear-gradient"/><linearGradient id="linear-gradient-78" x1="-30.43" y1="198.52" x2="-20.97" y2="195" xlink:href="#linear-gradient"/><linearGradient id="linear-gradient-79" x1="-44.03" y1="235.36" x2="-34.22" y2="231.71" xlink:href="#linear-gradient"/><linearGradient id="linear-gradient-80" x1="-13.59" y1="198.92" x2="-3.84" y2="195.3" xlink:href="#linear-gradient"/><linearGradient id="linear-gradient-81" x1="-15.42" y1="170.93" x2="-6.82" y2="167.74" xlink:href="#linear-gradient"/><linearGradient id="linear-gradient-82" x1="-67.42" y1="388.7" x2="-57.33" y2="384.95" xlink:href="#linear-gradient"/><linearGradient id="linear-gradient-83" x1="-70.83" y1="397.89" x2="-61.41" y2="394.39" xlink:href="#linear-gradient"/><linearGradient id="linear-gradient-84" x1="-81.07" y1="425.41" x2="-73.23" y2="422.5" xlink:href="#linear-gradient"/><linearGradient id="linear-gradient-85" x1="-87.86" y1="443.84" x2="-80.83" y2="441.23" xlink:href="#linear-gradient"/><linearGradient id="linear-gradient-86" x1="-7.31" y1="341.67" x2="5.55" y2="336.9" xlink:href="#linear-gradient"/><linearGradient id="linear-gradient-87" x1="-5.43" y1="356.95" x2="5.56" y2="352.86" xlink:href="#linear-gradient"/><linearGradient id="linear-gradient-88" x1="-1.79" y1="387.26" x2="6.64" y2="384.13" xlink:href="#linear-gradient"/><linearGradient id="linear-gradient-89" x1="-3.62" y1="359.29" x2="6.02" y2="355.71" xlink:href="#linear-gradient"/><linearGradient id="linear-gradient-90" x1="1.04" y1="397.48" x2="8.28" y2="394.78" xlink:href="#linear-gradient"/><linearGradient id="linear-gradient-91" x1="0.06" y1="402.52" x2="7.59" y2="399.72" xlink:href="#linear-gradient"/><linearGradient id="linear-gradient-92" x1="-60.64" y1="357.42" x2="-48.95" y2="353.08" xlink:href="#linear-gradient"/><linearGradient id="linear-gradient-93" x1="-63.96" y1="366.84" x2="-53.09" y2="362.79" xlink:href="#linear-gradient"/><linearGradient id="linear-gradient-94" x1="-67.43" y1="375.86" x2="-57.28" y2="372.09" xlink:href="#linear-gradient"/><linearGradient id="linear-gradient-95" x1="-81.05" y1="412.68" x2="-73.11" y2="409.73" xlink:href="#linear-gradient"/><linearGradient id="linear-gradient-96" x1="-84.45" y1="421.86" x2="-76.94" y2="419.07" xlink:href="#linear-gradient"/><linearGradient id="linear-gradient-97" x1="-7.28" y1="316.16" x2="5.14" y2="311.54" xlink:href="#linear-gradient"/><linearGradient id="linear-gradient-98" x1="-6.37" y1="323.7" x2="5.26" y2="319.38" xlink:href="#linear-gradient"/><linearGradient id="linear-gradient-99" x1="-3.65" y1="346.42" x2="5.98" y2="342.85" xlink:href="#linear-gradient"/><linearGradient id="linear-gradient-100" x1="-2.7" y1="354.1" x2="6.37" y2="350.73" xlink:href="#linear-gradient"/><linearGradient id="linear-gradient-101" x1="-0.91" y1="369.19" x2="7.21" y2="366.18" xlink:href="#linear-gradient"/><linearGradient id="linear-gradient-102" x1="-5.47" y1="318.47" x2="5.2" y2="314.51" xlink:href="#linear-gradient"/><linearGradient id="linear-gradient-103" x1="-1.75" y1="348.98" x2="6.79" y2="345.8" xlink:href="#linear-gradient"/><linearGradient id="linear-gradient-104" x1="-2.71" y1="341.28" x2="6.31" y2="337.93" xlink:href="#linear-gradient"/><linearGradient id="linear-gradient-105" x1="-0.85" y1="356.54" x2="7.27" y2="353.52" xlink:href="#linear-gradient"/><linearGradient id="linear-gradient-106" x1="0.04" y1="376.87" x2="7.74" y2="374.01" xlink:href="#linear-gradient"/><linearGradient id="linear-gradient-107" x1="-57.18" y1="322.78" x2="-45.37" y2="318.38" xlink:href="#linear-gradient"/><linearGradient id="linear-gradient-108" x1="-67.4" y1="350.34" x2="-57.45" y2="346.64" xlink:href="#linear-gradient"/><linearGradient id="linear-gradient-109" x1="-70.87" y1="359.39" x2="-61.46" y2="355.9" xlink:href="#linear-gradient"/><linearGradient id="linear-gradient-110" x1="-84.48" y1="396.2" x2="-76.88" y2="393.38" xlink:href="#linear-gradient"/><linearGradient id="linear-gradient-111" x1="-87.8" y1="405.61" x2="-80.57" y2="402.92" xlink:href="#linear-gradient"/><linearGradient id="linear-gradient-112" x1="-87.9" y1="418.14" x2="-80.7" y2="415.47" xlink:href="#linear-gradient"/><linearGradient id="linear-gradient-113" x1="-60.69" y1="370.83" x2="-48.99" y2="366.48" xlink:href="#linear-gradient"/><linearGradient id="linear-gradient-114" x1="-2.64" y1="380.31" x2="6.3" y2="376.98" xlink:href="#linear-gradient"/><linearGradient id="linear-gradient-115" x1="-7.26" y1="329.47" x2="5.46" y2="324.74" xlink:href="#linear-gradient"/><linearGradient id="linear-gradient-116" x1="-2.68" y1="367.43" x2="6.36" y2="364.07" xlink:href="#linear-gradient"/><linearGradient id="linear-gradient-117" x1="-77.74" y1="403.97" x2="-69.34" y2="400.85" xlink:href="#linear-gradient"/><linearGradient id="linear-gradient-118" x1="-64.08" y1="354.93" x2="-53.32" y2="350.93" xlink:href="#linear-gradient"/><linearGradient id="linear-gradient-119" x1="-77.77" y1="391.55" x2="-69.33" y2="388.42" xlink:href="#linear-gradient"/><linearGradient id="linear-gradient-120" x1="-4.52" y1="339.43" x2="5.71" y2="335.63" xlink:href="#linear-gradient"/><linearGradient id="linear-gradient-121" x1="-6.34" y1="311.46" x2="4.95" y2="307.26" xlink:href="#linear-gradient"/><linearGradient id="linear-gradient-122" x1="-57.18" y1="309" x2="-45.98" y2="304.83" xlink:href="#linear-gradient"/><linearGradient id="linear-gradient-123" x1="-81.04" y1="373.34" x2="-73.1" y2="370.39" xlink:href="#linear-gradient"/><linearGradient id="linear-gradient-124" x1="-84.47" y1="382.47" x2="-76.9" y2="379.66" xlink:href="#linear-gradient"/><linearGradient id="linear-gradient-125" x1="-67.37" y1="323.88" x2="-58" y2="320.39" xlink:href="#linear-gradient"/><linearGradient id="linear-gradient-126" x1="-70.87" y1="332.83" x2="-61.89" y2="329.5" xlink:href="#linear-gradient"/><linearGradient id="linear-gradient-127" x1="-81.07" y1="360.47" x2="-73.23" y2="357.56" xlink:href="#linear-gradient"/><linearGradient id="linear-gradient-128" x1="-87.89" y1="378.82" x2="-80.72" y2="376.16" xlink:href="#linear-gradient"/><linearGradient id="linear-gradient-129" x1="-7.27" y1="276.83" x2="3.45" y2="272.84" xlink:href="#linear-gradient"/><linearGradient id="linear-gradient-130" x1="-5.46" y1="291.93" x2="4.45" y2="288.25" xlink:href="#linear-gradient"/><linearGradient id="linear-gradient-131" x1="-1.77" y1="322.37" x2="6.54" y2="319.28" xlink:href="#linear-gradient"/><linearGradient id="linear-gradient-132" x1="-3.62" y1="294.36" x2="5.18" y2="291.09" xlink:href="#linear-gradient"/><linearGradient id="linear-gradient-133" x1="1" y1="332.43" x2="8.2" y2="329.75" xlink:href="#linear-gradient"/><linearGradient id="linear-gradient-134" x1="0.07" y1="337.58" x2="7.68" y2="334.75" xlink:href="#linear-gradient"/><linearGradient id="linear-gradient-135" x1="-60.64" y1="292.48" x2="-50.97" y2="288.89" xlink:href="#linear-gradient"/><linearGradient id="linear-gradient-136" x1="-64.04" y1="301.68" x2="-54.69" y2="298.21" xlink:href="#linear-gradient"/><linearGradient id="linear-gradient-137" x1="-67.41" y1="310.98" x2="-58.4" y2="307.63" xlink:href="#linear-gradient"/><linearGradient id="linear-gradient-138" x1="-81.05" y1="347.73" x2="-73.35" y2="344.87" xlink:href="#linear-gradient"/><linearGradient id="linear-gradient-139" x1="-84.5" y1="356.79" x2="-77.11" y2="354.05" xlink:href="#linear-gradient"/><linearGradient id="linear-gradient-140" x1="-7.3" y1="251.15" x2="2.18" y2="247.63" xlink:href="#linear-gradient"/><linearGradient id="linear-gradient-141" x1="-6.37" y1="258.77" x2="2.89" y2="255.33" xlink:href="#linear-gradient"/><linearGradient id="linear-gradient-142" x1="-3.6" y1="281.6" x2="4.87" y2="278.45" xlink:href="#linear-gradient"/><linearGradient id="linear-gradient-143" x1="-2.67" y1="289.25" x2="5.52" y2="286.2" xlink:href="#linear-gradient"/><linearGradient id="linear-gradient-144" x1="-0.9" y1="304.27" x2="6.73" y2="301.44" xlink:href="#linear-gradient"/><linearGradient id="linear-gradient-145" x1="-5.44" y1="253.6" x2="3.11" y2="250.42" xlink:href="#linear-gradient"/><linearGradient id="linear-gradient-146" x1="-1.79" y1="283.91" x2="5.86" y2="281.07" xlink:href="#linear-gradient"/><linearGradient id="linear-gradient-147" x1="-2.66" y1="276.48" x2="5.23" y2="273.54" xlink:href="#linear-gradient"/><linearGradient id="linear-gradient-148" x1="-0.91" y1="291.44" x2="6.51" y2="288.69" xlink:href="#linear-gradient"/><linearGradient id="linear-gradient-149" x1="-5.45" y1="304.54" x2="4.86" y2="300.71" xlink:href="#linear-gradient"/><linearGradient id="linear-gradient-150" x1="-4.53" y1="312.17" x2="5.29" y2="308.52" xlink:href="#linear-gradient"/><linearGradient id="linear-gradient-151" x1="-1.78" y1="334.94" x2="6.67" y2="331.8" xlink:href="#linear-gradient"/><linearGradient id="linear-gradient-152" x1="-3.62" y1="319.75" x2="5.72" y2="316.28" xlink:href="#linear-gradient"/><linearGradient id="linear-gradient-153" x1="-2.7" y1="327.35" x2="6.18" y2="324.05" xlink:href="#linear-gradient"/><linearGradient id="linear-gradient-154" x1="0.95" y1="357.67" x2="8.28" y2="354.95" xlink:href="#linear-gradient"/><linearGradient id="linear-gradient-155" x1="0.11" y1="312.1" x2="7.46" y2="309.36" xlink:href="#linear-gradient"/><linearGradient id="linear-gradient-156" x1="-57.18" y1="257.82" x2="-48.42" y2="254.56" xlink:href="#linear-gradient"/><linearGradient id="linear-gradient-157" x1="-67.38" y1="285.45" x2="-59.16" y2="282.39" xlink:href="#linear-gradient"/><linearGradient id="linear-gradient-158" x1="-70.8" y1="294.64" x2="-62.79" y2="291.66" xlink:href="#linear-gradient"/><linearGradient id="linear-gradient-159" x1="-84.41" y1="331.44" x2="-77.34" y2="328.81" xlink:href="#linear-gradient"/><linearGradient id="linear-gradient-160" x1="-87.82" y1="340.63" x2="-80.99" y2="338.09" xlink:href="#linear-gradient"/><linearGradient id="linear-gradient-161" x1="-87.84" y1="353.37" x2="-80.87" y2="350.78" xlink:href="#linear-gradient"/><linearGradient id="linear-gradient-162" x1="-60.67" y1="318.75" x2="-49.97" y2="314.77" xlink:href="#linear-gradient"/><linearGradient id="linear-gradient-163" x1="-60.69" y1="305.89" x2="-50.49" y2="302.1" xlink:href="#linear-gradient"/><linearGradient id="linear-gradient-164" x1="-2.68" y1="315.28" x2="6.01" y2="312.05" xlink:href="#linear-gradient"/><linearGradient id="linear-gradient-165" x1="-7.28" y1="264.47" x2="2.82" y2="260.72" xlink:href="#linear-gradient"/><linearGradient id="linear-gradient-166" x1="-2.65" y1="302.57" x2="5.81" y2="299.42" xlink:href="#linear-gradient"/><linearGradient id="linear-gradient-167" x1="-77.72" y1="339.09" x2="-69.7" y2="336.11" xlink:href="#linear-gradient"/><linearGradient id="linear-gradient-168" x1="-64.09" y1="289.96" x2="-55.18" y2="286.65" xlink:href="#linear-gradient"/><linearGradient id="linear-gradient-169" x1="-77.73" y1="326.72" x2="-69.92" y2="323.82" xlink:href="#linear-gradient"/><linearGradient id="linear-gradient-170" x1="-4.54" y1="274.44" x2="4.22" y2="271.19" xlink:href="#linear-gradient"/><linearGradient id="linear-gradient-171" x1="-6.35" y1="246.49" x2="2.4" y2="243.24" xlink:href="#linear-gradient"/><radialGradient id="radial-gradient" cx="123.68" cy="148.29" r="11.18" gradientTransform="matrix(1, 0, 0, -1, 0, 380)" gradientUnits="userSpaceOnUse"><stop offset="0.1" stop-color="#fff"/><stop offset="0.5" stop-color="#66b9e1"/></radialGradient><radialGradient id="radial-gradient-2" cx="65.73" cy="162.48" r="11.18" xlink:href="#radial-gradient"/><radialGradient id="radial-gradient-3" cx="72.84" cy="211.9" r="11.18" xlink:href="#radial-gradient"/><radialGradient id="radial-gradient-4" cx="90.05" cy="128.73" r="11.18" xlink:href="#radial-gradient"/><radialGradient id="radial-gradient-5" cx="151.91" cy="212.35" r="11.18" xlink:href="#radial-gradient"/><radialGradient id="radial-gradient-6" cx="154.4" cy="174.03" r="11.18" xlink:href="#radial-gradient"/><radialGradient id="radial-gradient-7" cx="117.61" cy="224.8" r="11.18" xlink:href="#radial-gradient"/><radialGradient id="radial-gradient-8" cx="152.98" cy="247.56" r="8.36" gradientTransform="matrix(1, 0, 0, -1, 0, 380)" gradientUnits="userSpaceOnUse"><stop offset="0" stop-color="#fff"/><stop offset="0.51" stop-color="#1691d0"/></radialGradient><radialGradient id="radial-gradient-9" cx="120.25" cy="195.95" r="8.36" xlink:href="#radial-gradient-8"/><radialGradient id="radial-gradient-10" cx="75.47" cy="171.46" r="8.36" xlink:href="#radial-gradient-8"/><radialGradient id="radial-gradient-11" cx="50.79" cy="180.05" r="8.36" xlink:href="#radial-gradient-8"/><radialGradient id="radial-gradient-12" cx="97.23" cy="264.95" r="8.36" xlink:href="#radial-gradient-8"/><radialGradient id="radial-gradient-13" cx="56.14" cy="238.31" r="8.36" xlink:href="#radial-gradient-8"/><radialGradient id="radial-gradient-14" cx="68.36" cy="260.93" r="8.36" xlink:href="#radial-gradient-8"/><radialGradient id="radial-gradient-15" cx="195.23" cy="262.02" r="8.36" xlink:href="#radial-gradient-8"/><radialGradient id="radial-gradient-16" cx="174.77" cy="327.04" r="8.36" xlink:href="#radial-gradient-8"/><radialGradient id="radial-gradient-17" cx="114.09" cy="297.17" r="8.36" xlink:href="#radial-gradient-8"/><radialGradient id="radial-gradient-18" cx="193.27" cy="220.95" r="8.36" xlink:href="#radial-gradient-8"/><radialGradient id="radial-gradient-19" cx="181.25" cy="250.8" r="11.18" xlink:href="#radial-gradient"/><radialGradient id="radial-gradient-20" cx="153.38" cy="298.79" r="11.18" xlink:href="#radial-gradient"/><radialGradient id="radial-gradient-21" cx="220.66" cy="290.77" r="11.18" xlink:href="#radial-gradient"/><radialGradient id="radial-gradient-22" cx="208.8" cy="195.81" r="11.18" xlink:href="#radial-gradient"/></defs><polygon class="cls-1" points="154.68 142.78 13.21 224.46 13.21 110.17 154.68 28.49 154.68 142.78"/><g class="cls-2"><g class="cls-3"><path class="cls-4" d="M24.44,102.68h0L23,104.3l-.29-1.3,2-2.21,1.44-.82v8.57l-1.69,1Z"/><path class="cls-5" d="M32.81,97.85h0l-1.42,1.6-.29-1.34,2-2.2,1.44-.83v8.57l-1.69,1Z"/><path class="cls-6" d="M57.9,83.37h0L56.45,85l-.29-1.34,2-2.2,1.44-.83V89.2l-1.69,1Z"/><path class="cls-7" d="M74.63,73.71h0l-1.42,1.6L72.89,74l2-2.2,1.43-.8v8.58l-1.69,1Z"/><path class="cls-8" d="M18.82,108.4c0,2.59-.92,4.92-2.78,6s-2.74-.38-2.75-2.76.89-4.89,2.79-6S18.82,106.08,18.82,108.4ZM15,110.65c0,1.93.4,2.62,1.06,2.24s1-1.55,1-3.48-.35-2.65-1-2.25S15,108.67,15,110.65Z"/><path class="cls-9" d="M52.28,89.08c0,2.59-.92,4.93-2.79,6s-2.73-.38-2.74-2.77.89-4.89,2.79-6S52.28,86.77,52.28,89.08Zm-3.81,2.25c0,1.94.4,2.62,1.06,2.24s1-1.55,1-3.47-.35-2.66-1-2.26S48.47,89.36,48.47,91.33Z"/><path class="cls-10" d="M35.55,111.53c0,2.6-.92,4.93-2.78,6S30,117.16,30,114.78s.89-4.89,2.79-6S35.55,109.22,35.55,111.53Zm-3.81,2.26c0,1.93.4,2.62,1.06,2.24s1-1.56,1-3.48-.35-2.65-1-2.25S31.74,111.81,31.74,113.79Z"/><path class="cls-11" d="M77.37,87.39c0,2.59-.92,4.93-2.78,6s-2.74-.38-2.75-2.77.89-4.89,2.79-6S77.37,85.08,77.37,87.39Zm-3.81,2.25c0,1.94.41,2.62,1.06,2.24s1-1.55,1-3.47-.35-2.66-1-2.26S73.56,87.67,73.56,89.64Z"/><path class="cls-12" d="M69,79.42c0,2.6-.92,4.93-2.79,6s-2.73-.38-2.75-2.76.9-4.89,2.8-6S69,77.11,69,79.42Zm-3.82,2.25c0,1.94.41,2.62,1.07,2.24s1-1.55,1-3.47-.35-2.65-1-2.26-1.06,1.52-1.06,3.49Z"/><path class="cls-13" d="M7.71,125.14h0l-1.43,1.6L6,125.41l2-2.2,1.43-.83V131l-1.69,1Z"/><path class="cls-14" d="M16.08,120.31h0l-1.42,1.6-.29-1.33,2-2.21,1.44-.83v8.58l-1.69,1Z"/><path class="cls-15" d="M24.44,115.48h0L23,117.09l-.28-1.33,2-2.21,1.44-.83v8.58l-1.69,1Z"/><path class="cls-16" d="M57.9,96.16h0l-1.43,1.6-.29-1.34,2-2.2,1.44-.83V102l-1.69,1Z"/><path class="cls-17" d="M66.26,91.33h0L64.81,93l-.28-1.34,2-2.2L68,88.58v8.57l-1.69,1Z"/><path class="cls-18" d="M10.46,138.82c0,2.6-.92,4.93-2.79,6s-2.74-.38-2.75-2.76.9-4.9,2.8-6S10.46,136.51,10.46,138.82Zm-3.82,2.25c0,1.94.41,2.62,1.07,2.24s1-1.55,1-3.47-.36-2.66-1-2.26S6.64,139.1,6.64,141.07Z"/><path class="cls-19" d="M35.55,124.33c0,2.6-.92,4.93-2.78,6S30,130,30,127.58s.89-4.89,2.79-6S35.55,122,35.55,124.33Zm-3.81,2.25c0,1.94.4,2.63,1.06,2.25s1-1.56,1-3.48-.35-2.65-1-2.25S31.74,124.61,31.74,126.58Z"/><path class="cls-20" d="M43.91,119.5c0,2.6-.91,4.93-2.78,6s-2.74-.38-2.75-2.76.89-4.89,2.8-6S43.91,117.19,43.91,119.5Zm-3.81,2.26c0,1.93.41,2.62,1.06,2.24s1-1.56,1-3.48-.35-2.65-1-2.25S40.1,119.78,40.1,121.76Z"/><path class="cls-21" d="M60.64,109.84c0,2.6-.91,4.93-2.78,6s-2.74-.38-2.75-2.76.89-4.89,2.79-6S60.64,107.53,60.64,109.84Zm-3.81,2.26c0,1.93.41,2.62,1.06,2.24s1-1.56,1-3.48-.35-2.65-1-2.25S56.83,110.12,56.83,112.1Z"/><path class="cls-22" d="M18.82,146.79c0,2.59-.92,4.93-2.78,6s-2.74-.38-2.75-2.77.89-4.89,2.79-6S18.82,144.48,18.82,146.79ZM15,149c0,1.93.4,2.62,1.06,2.24s1-1.55,1-3.47-.35-2.66-1-2.26S15,147.07,15,149Z"/><path class="cls-23" d="M52.28,127.47c0,2.6-.92,4.93-2.79,6s-2.73-.38-2.74-2.76.89-4.89,2.79-6S52.28,125.16,52.28,127.47Zm-3.81,2.25c0,1.94.4,2.62,1.06,2.25s1-1.56,1-3.48-.35-2.65-1-2.26S48.47,127.75,48.47,129.72Z"/><path class="cls-24" d="M43.91,132.3c0,2.6-.91,4.93-2.78,6s-2.74-.38-2.75-2.76.89-4.89,2.8-6S43.91,130,43.91,132.3Zm-3.81,2.25c0,1.94.41,2.62,1.06,2.25s1-1.56,1-3.48-.35-2.65-1-2.26S40.1,132.58,40.1,134.55Z"/><path class="cls-25" d="M60.64,122.64c0,2.6-.91,4.93-2.78,6s-2.74-.38-2.75-2.76.89-4.89,2.79-6S60.64,120.33,60.64,122.64Zm-3.81,2.25c0,1.94.41,2.63,1.06,2.25s1-1.56,1-3.48-.35-2.65-1-2.25S56.83,122.92,56.83,124.89Z"/><path class="cls-26" d="M69,105c0,2.59-.92,4.92-2.79,6s-2.73-.38-2.75-2.76.9-4.89,2.8-6S69,102.7,69,105Zm-3.82,2.25c0,1.93.41,2.62,1.07,2.24s1-1.56,1-3.48-.35-2.65-1-2.25-1.06,1.53-1.06,3.51Z"/><path class="cls-27" d="M24.44,141.07h0L23,142.69l-.28-1.34,2-2.2,1.44-.83v8.57l-1.69,1Z"/><path class="cls-28" d="M32.81,136.25h0l-1.42,1.6-.29-1.34,2-2.2,1.44-.83v8.57l-1.69,1Z"/><path class="cls-29" d="M66.26,116.93h0l-1.43,1.6-.28-1.33,2-2.21,1.43-.83v8.58l-1.69,1Z"/><path class="cls-30" d="M74.63,112.1h0l-1.42,1.6-.29-1.33,2-2.21,1.44-.83v8.58l-1.69,1Z"/><path class="cls-31" d="M74.63,99.3h0l-1.42,1.6-.29-1.34,2-2.21,1.44-.82v8.57l-1.69,1Z"/><path class="cls-32" d="M7.89,111.88h0l-1.43,1.6-.29-1.34,2-2.2,1.44-.83v8.58l-1.69,1Z"/><path class="cls-33" d="M44.09,93.44c0,2.6-.92,4.93-2.78,6s-2.74-.38-2.75-2.76.89-4.89,2.79-6S44.09,91.13,44.09,93.44ZM40.28,95.7c0,1.93.41,2.62,1.06,2.24s1-1.56,1-3.48-.35-2.65-1-2.25S40.28,93.72,40.28,95.7Z"/><path class="cls-34" d="M44.09,106.24c0,2.6-.92,4.93-2.78,6s-2.74-.38-2.75-2.76.89-4.89,2.79-6S44.09,103.93,44.09,106.24Zm-3.81,2.25c0,1.94.41,2.63,1.06,2.25s1-1.56,1-3.48-.35-2.65-1-2.25S40.28,106.52,40.28,108.49Z"/><path class="cls-35" d="M49.71,100.53h0l-1.43,1.6L48,100.81l2-2.21,1.43-.83v8.58l-1.69,1Z"/><path class="cls-36" d="M16.25,132.18h0l-1.42,1.6-.29-1.34,2-2.2,1.43-.83V138l-1.69,1Z"/><path class="cls-37" d="M49.71,112.87h0l-1.43,1.6L48,113.14l2-2.2,1.43-.83v8.57l-1.69,1Z"/><path class="cls-38" d="M27.36,128.7c0,2.59-.91,4.93-2.78,6s-2.74-.37-2.75-2.76.89-4.89,2.79-6S27.36,126.39,27.36,128.7ZM23.55,131c0,1.93.41,2.62,1.06,2.24s1-1.55,1-3.47-.35-2.66-1-2.26S23.55,129,23.55,131Z"/><path class="cls-39" d="M10.63,151.15c0,2.6-.91,4.93-2.78,6s-2.74-.38-2.75-2.76.89-4.89,2.8-6S10.63,148.84,10.63,151.15Zm-3.81,2.26c0,1.93.41,2.62,1.06,2.24s1-1.56,1-3.48-.35-2.65-1-2.25-1.06,1.51-1.06,3.49Z"/></g><g class="cls-3"><path class="cls-40" d="M57.9,135.51h0l-1.43,1.6-.29-1.34,2-2.2,1.44-.83v8.57l-1.69,1Z"/><path class="cls-41" d="M66.26,130.68h0l-1.43,1.6-.3-1.28,2-2.2L68,128v8.57l-1.69,1Z"/><path class="cls-42" d="M24.44,167.63h0L23,169.24l-.28-1.34,2-2.2,1.44-.83v8.58l-1.69,1Z"/><path class="cls-43" d="M32.81,162.8h0l-1.42,1.6-.29-1.34,2-2.2,1.4-.86v8.58l-1.69,1Z"/><path class="cls-44" d="M57.9,148.31h0l-1.43,1.61-.29-1.34,2-2.21,1.44-.83v8.58l-1.69,1Z"/><path class="cls-45" d="M74.63,138.65h0l-1.42,1.6-.29-1.34,2-2.2,1.44-.83v8.57l-1.69,1Z"/><path class="cls-46" d="M18.82,173.34c0,2.6-.92,4.93-2.78,6s-2.74-.38-2.75-2.76.89-4.89,2.79-6S18.82,171,18.82,173.34ZM15,175.59c0,1.94.4,2.62,1.06,2.25s1-1.56,1-3.48-.35-2.65-1-2.26S15,173.62,15,175.59Z"/><path class="cls-47" d="M52.28,154c0,2.6-.92,4.93-2.79,6s-2.73-.38-2.74-2.76.89-4.89,2.79-6S52.28,151.71,52.28,154Zm-3.81,2.26c0,1.93.4,2.62,1.06,2.24s1-1.56,1-3.48-.35-2.65-1-2.25-1.06,1.53-1.06,3.51Z"/><path class="cls-48" d="M35.55,176.48c0,2.6-.92,4.93-2.78,6S30,182.11,30,179.73s.89-4.9,2.79-6S35.55,174.17,35.55,176.48Zm-3.81,2.25c0,1.94.4,2.62,1.06,2.24s1-1.55,1-3.47-.35-2.65-1-2.26S31.74,176.76,31.74,178.73Z"/><path class="cls-49" d="M77.37,152.33c0,2.6-.92,4.93-2.78,6s-2.74-.38-2.75-2.76.89-4.89,2.79-6S77.37,150,77.37,152.33Zm-3.81,2.26c0,1.93.41,2.62,1.06,2.24s1-1.56,1-3.48-.35-2.65-1-2.25S73.56,152.61,73.56,154.59Z"/><path class="cls-50" d="M69,144.37c0,2.59-.92,4.92-2.79,6s-2.73-.38-2.75-2.76.9-4.89,2.8-6S69,142.05,69,144.37Zm-3.82,2.25c0,1.93.41,2.62,1.07,2.24s1-1.55,1-3.48-.35-2.65-1-2.25-1.06,1.52-1.06,3.49Z"/><path class="cls-51" d="M7.71,190.08h0l-1.43,1.6L6,190.36l2-2.2,1.43-.83v8.57l-1.69,1Z"/><path class="cls-52" d="M16.08,185.25h0l-1.42,1.6-.29-1.34,2-2.2,1.44-.83v8.57l-1.69,1Z"/><path class="cls-53" d="M24.44,180.43h0L23,182l-.28-1.34,2-2.2,1.44-.83v8.57l-1.69,1Z"/><path class="cls-54" d="M57.9,161.11h0l-1.43,1.6-.29-1.34,2-2.2,1.44-.83v8.58l-1.69,1Z"/><path class="cls-55" d="M66.26,156.28h0l-1.43,1.6-.28-1.33,2-2.21,1.43-.83v8.58l-1.69,1Z"/><path class="cls-56" d="M10.46,203.77c0,2.59-.92,4.92-2.79,6s-2.74-.38-2.75-2.76.9-4.89,2.8-6S10.46,201.45,10.46,203.77ZM6.64,206c0,1.93.41,2.62,1.07,2.24s1-1.56,1-3.48-.36-2.65-1-2.25S6.64,204,6.64,206Z"/><path class="cls-57" d="M35.55,189.28c0,2.59-.92,4.93-2.78,6S30,194.9,30,192.52s.89-4.89,2.79-6S35.55,187,35.55,189.28Zm-3.81,2.25c0,1.93.4,2.62,1.06,2.24s1-1.55,1-3.47-.35-2.66-1-2.26S31.74,189.56,31.74,191.53Z"/><path class="cls-58" d="M43.91,184.45c0,2.59-.91,4.93-2.78,6s-2.74-.38-2.75-2.77.89-4.89,2.8-6S43.91,182.14,43.91,184.45ZM40.1,186.7c0,1.94.41,2.62,1.06,2.24s1-1.55,1-3.47-.35-2.66-1-2.26S40.1,184.73,40.1,186.7Z"/><path class="cls-59" d="M60.64,174.79c0,2.6-.91,4.93-2.78,6s-2.74-.38-2.75-2.76.89-4.9,2.79-6S60.64,172.48,60.64,174.79ZM56.83,177c0,1.94.41,2.62,1.06,2.24s1-1.55,1-3.47-.35-2.65-1-2.26S56.83,175.07,56.83,177Z"/><path class="cls-60" d="M18.82,211.73c0,2.6-.92,4.93-2.78,6s-2.74-.38-2.75-2.76.89-4.89,2.79-6S18.82,209.42,18.82,211.73ZM15,214c0,1.93.4,2.62,1.06,2.24s1-1.56,1-3.48-.35-2.65-1-2.25S15,212,15,214Z"/><path class="cls-61" d="M52.28,192.42c0,2.59-.92,4.93-2.79,6s-2.73-.38-2.74-2.76.89-4.89,2.79-6S52.28,190.11,52.28,192.42Zm-3.81,2.25c0,1.93.4,2.62,1.06,2.24s1-1.55,1-3.47-.35-2.66-1-2.26S48.47,192.7,48.47,194.67Z"/><path class="cls-62" d="M43.91,197.25c0,2.59-.91,4.93-2.78,6s-2.74-.38-2.75-2.76.89-4.89,2.8-6S43.91,194.94,43.91,197.25ZM40.1,199.5c0,1.93.41,2.62,1.06,2.24s1-1.55,1-3.48-.35-2.65-1-2.25S40.1,197.53,40.1,199.5Z"/><path class="cls-63" d="M60.64,187.59c0,2.59-.91,4.93-2.78,6s-2.74-.38-2.75-2.76.89-4.89,2.79-6S60.64,185.28,60.64,187.59Zm-3.81,2.25c0,1.93.41,2.62,1.06,2.24s1-1.55,1-3.47-.35-2.66-1-2.26S56.83,187.87,56.83,189.84Z"/><path class="cls-64" d="M18.82,160.75c0,2.59-.92,4.93-2.78,6s-2.74-.38-2.75-2.76.89-4.89,2.79-6S18.82,158.44,18.82,160.75ZM15,163c0,1.93.4,2.62,1.06,2.24s1-1.55,1-3.47-.35-2.66-1-2.26S15,161,15,163Z"/><path class="cls-65" d="M27.18,155.92c0,2.59-.91,4.93-2.78,6s-2.74-.38-2.75-2.77.9-4.89,2.8-6S27.18,153.61,27.18,155.92Zm-3.81,2.25c0,1.94.41,2.62,1.07,2.24s1-1.55,1-3.47-.35-2.66-1-2.26S23.37,156.2,23.37,158.17Z"/><path class="cls-66" d="M52.28,141.43c0,2.6-.92,4.93-2.79,6s-2.73-.38-2.74-2.76.89-4.89,2.79-6S52.28,139.12,52.28,141.43Zm-3.81,2.25c0,1.94.4,2.62,1.06,2.25s1-1.56,1-3.48-.35-2.65-1-2.26S48.47,141.71,48.47,143.68Z"/><path class="cls-67" d="M35.55,151.09c0,2.6-.92,4.93-2.78,6S30,156.72,30,154.33s.89-4.89,2.79-6S35.55,148.78,35.55,151.09Zm-3.81,2.25c0,1.94.4,2.62,1.06,2.24s1-1.55,1-3.47-.35-2.66-1-2.26S31.74,151.37,31.74,153.34Z"/><path class="cls-68" d="M43.91,146.26c0,2.6-.91,4.93-2.78,6s-2.74-.38-2.75-2.76.89-4.9,2.8-6S43.91,144,43.91,146.26Zm-3.81,2.25c0,1.94.41,2.62,1.06,2.24s1-1.55,1-3.47-.35-2.65-1-2.26S40.1,146.54,40.1,148.51Z"/><path class="cls-69" d="M77.37,126.94c0,2.6-.92,4.93-2.78,6s-2.74-.38-2.75-2.76.89-4.89,2.79-6S77.37,124.63,77.37,126.94Zm-3.81,2.26c0,1.93.41,2.62,1.06,2.24s1-1.56,1-3.48-.35-2.65-1-2.25S73.56,127.22,73.56,129.2Z"/><path class="cls-70" d="M69,170c0,2.6-.92,4.93-2.79,6s-2.73-.38-2.75-2.76.9-4.89,2.8-6S69,167.65,69,170Zm-3.82,2.25c0,1.94.41,2.62,1.07,2.25s1-1.56,1-3.48-.35-2.65-1-2.26-1.06,1.48-1.06,3.45Z"/><path class="cls-71" d="M24.44,206h0L23,207.63l-.28-1.33,2-2.21,1.44-.83v8.58l-1.69,1Z"/><path class="cls-72" d="M32.81,201.19h0l-1.42,1.61-.29-1.34,2-2.21,1.44-.83V207l-1.69,1Z"/><path class="cls-73" d="M66.26,181.87h0l-1.43,1.6-.28-1.34,2-2.2L68,179.1v8.57l-1.69,1Z"/><path class="cls-74" d="M74.63,177.05h0l-1.42,1.6-.29-1.34,2-2.2,1.44-.83v8.57l-1.69,1Z"/><path class="cls-75" d="M74.63,164.25h0l-1.42,1.6-.29-1.34,2-2.2,1.44-.83v8.58l-1.69,1Z"/><path class="cls-76" d="M7.89,164h0l-1.43,1.6-.29-1.34,2-2.2,1.44-.83v8.57l-1.69,1Z"/><path class="cls-77" d="M7.89,176.82h0l-1.43,1.6-.29-1.34,2-2.2,1.44-.83v8.57l-1.69,1Z"/><path class="cls-78" d="M44.09,158.39c0,2.6-.92,4.93-2.78,6s-2.74-.38-2.75-2.76.89-4.9,2.79-6S44.09,156.08,44.09,158.39Zm-3.81,2.25c0,1.94.41,2.62,1.06,2.24s1-1.55,1-3.47-.35-2.66-1-2.26S40.28,158.67,40.28,160.64Z"/><path class="cls-79" d="M44.09,171.19c0,2.59-.92,4.93-2.78,6s-2.74-.38-2.75-2.76.89-4.89,2.79-6S44.09,168.88,44.09,171.19Zm-3.81,2.25c0,1.93.41,2.62,1.06,2.24s1-1.55,1-3.47-.35-2.66-1-2.26S40.28,171.47,40.28,173.44Z"/><path class="cls-80" d="M49.71,165.47h0l-1.43,1.6L48,165.75l2-2.2,1.43-.83v8.57l-1.69,1Z"/><path class="cls-81" d="M16.25,197.13h0l-1.42,1.6-.29-1.34,2-2.2,1.43-.83V203l-1.69,1Z"/><path class="cls-82" d="M49.71,177.81h0l-1.43,1.61L48,178.09l2-2.21,1.43-.83v8.58l-1.69,1Z"/><path class="cls-83" d="M27.36,193.64c0,2.6-.91,4.93-2.78,6s-2.74-.38-2.75-2.76.89-4.89,2.79-6S27.36,191.33,27.36,193.64Zm-3.81,2.26c0,1.93.41,2.62,1.06,2.24s1-1.56,1-3.48-.35-2.65-1-2.25S23.55,193.92,23.55,195.9Z"/><path class="cls-84" d="M10.63,216.1c0,2.6-.91,4.93-2.78,6s-2.74-.38-2.75-2.77.89-4.89,2.8-6S10.63,213.79,10.63,216.1Zm-3.81,2.25c0,1.94.41,2.62,1.06,2.24s1-1.55,1-3.47-.35-2.66-1-2.26S6.82,216.38,6.82,218.35Z"/></g><g class="cls-3"><path class="cls-85" d="M107.18,54.5h0l-1.43,1.6-.28-1.34,2-2.2,1.43-.83v8.58l-1.69,1Z"/><path class="cls-86" d="M115.55,49.67h0l-1.42,1.6-.29-1.34,2-2.2,1.44-.83v8.58l-1.69,1Z"/><path class="cls-87" d="M140.64,35.18h0l-1.43,1.61-.29-1.34,2-2.21,1.44-.83V41l-1.69,1Z"/><path class="cls-88" d="M157.37,25.52h0l-1.43,1.6-.29-1.34,2-2.2,1.44-.83v8.57l-1.69,1Z"/><path class="cls-89" d="M84.83,69.87c0,2.6-.91,4.93-2.78,6s-2.74-.38-2.75-2.77.89-4.89,2.79-6S84.83,67.56,84.83,69.87ZM81,72.12c0,1.94.41,2.62,1.06,2.24s1-1.55,1-3.47-.35-2.66-1-2.26S81,70.15,81,72.12Z"/><path class="cls-90" d="M101.56,60.21c0,2.6-.92,4.93-2.78,6S96,65.84,96,63.46s.89-4.89,2.79-6S101.56,57.9,101.56,60.21Zm-3.81,2.25c0,1.94.41,2.62,1.06,2.25s1-1.56,1-3.48-.35-2.65-1-2.26S97.75,60.49,97.75,62.46Z"/><path class="cls-91" d="M135,40.89c0,2.6-.92,4.93-2.78,6s-2.74-.38-2.75-2.76.89-4.89,2.79-6S135,38.58,135,40.89Zm-3.81,2.26c0,1.93.4,2.62,1.06,2.24s1-1.56,1-3.48-.35-2.65-1-2.25-1,1.51-1,3.49Z"/><path class="cls-92" d="M118.29,63.35c0,2.6-.92,4.93-2.78,6s-2.74-.38-2.75-2.76.89-4.9,2.79-6S118.29,61,118.29,63.35Zm-3.81,2.25c0,1.94.4,2.62,1.06,2.24s1-1.55,1-3.47-.35-2.65-1-2.26S114.48,63.63,114.48,65.6Z"/><path class="cls-93" d="M160.11,39.2c0,2.6-.91,4.93-2.78,6s-2.74-.38-2.75-2.76.89-4.89,2.79-6S160.11,36.89,160.11,39.2Zm-3.81,2.26c0,1.93.41,2.62,1.06,2.24s1-1.56,1-3.48-.35-2.65-1-2.25S156.3,39.48,156.3,41.46Z"/><path class="cls-94" d="M151.75,31.24c0,2.59-.92,4.92-2.79,6s-2.73-.38-2.74-2.76.89-4.89,2.79-6S151.75,28.92,151.75,31.24Zm-3.82,2.25c0,1.93.41,2.62,1.07,2.24s1-1.55,1-3.48-.35-2.65-1-2.25S147.93,31.52,147.93,33.49Z"/><path class="cls-95" d="M90.45,77h0L89,78.57l-.29-1.34,2-2.2,1.43-.83v8.57l-1.69,1Z"/><path class="cls-96" d="M98.82,72.12h0l-1.42,1.6-.29-1.34,2-2.2,1.44-.83v8.57l-1.69,1Z"/><path class="cls-97" d="M107.18,67.3h0l-1.43,1.6-.28-1.34,2-2.2,1.43-.83V73.1l-1.69,1Z"/><path class="cls-98" d="M140.64,48h0l-1.43,1.6-.29-1.34,2-2.2,1.44-.83V53.8l-1.69,1Z"/><path class="cls-99" d="M149,43.15h0l-1.42,1.6-.29-1.33,2-2.21,1.43-.83V49L149,50Z"/><path class="cls-100" d="M84.83,95.46c0,2.6-.91,4.93-2.78,6s-2.74-.38-2.75-2.76.89-4.89,2.79-6S84.83,93.15,84.83,95.46ZM81,97.72c0,1.93.41,2.62,1.06,2.24s1-1.56,1-3.48-.35-2.65-1-2.25S81,95.74,81,97.72Z"/><path class="cls-101" d="M93.2,90.64c0,2.59-.92,4.92-2.79,6s-2.73-.38-2.75-2.76.9-4.89,2.8-6S93.2,88.32,93.2,90.64Zm-3.82,2.25c0,1.93.41,2.62,1.07,2.24s1-1.56,1-3.48-.35-2.65-1-2.25S89.38,90.91,89.38,92.89Z"/><path class="cls-102" d="M118.29,76.15c0,2.59-.92,4.93-2.78,6s-2.74-.38-2.75-2.76.89-4.89,2.79-6S118.29,73.84,118.29,76.15Zm-3.81,2.25c0,1.93.4,2.62,1.06,2.24s1-1.55,1-3.47-.35-2.66-1-2.26S114.48,76.43,114.48,78.4Z"/><path class="cls-103" d="M126.65,71.32c0,2.59-.91,4.93-2.78,6s-2.74-.38-2.75-2.77.9-4.89,2.8-6S126.65,69,126.65,71.32Zm-3.81,2.25c0,1.94.41,2.62,1.06,2.24s1-1.55,1-3.47-.35-2.66-1-2.26S122.84,71.6,122.84,73.57Z"/><path class="cls-104" d="M143.38,61.66c0,2.6-.91,4.93-2.78,6s-2.74-.38-2.75-2.76.89-4.9,2.8-6S143.38,59.35,143.38,61.66Zm-3.81,2.25c0,1.94.41,2.62,1.06,2.24s1-1.55,1-3.47-.35-2.65-1-2.26S139.57,61.94,139.57,63.91Z"/><path class="cls-105" d="M101.56,98.6c0,2.6-.92,4.93-2.78,6S96,104.23,96,101.85s.89-4.89,2.79-6S101.56,96.29,101.56,98.6Zm-3.81,2.26c0,1.93.41,2.62,1.06,2.24s1-1.56,1-3.48-.35-2.65-1-2.25S97.75,98.88,97.75,100.86Z"/><path class="cls-106" d="M135,79.29c0,2.59-.92,4.93-2.78,6s-2.74-.38-2.75-2.76.89-4.89,2.79-6S135,77,135,79.29Zm-3.81,2.25c0,1.93.4,2.62,1.06,2.24s1-1.55,1-3.47-.35-2.66-1-2.26-1,1.52-1,3.49Z"/><path class="cls-107" d="M126.65,84.12c0,2.59-.91,4.93-2.78,6s-2.74-.38-2.75-2.76.9-4.89,2.8-6S126.65,81.81,126.65,84.12Zm-3.81,2.25c0,1.93.41,2.62,1.06,2.24s1-1.55,1-3.48-.35-2.65-1-2.25S122.84,84.4,122.84,86.37Z"/><path class="cls-108" d="M143.38,74.46c0,2.59-.91,4.93-2.78,6s-2.74-.38-2.75-2.76.89-4.89,2.8-6S143.38,72.15,143.38,74.46Zm-3.81,2.25c0,1.93.41,2.62,1.06,2.24s1-1.55,1-3.47-.35-2.66-1-2.26S139.57,74.74,139.57,76.71Z"/><path class="cls-109" d="M151.75,56.83c0,2.6-.92,4.93-2.79,6s-2.73-.38-2.74-2.76.89-4.89,2.79-6S151.75,54.52,151.75,56.83Zm-3.82,2.25c0,1.94.41,2.62,1.07,2.25s1-1.56,1-3.48-.35-2.65-1-2.26S147.93,57.11,147.93,59.08Z"/><path class="cls-110" d="M82.09,107.38h0L80.64,109l-.29-1.34,2-2.2,1.44-.83v8.58l-1.69,1Z"/><path class="cls-111" d="M107.18,92.89h0l-1.43,1.6-.28-1.33,2-2.21,1.43-.83V98.7l-1.69,1Z"/><path class="cls-112" d="M115.55,88.06h0l-1.42,1.61-.29-1.34,2-2.21,1.44-.83v8.58l-1.69,1Z"/><path class="cls-113" d="M149,68.74h0l-1.42,1.6L147.27,69l2-2.2L150.7,66v8.57l-1.69,1Z"/><path class="cls-114" d="M157.37,63.92h0l-1.43,1.6-.29-1.34,2-2.2,1.44-.83v8.57l-1.69,1Z"/><path class="cls-115" d="M157.37,51.12h0l-1.43,1.6-.29-1.34,2-2.2,1.44-.83v8.58l-1.69,1Z"/><path class="cls-116" d="M90.63,63.69h0l-1.43,1.6L88.9,64l2-2.2L92.34,61v8.57l-1.69,1Z"/><path class="cls-117" d="M126.83,45.26c0,2.6-.91,4.93-2.78,6s-2.74-.38-2.75-2.76.89-4.9,2.79-6S126.83,43,126.83,45.26ZM123,47.51c0,1.94.41,2.62,1.06,2.24s1-1.55,1-3.47-.35-2.65-1-2.26S123,45.54,123,47.51Z"/><path class="cls-118" d="M85,82.2c0,2.6-.92,4.93-2.78,6s-2.74-.38-2.75-2.76.89-4.89,2.79-6S85,79.89,85,82.2Zm-3.8,2.26c0,1.93.4,2.62,1.06,2.24s1-1.56,1-3.48-.35-2.65-1-2.25S81.2,82.48,81.2,84.46Z"/><path class="cls-119" d="M126.83,58.06c0,2.59-.91,4.93-2.78,6s-2.74-.38-2.75-2.76.89-4.89,2.79-6S126.83,55.75,126.83,58.06ZM123,60.31c0,1.93.41,2.62,1.06,2.24s1-1.55,1-3.47-.35-2.66-1-2.26S123,58.34,123,60.31Z"/><path class="cls-120" d="M132.45,52.34h0L131,54l-.28-1.34,2-2.2,1.43-.83V58.2l-1.69,1Z"/><path class="cls-121" d="M99,84h0l-1.42,1.6-.29-1.34,2-2.2,1.44-.83v8.58l-1.69,1Z"/><path class="cls-122" d="M132.45,64.68h0L131,66.3l-.28-1.3,2-2.21,1.43-.83V70.5l-1.69,1Z"/><path class="cls-123" d="M110.1,80.51c0,2.6-.91,4.93-2.78,6s-2.74-.38-2.75-2.76.89-4.89,2.8-6S110.1,78.2,110.1,80.51Zm-3.81,2.26c0,1.93.41,2.62,1.06,2.24s1-1.56,1-3.48-.35-2.65-1-2.25S106.29,80.79,106.29,82.77Z"/><path class="cls-124" d="M93.37,103c0,2.6-.91,4.93-2.78,6s-2.74-.38-2.75-2.77.9-4.89,2.8-6S93.37,100.66,93.37,103Zm-3.81,2.25c0,1.94.41,2.62,1.07,2.24s1-1.55,1-3.47-.35-2.66-1-2.26-1.07,1.49-1.07,3.46Z"/></g><g class="cls-3"><path class="cls-125" d="M82.09,121.13h0l-1.43,1.6-.29-1.34,2-2.2,1.44-.83V127l-1.69,1Z"/><path class="cls-126" d="M140.64,87.33h0l-1.43,1.6-.29-1.33,2-2.21,1.44-.83v8.58l-1.69,1Z"/><path class="cls-127" d="M149,82.5h0l-1.42,1.6-.29-1.33,2-2.21,1.43-.83v8.58l-1.69,1Z"/><path class="cls-128" d="M107.18,119.44h0l-1.43,1.6-.28-1.34,2-2.2,1.43-.83v8.57l-1.69,1Z"/><path class="cls-129" d="M115.55,114.61h0l-1.42,1.6-.29-1.34,2-2.2,1.44-.83v8.57l-1.69,1Z"/><path class="cls-130" d="M140.64,100.13h0l-1.43,1.6-.29-1.34,2-2.2,1.44-.83v8.57l-1.69,1Z"/><path class="cls-131" d="M157.37,90.47h0l-1.43,1.6-.29-1.34,2-2.2,1.44-.83v8.58l-1.69,1Z"/><path class="cls-132" d="M84.83,134.81c0,2.6-.91,4.93-2.78,6s-2.74-.38-2.75-2.76.89-4.89,2.79-6S84.83,132.5,84.83,134.81ZM81,137.07c0,1.93.41,2.62,1.06,2.24s1-1.56,1-3.48-.35-2.65-1-2.25S81,135.09,81,137.07Z"/><path class="cls-133" d="M101.56,125.16c0,2.59-.92,4.93-2.78,6S96,130.78,96,128.4s.89-4.89,2.79-6S101.56,122.85,101.56,125.16Zm-3.81,2.25c0,1.93.41,2.62,1.06,2.24s1-1.55,1-3.48-.35-2.65-1-2.25S97.75,125.44,97.75,127.41Z"/><path class="cls-134" d="M135,105.84c0,2.6-.92,4.93-2.78,6s-2.74-.38-2.75-2.76.89-4.9,2.79-6S135,103.53,135,105.84Zm-3.81,2.25c0,1.94.4,2.62,1.06,2.24s1-1.55,1-3.47-.35-2.66-1-2.26-1,1.52-1,3.49Z"/><path class="cls-135" d="M118.29,128.3c0,2.59-.92,4.92-2.78,6s-2.74-.38-2.75-2.76.89-4.89,2.79-6S118.29,126,118.29,128.3Zm-3.81,2.25c0,1.93.4,2.62,1.06,2.24s1-1.55,1-3.48-.35-2.65-1-2.25S114.48,128.57,114.48,130.55Z"/><path class="cls-136" d="M160.11,104.15c0,2.6-.91,4.93-2.78,6s-2.74-.38-2.75-2.77.89-4.89,2.79-6S160.11,101.84,160.11,104.15Zm-3.81,2.25c0,1.94.41,2.62,1.06,2.24s1-1.55,1-3.47-.35-2.66-1-2.26S156.3,104.43,156.3,106.4Z"/><path class="cls-137" d="M151.75,96.18c0,2.6-.92,4.93-2.79,6s-2.73-.38-2.74-2.76.89-4.89,2.79-6S151.75,93.87,151.75,96.18Zm-3.82,2.25c0,1.94.41,2.62,1.07,2.25s1-1.56,1-3.48-.35-2.65-1-2.26S147.93,96.46,147.93,98.43Z"/><path class="cls-138" d="M90.45,141.9h0L89,143.51l-.29-1.33,2-2.21,1.43-.83v8.58l-1.69,1Z"/><path class="cls-139" d="M98.82,137.07h0l-1.42,1.6-.29-1.33,2-2.21,1.44-.83v8.58l-1.69,1Z"/><path class="cls-140" d="M107.18,132.24h0l-1.43,1.61-.28-1.34,2-2.21,1.43-.83v8.58l-1.69,1Z"/><path class="cls-141" d="M140.64,112.92h0l-1.43,1.6-.29-1.34,2-2.2,1.44-.83v8.57l-1.69,1Z"/><path class="cls-142" d="M149,108.09h0l-1.42,1.6-.29-1.34,2-2.2,1.43-.83v8.57l-1.69,1Z"/><path class="cls-143" d="M84.83,160.41c0,2.6-.91,4.93-2.78,6s-2.74-.38-2.75-2.76.89-4.9,2.79-6S84.83,158.1,84.83,160.41ZM81,162.66c0,1.94.41,2.62,1.06,2.24s1-1.55,1-3.47-.35-2.66-1-2.26S81,160.69,81,162.66Z"/><path class="cls-144" d="M93.2,155.58c0,2.6-.92,4.93-2.79,6s-2.73-.38-2.75-2.76.9-4.89,2.8-6S93.2,153.27,93.2,155.58Zm-3.82,2.25c0,1.94.41,2.62,1.07,2.25s1-1.56,1-3.48-.35-2.65-1-2.26S89.38,155.86,89.38,157.83Z"/><path class="cls-145" d="M118.29,141.09c0,2.6-.92,4.93-2.78,6s-2.74-.38-2.75-2.76.89-4.89,2.79-6S118.29,138.78,118.29,141.09Zm-3.81,2.26c0,1.93.4,2.62,1.06,2.24s1-1.56,1-3.48-.35-2.65-1-2.25-1.06,1.51-1.06,3.49Z"/><path class="cls-146" d="M126.65,136.26c0,2.6-.91,4.93-2.78,6s-2.74-.38-2.75-2.76.9-4.89,2.8-6S126.65,134,126.65,136.26Zm-3.81,2.26c0,1.93.41,2.62,1.06,2.24s1-1.56,1-3.48-.35-2.65-1-2.25-1.06,1.51-1.06,3.49Z"/><path class="cls-147" d="M143.38,126.61c0,2.59-.91,4.92-2.78,6s-2.74-.38-2.75-2.76.89-4.89,2.8-6S143.38,124.29,143.38,126.61Zm-3.81,2.25c0,1.93.41,2.62,1.06,2.24s1-1.55,1-3.48-.35-2.65-1-2.25S139.57,126.88,139.57,128.86Z"/><path class="cls-148" d="M101.56,163.55c0,2.59-.92,4.93-2.78,6S96,169.18,96,166.79s.89-4.89,2.79-6S101.56,161.24,101.56,163.55Zm-3.81,2.25c0,1.94.41,2.62,1.06,2.24s1-1.55,1-3.47-.35-2.66-1-2.26S97.75,163.83,97.75,165.8Z"/><path class="cls-149" d="M135,144.23c0,2.6-.92,4.93-2.78,6s-2.74-.38-2.75-2.76.89-4.89,2.79-6S135,141.92,135,144.23Zm-3.81,2.25c0,1.94.4,2.63,1.06,2.25s1-1.56,1-3.48-.35-2.65-1-2.25-1,1.51-1,3.48Z"/><path class="cls-150" d="M126.65,149.06c0,2.6-.91,4.93-2.78,6s-2.74-.38-2.75-2.76.9-4.89,2.8-6S126.65,146.75,126.65,149.06Zm-3.81,2.25c0,1.94.41,2.62,1.06,2.25s1-1.56,1-3.48-.35-2.65-1-2.26S122.84,149.34,122.84,151.31Z"/><path class="cls-151" d="M143.38,139.4c0,2.6-.91,4.93-2.78,6s-2.74-.38-2.75-2.76.89-4.89,2.8-6S143.38,137.09,143.38,139.4Zm-3.81,2.26c0,1.93.41,2.62,1.06,2.24s1-1.56,1-3.48-.35-2.65-1-2.25-1.06,1.51-1.06,3.49Z"/><path class="cls-152" d="M101.56,112.56c0,2.6-.92,4.93-2.78,6S96,118.19,96,115.81s.89-4.89,2.79-6S101.56,110.25,101.56,112.56Zm-3.81,2.26c0,1.93.41,2.62,1.06,2.24s1-1.56,1-3.48-.35-2.65-1-2.25S97.75,112.84,97.75,114.82Z"/><path class="cls-153" d="M109.92,107.73c0,2.6-.91,4.93-2.78,6s-2.74-.38-2.75-2.76.9-4.89,2.8-6S109.92,105.42,109.92,107.73ZM106.11,110c0,1.93.41,2.62,1.07,2.24s1-1.56,1-3.48-.36-2.65-1-2.25S106.11,108,106.11,110Z"/><path class="cls-154" d="M135,93.25c0,2.59-.92,4.93-2.78,6s-2.74-.38-2.75-2.76.89-4.89,2.79-6S135,90.94,135,93.25Zm-3.81,2.25c0,1.93.4,2.62,1.06,2.24s1-1.55,1-3.48-.35-2.65-1-2.25-1,1.52-1,3.49Z"/><path class="cls-155" d="M118.29,102.9c0,2.6-.92,4.93-2.78,6s-2.74-.38-2.75-2.76.89-4.89,2.79-6S118.29,100.59,118.29,102.9Zm-3.81,2.26c0,1.93.4,2.62,1.06,2.24s1-1.56,1-3.48-.35-2.65-1-2.25S114.48,103.18,114.48,105.16Z"/><path class="cls-156" d="M126.65,98.08c0,2.59-.91,4.92-2.78,6s-2.74-.38-2.75-2.76.9-4.89,2.8-6S126.65,95.76,126.65,98.08Zm-3.81,2.25c0,1.93.41,2.62,1.06,2.24s1-1.55,1-3.48-.35-2.65-1-2.25S122.84,98.35,122.84,100.33Z"/><path class="cls-157" d="M160.11,78.76c0,2.59-.91,4.93-2.78,6s-2.74-.38-2.75-2.77.89-4.89,2.79-6S160.11,76.45,160.11,78.76ZM156.3,81c0,1.94.41,2.62,1.06,2.24s1-1.55,1-3.47-.35-2.66-1-2.26S156.3,79,156.3,81Z"/><path class="cls-158" d="M151.75,121.78c0,2.59-.92,4.93-2.79,6s-2.73-.38-2.74-2.76.89-4.89,2.79-6S151.75,119.47,151.75,121.78ZM147.93,124c0,1.93.41,2.62,1.07,2.24s1-1.55,1-3.48-.35-2.65-1-2.25S147.93,122.06,147.93,124Z"/><path class="cls-159" d="M82.09,172.32h0l-1.43,1.6-.29-1.34,2-2.2,1.44-.83v8.57l-1.69,1Z"/><path class="cls-160" d="M107.18,157.84h0l-1.43,1.6-.28-1.34,2-2.2,1.43-.83v8.57l-1.69,1Z"/><path class="cls-161" d="M115.55,153h0l-1.42,1.6-.29-1.34,2-2.2,1.44-.83v8.57l-1.69,1Z"/><path class="cls-162" d="M149,133.69h0l-1.42,1.6-.29-1.33,2-2.21,1.43-.83v8.58l-1.69,1Z"/><path class="cls-163" d="M157.37,128.86h0l-1.43,1.61-.29-1.34,2-2.21,1.44-.83v8.58l-1.69,1Z"/><path class="cls-164" d="M157.37,116.06h0l-1.43,1.6-.29-1.34,2-2.2,1.44-.83v8.57l-1.69,1Z"/><path class="cls-165" d="M90.63,115.84h0l-1.43,1.6-.28-1.33,2-2.21,1.44-.83v8.58l-1.69,1Z"/><path class="cls-166" d="M90.63,128.64h0l-1.43,1.6-.28-1.34,2-2.2,1.44-.83v8.58l-1.69,1Z"/><path class="cls-167" d="M126.83,110.21c0,2.59-.91,4.92-2.78,6s-2.74-.38-2.75-2.76.89-4.89,2.79-6S126.83,107.89,126.83,110.21ZM123,112.46c0,1.93.41,2.62,1.06,2.24s1-1.56,1-3.48-.35-2.65-1-2.25S123,110.48,123,112.46Z"/><path class="cls-168" d="M85,147.15c0,2.59-.92,4.93-2.78,6s-2.74-.38-2.75-2.77.89-4.89,2.79-6S85,144.84,85,147.15Zm-3.8,2.25c0,1.94.4,2.62,1.06,2.24s1-1.55,1-3.47-.35-2.66-1-2.26S81.2,147.43,81.2,149.4Z"/><path class="cls-169" d="M126.83,123c0,2.6-.91,4.93-2.78,6s-2.74-.38-2.75-2.76.89-4.89,2.79-6S126.83,120.69,126.83,123ZM123,125.26c0,1.93.41,2.62,1.06,2.24s1-1.56,1-3.48-.35-2.65-1-2.25S123,123.28,123,125.26Z"/><path class="cls-170" d="M132.45,117.29h0L131,118.9l-.28-1.33,2-2.21,1.43-.83v8.58l-1.69,1Z"/><path class="cls-171" d="M99,148.94h0l-1.42,1.6-.29-1.34,2-2.2,1.44-.83v8.57l-1.69,1Z"/><path class="cls-172" d="M132.45,129.63h0l-1.43,1.6-.28-1.34,2-2.2,1.43-.83v8.57l-1.69,1Z"/><path class="cls-173" d="M110.1,145.46c0,2.59-.91,4.93-2.78,6s-2.74-.38-2.75-2.77.89-4.89,2.8-6S110.1,143.15,110.1,145.46Zm-3.81,2.25c0,1.94.41,2.62,1.06,2.24s1-1.55,1-3.47-.35-2.66-1-2.26S106.29,145.74,106.29,147.71Z"/><path class="cls-174" d="M93.37,167.91c0,2.6-.91,4.93-2.78,6s-2.74-.38-2.75-2.76.9-4.89,2.8-6S93.37,165.6,93.37,167.91Zm-3.81,2.26c0,1.93.41,2.62,1.07,2.24s1-1.56,1-3.48-.35-2.65-1-2.25S89.56,168.19,89.56,170.17Z"/></g></g><polygon class="cls-175" points="67.17 121.15 96.04 117.14 116.01 157.98 151.78 134.53 74.27 210.63 122.08 235.55 152.8 208.75 150.31 170.44 192.07 161.13 179.65 131.99 71.24 170.89 64.13 220.31 119.05 186.14 207.2 186.98 194.03 120.06 151.78 84 67.17 121.15"/><polyline class="cls-175" points="122.08 234.49 71.24 170.89 67.17 121.15 207.2 186.98 116.01 157.98 150.31 170.44 179.65 131.99 64.13 220.31 152.8 208.75 194.03 120.06 96.04 117.14 151.78 84 151.78 134.53 119.05 186.14"/><polygon class="cls-176" points="173.57 55.05 111.94 84.82 179.65 131.99 151.78 134.53 150.31 170.44 219.06 92.02 207.2 186.98 88.45 254.05 64.13 220.31 54.95 143.77 116.01 157.98 49.59 202.03 152.8 208.75 96.04 117.14 173.57 55.05"/><polygon class="cls-176" points="173.57 55.05 219.06 92.02 151.78 84 194.03 120.06 173.57 55.05"/><circle class="cls-177" cx="122.08" cy="234.49" r="6.07"/><circle class="cls-178" cx="122.08" cy="234.49" r="6.07"/><circle class="cls-179" cx="64.13" cy="220.3" r="6.07"/><circle class="cls-178" cx="64.13" cy="220.3" r="6.07"/><circle class="cls-180" cx="71.24" cy="170.89" r="6.07"/><circle class="cls-178" cx="71.24" cy="170.89" r="6.07"/><circle class="cls-181" cx="88.45" cy="254.05" r="6.07"/><circle class="cls-178" cx="88.45" cy="254.05" r="6.07"/><circle class="cls-182" cx="150.31" cy="170.44" r="6.07"/><circle class="cls-178" cx="150.31" cy="170.44" r="6.07"/><circle class="cls-183" cx="152.8" cy="208.75" r="6.07"/><circle class="cls-178" cx="152.8" cy="208.75" r="6.07"/><circle class="cls-184" cx="116.01" cy="157.98" r="6.07"/><circle class="cls-178" cx="116.01" cy="157.98" r="6.07"/><g class="cls-185"><circle class="cls-186" cx="151.78" cy="134.53" r="4.55"/><circle class="cls-187" cx="151.78" cy="134.53" r="4.55"/></g><g class="cls-185"><circle class="cls-188" cx="119.05" cy="186.14" r="4.55"/><circle class="cls-187" cx="119.05" cy="186.14" r="4.55"/></g><g class="cls-185"><circle class="cls-189" cx="74.27" cy="210.63" r="4.55"/><circle class="cls-187" cx="74.27" cy="210.63" r="4.55"/></g><g class="cls-185"><circle class="cls-190" cx="49.59" cy="202.03" r="4.55"/><circle class="cls-187" cx="49.59" cy="202.03" r="4.55"/></g><g class="cls-185"><circle class="cls-191" cx="96.04" cy="117.14" r="4.55"/><circle class="cls-187" cx="96.04" cy="117.14" r="4.55"/></g><g class="cls-185"><circle class="cls-192" cx="54.95" cy="143.77" r="4.55"/><circle class="cls-187" cx="54.95" cy="143.77" r="4.55"/></g><g class="cls-185"><circle class="cls-193" cx="67.17" cy="121.15" r="4.55"/><circle class="cls-187" cx="67.17" cy="121.15" r="4.55"/></g><g class="cls-185"><circle class="cls-194" cx="194.03" cy="120.06" r="4.55"/><circle class="cls-187" cx="194.03" cy="120.06" r="4.55"/></g><g class="cls-185"><circle class="cls-195" cx="173.57" cy="55.05" r="4.55"/><circle class="cls-187" cx="173.57" cy="55.05" r="4.55"/></g><g class="cls-185"><circle class="cls-196" cx="112.9" cy="84.92" r="4.55"/><circle class="cls-187" cx="112.9" cy="84.92" r="4.55"/></g><g class="cls-185"><circle class="cls-197" cx="192.07" cy="161.13" r="4.55"/><circle class="cls-187" cx="192.07" cy="161.13" r="4.55"/></g><circle class="cls-198" cx="179.65" cy="131.99" r="6.07"/><circle class="cls-178" cx="179.65" cy="131.99" r="6.07"/><circle class="cls-199" cx="151.78" cy="84" r="6.07"/><circle class="cls-178" cx="151.78" cy="84" r="6.07"/><circle class="cls-200" cx="219.06" cy="92.02" r="6.07"/><circle class="cls-178" cx="219.06" cy="92.02" r="6.07"/><circle class="cls-201" cx="207.2" cy="186.98" r="6.07"/><circle class="cls-178" cx="207.2" cy="186.98" r="6.07"/><path class="cls-202" d="M88.12,268.07,33.59,237a2.35,2.35,0,0,1-1.18-2l.28-114.9,55.43,31.8Z"/><path class="cls-202" d="M231.92,68.88l-56-31a4.19,4.19,0,0,0-4.17,0L32.75,120,88.12,151.9V268.07l143.8-83Z"/><polygon class="cls-203" points="88.12 151.9 88.12 268.07 231.92 185.05 231.92 68.88 88.12 151.9"/><line class="cls-204" x1="91.88" y1="153.57" x2="91.89" y2="153.58"/><line class="cls-205" x1="96.5" y1="156.29" x2="126.58" y2="173.93"/><line class="cls-204" x1="128.89" y1="175.28" x2="128.9" y2="175.29"/><line class="cls-204" x1="91.88" y1="269.87" x2="91.89" y2="269.87"/><line class="cls-206" x1="96.15" y1="272.32" x2="128.24" y2="290.74"/><line class="cls-204" x1="130.38" y1="291.97" x2="130.38" y2="291.97"/><polyline class="cls-207" points="32.98 120.22 88.12 151.9 124.45 130.93"/><line class="cls-207" x1="88.12" y1="191.92" x2="88.12" y2="151.9"/><path class="cls-207" d="M231.92,114.71V69.64a1.22,1.22,0,0,0-.68-1.1l-55.35-30.7a4.24,4.24,0,0,0-4.17,0l-27.13,16"/><path class="cls-207" d="M49.62,110l-15.84,9.4a2.22,2.22,0,0,0-1.09,1.92L32.41,235a2.35,2.35,0,0,0,1.18,2L86.2,267a3.84,3.84,0,0,0,3.8,0l45.05-26"/><line class="cls-207" x1="88.12" y1="266.88" x2="88.12" y2="240.57"/><line class="cls-207" x1="88.12" y1="236.04" x2="88.12" y2="231.82"/><path class="cls-208" d="M274.73,212.14l-1.66,1,.45-.28a2.35,2.35,0,0,0,1.17-2l-.24-114.25a1.38,1.38,0,0,0-1.4-1.38,1.36,1.36,0,0,0-.68.18L134.37,175a2.76,2.76,0,0,0-1.38,2.37,2.61,2.61,0,0,0-.29,1.19l.56,120.54a1.41,1.41,0,0,0,.69,1.21l97.58,56.36a4.18,4.18,0,0,0,4.16,0L374.38,276.6a1.39,1.39,0,0,0,.7-1.2v-5.3Z"/><path class="cls-209" d="M274.73,212.14l100.35,58v5.3a1.39,1.39,0,0,1-.7,1.2l-138.69,80a4.18,4.18,0,0,1-4.16,0L134,300.32a1.41,1.41,0,0,1-.69-1.21v-5.29Z"/><path class="cls-209" d="M274.73,212.14l100.35,58v5.3a1.39,1.39,0,0,1-.7,1.2l-138.69,80a4.18,4.18,0,0,1-4.16,0L134,300.32a1.41,1.41,0,0,1-.69-1.21v-5.29Z"/><path class="cls-210" d="M274.73,212.14l100.35,58v5.3a1.39,1.39,0,0,1-.7,1.2l-138.69,80a4.18,4.18,0,0,1-4.16,0L134,300.32a1.41,1.41,0,0,1-.69-1.21v-5.29Z"/><path class="cls-1" d="M274.73,212.14l100.35,58v5.3a1.39,1.39,0,0,1-.7,1.2l-138.69,80a4.18,4.18,0,0,1-4.16,0L134,300.32a1.41,1.41,0,0,1-.69-1.21v-5.29Z"/><polygon class="cls-211" points="133.26 293.82 233.61 351.78 375.08 270.1 274.73 212.14 133.26 293.82"/><path class="cls-210" d="M165.68,277.61,168,279a2.79,2.79,0,0,0,2.77,0l85.59-49.42a1.39,1.39,0,0,0,.52-1.88,1.3,1.3,0,0,0-.52-.52l-1.63-.94Z"/><path class="cls-212" d="M158.92,294.86,277.5,226.39a2.81,2.81,0,0,1,2.78,0L317,247.61a1.39,1.39,0,0,1,.49,1.92,1.44,1.44,0,0,1-.49.49L198.42,318.48a2.75,2.75,0,0,1-2.77,0l-36.73-21.22a1.39,1.39,0,0,1-.52-1.88A1.3,1.3,0,0,1,158.92,294.86Z"/><path class="cls-212" d="M242.75,303.48l40.56-23.23a2.77,2.77,0,0,1,2.76,0L313,295.73a1.39,1.39,0,0,1,0,2.41l-40.56,23.23a2.77,2.77,0,0,1-2.76,0l-26.9-15.48a1.39,1.39,0,0,1-.54-1.89A1.41,1.41,0,0,1,242.75,303.48Z"/><path class="cls-213" d="M158.92,294.86,277.5,226.39a2.81,2.81,0,0,1,2.78,0L317,247.61a1.39,1.39,0,0,1,.49,1.92,1.44,1.44,0,0,1-.49.49L198.42,318.48a2.75,2.75,0,0,1-2.77,0l-36.73-21.22a1.39,1.39,0,0,1-.52-1.88A1.3,1.3,0,0,1,158.92,294.86Z"/><path class="cls-213" d="M242.75,303.48l40.56-23.23a2.77,2.77,0,0,1,2.76,0L313,295.73a1.39,1.39,0,0,1,0,2.41l-40.56,23.23a2.77,2.77,0,0,1-2.76,0l-26.9-15.48a1.39,1.39,0,0,1-.54-1.89A1.41,1.41,0,0,1,242.75,303.48Z"/><polyline class="cls-214" points="133.23 293.82 233.61 351.78 375.08 270.1"/><path class="cls-215" d="M272.78,96.3a1.39,1.39,0,0,1,1.39,1.39h0l.24,112.67a2.39,2.39,0,0,1-1.17,2l-140,81.42-.56-115.25a2.79,2.79,0,0,1,1.39-2.41l138-79.67a1.4,1.4,0,0,1,.69-.19m0-2.48a3.85,3.85,0,0,0-1.93.52l-138,79.7a5.26,5.26,0,0,0-2.63,4.56l.56,115.26a2.49,2.49,0,0,0,2.49,2.47,2.46,2.46,0,0,0,1.24-.34l140-81.42a4.8,4.8,0,0,0,2.41-4.19l-.24-112.66a3.87,3.87,0,0,0-3.87-3.87Z"/><path class="cls-212" d="M141,180.9,267.24,108l.24,99.68-127.6,73.67-.24-98.08A2.79,2.79,0,0,1,141,180.9Z"/><line class="cls-204" x1="235.12" y1="72.11" x2="235.13" y2="72.12"/><line class="cls-216" x1="239.34" y1="74.59" x2="266.83" y2="90.71"/><line class="cls-204" x1="268.93" y1="91.95" x2="268.94" y2="91.95"/><path class="cls-210" d="M134.05,295.66l1.77,1-2.56,1v-1.55a.54.54,0,0,1,.54-.52A.55.55,0,0,1,134.05,295.66Z"/><path class="cls-215" d="M274.69,214.25a3.3,3.3,0,0,1,3.19-.29l1.1-1-3.11-1.07Z"/><line class="cls-207" x1="127.76" y1="129.02" x2="132.7" y2="126.16"/><path class="cls-217" d="M319.8,153.4c-6.11-3.53-11.67-4.06-15.84-2.09l-10.31,6h0c-4,2.52-6.47,7.62-6.47,14.81,0,14.87,10.51,33,23.47,40.47,6.73,3.89,12.11,4,17.08,1.38h0l10.16-6.08c3.35-2.73,5.36-7.53,5.36-14C343.26,179,332.76,160.88,319.8,153.4Z"/><path class="cls-211" d="M319.8,153.4c-6.11-3.53-11.67-4.06-15.84-2.09l-9.66,5.62c4.23-2.27,10-1.85,16.35,1.82,13,7.48,23.46,25.6,23.46,40.47,0,7.13-2.43,12.21-6.38,14.75h0l10.16-6.08c3.35-2.73,5.36-7.53,5.36-14C343.26,179,332.76,160.88,319.8,153.4Z"/><path class="cls-218" d="M319.8,153.4c-6.11-3.53-11.67-4.06-15.84-2.09l-9.66,5.62c4.23-2.27,10-1.85,16.35,1.82,13,7.48,23.46,25.6,23.46,40.47,0,7.13-2.43,12.21-6.38,14.75h0l10.16-6.08c3.35-2.73,5.36-7.53,5.36-14C343.26,179,332.76,160.88,319.8,153.4Z"/><g class="cls-219"><path class="cls-220" d="M319.83,153.36c-6.11-3.53-11.67-4.06-15.85-2.08l-9.65,5.61c4.22-2.27,10-1.85,16.34,1.82,13,7.48,23.46,25.6,23.46,40.47,0,7.13-2.42,12.22-6.37,14.75h0l10.17-6.08c3.35-2.72,5.36-7.53,5.36-14C343.29,179,332.78,160.84,319.83,153.36Z"/></g><path class="cls-218" d="M319.83,153.36c-6.11-3.53-11.67-4.06-15.85-2.08l-9.65,5.61c4.22-2.27,10-1.85,16.34,1.82,13,7.48,23.46,25.6,23.46,40.47,0,7.13-2.42,12.22-6.37,14.75h0l10.17-6.08c3.35-2.72,5.36-7.53,5.36-14C343.29,179,332.78,160.84,319.83,153.36Z"/><path class="cls-218" d="M319.8,153.4c-6.11-3.53-11.67-4.06-15.84-2.09l-10.31,6h0c-4,2.52-6.47,7.62-6.47,14.81,0,14.87,10.51,33,23.47,40.47,6.73,3.89,12.11,4,17.08,1.38h0l10.16-6.08c3.35-2.73,5.36-7.53,5.36-14C343.26,179,332.76,160.88,319.8,153.4Z"/><path class="cls-221" d="M321.9,169.24a43.39,43.39,0,0,0-11.25-10.06v26Z"/><line class="cls-222" x1="310.65" y1="158.75" x2="310.65" y2="165.7"/><line class="cls-222" x1="310.65" y1="205.64" x2="310.65" y2="212.59"/><line class="cls-222" x1="334.11" y1="199.22" x2="328.05" y2="195.72"/><line class="cls-222" x1="293.24" y1="175.62" x2="287.18" y2="172.12"/><line class="cls-222" x1="298.91" y1="155.58" x2="301.94" y2="163.35"/><line class="cls-222" x1="319.35" y1="207.99" x2="322.38" y2="215.76"/><line class="cls-222" x1="330.96" y1="183.94" x2="325.72" y2="184.39"/><line class="cls-222" x1="295.57" y1="186.95" x2="290.33" y2="187.4"/><line class="cls-222" x1="296.15" y1="166.79" x2="290.88" y2="160.16"/><line class="cls-222" x1="325.72" y1="204.36" x2="330.96" y2="210.86"/><line class="cls-222" x1="322.38" y1="169.13" x2="319.35" y2="173.4"/><line class="cls-222" x1="301.94" y1="197.94" x2="298.91" y2="202.21"/><ellipse class="cls-223" cx="310.65" cy="185.67" rx="1.86" ry="3.22" transform="matrix(0.86, -0.5, 0.5, 0.86, -51.24, 182.16)"/><path class="cls-224" d="M287.18,172.12c0-14.86,10.51-20.85,23.47-13.37s23.46,25.6,23.46,40.47-10.51,20.85-23.46,13.37"/><path class="cls-225" d="M316,148.86v5.58h0a1.87,1.87,0,0,1-1.11,1.57,6,6,0,0,1-5.44,0,1.91,1.91,0,0,1-1.13-1.56h0v-5.58Z"/><path class="cls-225" d="M317.28,145.74a11.29,11.29,0,0,1-10.28,0,3.66,3.66,0,0,1-2.15-3,3.6,3.6,0,0,1,2.12-3,11.33,11.33,0,0,1,10.27,0,3.65,3.65,0,0,1,2.15,3A3.57,3.57,0,0,1,317.28,145.74Z"/><path class="cls-226" d="M319.39,142.77V148a3.58,3.58,0,0,1-2.11,3A11.42,11.42,0,0,1,307,151a3.69,3.69,0,0,1-2.15-3v-5.18h0a3.66,3.66,0,0,0,2.15,3,11.29,11.29,0,0,0,10.28,0A3.58,3.58,0,0,0,319.39,142.77Z"/><path class="cls-227" d="M336.17,174.09l-3.86,2.39h0a1.56,1.56,0,0,1-1.56-.1,4.88,4.88,0,0,1-2.32-3.76,1.55,1.55,0,0,1,.59-1.46h0l3.86-2.38Z"/><path class="cls-227" d="M338.88,173.66a9.27,9.27,0,0,1-4.39-7.11,3,3,0,0,1,1.13-2.75,2.89,2.89,0,0,1,3,.19A9.23,9.23,0,0,1,343,171.1a3,3,0,0,1-1.13,2.74A2.9,2.9,0,0,1,338.88,173.66Z"/><path class="cls-228" d="M341.84,173.84l-3.58,2.22a2.92,2.92,0,0,1-3-.18,9.27,9.27,0,0,1-4.39-7.11A3,3,0,0,1,332,166l3.58-2.22h0a3,3,0,0,0-1.13,2.75,9.27,9.27,0,0,0,4.39,7.11,2.92,2.92,0,0,0,3,.18Z"/><path class="cls-229" d="M310.93,183.25c.15-.2,7-8.37,7-8.37l-6,9.28Z"/><line class="cls-207" x1="230.87" y1="69.49" x2="214.53" y2="78.92"/><path class="cls-211" d="M273.52,212.82l-140.29,81L133,177.41a2.73,2.73,0,0,1,1.38-2.4l138-79.68a1.39,1.39,0,0,1,1.9.52,1.33,1.33,0,0,1,.18.68l.24,114.25A2.36,2.36,0,0,1,273.52,212.82Z"/><path class="cls-212" d="M141,180.92l126.22-72.86.24,99a1.19,1.19,0,0,1-.59,1l-127,73.33-.24-98A2.81,2.81,0,0,1,141,180.92Z"/><path class="cls-213" d="M141,180.92l126.22-72.86.24,99a1.19,1.19,0,0,1-.59,1l-127,73.33-.24-98A2.81,2.81,0,0,1,141,180.92Z"/><polygon class="cls-230" points="203.44 158.61 209.04 159.09 215.51 155.35 218.75 159.92 224.35 160.4 224.35 167.82 227.59 172.38 224.35 180.69 224.35 188.11 218.75 195.06 215.51 203.36 209.04 207.1 203.44 214.05 197.83 213.57 191.36 217.31 188.12 212.74 182.52 212.26 182.52 204.84 179.28 200.28 182.52 191.98 182.52 184.55 188.12 177.6 191.36 169.3 197.83 165.56 203.44 158.61"/><path class="cls-211" d="M201.57,203.85V200a12.8,12.8,0,0,1-6,1.71l1.06-5.32a10.69,10.69,0,0,0,5.83-1.59c2-1.18,3.41-2.9,3.41-4.47s-1.13-1.85-3.76-1.34c-3.76.72-6.32.19-6.32-3.72,0-3.59,2.17-7.63,5.93-10.6v-3.83l3.44-2v3.55a11.55,11.55,0,0,1,5.13-1.63l-1,5.16a9.57,9.57,0,0,0-5.06,1.51c-2.28,1.32-3,2.91-3,4,0,1.29,1.23,1.47,4.25,1,4.18-.72,5.83.55,5.83,4.21s-2.18,7.91-6.22,11v4.15Z"/><ellipse class="cls-231" cx="225.75" cy="190.89" rx="12.32" ry="7.11" transform="matrix(0.5, -0.86, 0.86, 0.5, -52.98, 289.44)"/><ellipse class="cls-232" cx="225.75" cy="190.89" rx="11.45" ry="6.61" transform="translate(-52.98 289.44) rotate(-59.69)"/><path class="cls-221" d="M225.4,191.79,222.25,190c-.21-.12-.56.08-.77.45l-1.22,2.09c-.21.37-.21.77,0,.89l5.14,2.93c.21.12.56-.08.77-.45l10.76-18.6c.22-.37.22-.77,0-.89l-1.21-.69c-.21-.12-.56.08-.77.45l-8.78,15.17C226,191.72,225.61,191.92,225.4,191.79Z"/></svg>