<svg id="Layer_1" data-name="Layer 1" xmlns="http://www.w3.org/2000/svg" xmlns:xlink="http://www.w3.org/1999/xlink" viewBox="0 0 380 380"><defs><style>.cls-1{opacity:0.5;}.cls-10,.cls-12,.cls-2,.cls-21,.cls-3,.cls-6,.cls-7{fill:none;}.cls-10,.cls-11,.cls-2,.cls-7,.cls-9{stroke:#0e6aed;}.cls-10,.cls-11,.cls-19,.cls-2,.cls-6,.cls-7{stroke-linecap:round;}.cls-10,.cls-11,.cls-12,.cls-13,.cls-14,.cls-16,.cls-17,.cls-18,.cls-2,.cls-20,.cls-21,.cls-3,.cls-6,.cls-7,.cls-9{stroke-linejoin:round;}.cls-2{stroke-width:2.04px;}.cls-3,.cls-6{stroke:#5ec6cc;}.cls-3,.cls-6,.cls-7{stroke-width:2.3px;}.cls-14,.cls-20,.cls-4,.cls-9{fill:#fff;}.cls-5{fill-opacity:0.05;fill:url(#linear-gradient);}.cls-11,.cls-16,.cls-17,.cls-19,.cls-8{fill:#0e6aed;}.cls-8{isolation:isolate;opacity:0.21;}.cls-9{stroke-width:1.84px;}.cls-10{stroke-width:1.73px;}.cls-11{stroke-width:1.67px;}.cls-12,.cls-13,.cls-14,.cls-16,.cls-17,.cls-18,.cls-20,.cls-21{stroke:#3f5965;}.cls-12{stroke-width:3.39px;}.cls-13,.cls-15{fill:#cad9df;}.cls-13,.cls-14,.cls-16{stroke-width:1.65px;}.cls-17{stroke-width:0.65px;}.cls-18{fill:#f4fafb;stroke-width:4.07px;}.cls-19{stroke:#fff;stroke-miterlimit:10;stroke-width:3.35px;}.cls-20,.cls-21{stroke-width:1.87px;}</style><linearGradient id="linear-gradient" x1="193.3" y1="314.49" x2="348.22" y2="220.1" gradientTransform="matrix(1, 0, 0, -1, 0, 380)" gradientUnits="userSpaceOnUse"><stop offset="0.45" stop-color="#5ec6cc"/><stop offset="0.92" stop-color="#5ec6cc" stop-opacity="0"/></linearGradient></defs><g class="cls-1"><line class="cls-2" x1="195.12" y1="215.06" x2="58.82" y2="296.6"/><line class="cls-2" x1="33.6" y1="255.12" x2="171.82" y2="334.85"/><line class="cls-2" x1="56.67" y1="241.77" x2="194.88" y2="321.49"/><line class="cls-2" x1="83.69" y1="229.1" x2="218.26" y2="307.32"/><line class="cls-2" x1="102.82" y1="215.06" x2="241.07" y2="294.81"/><line class="cls-2" x1="220.62" y1="225.94" x2="79.75" y2="307.52"/><line class="cls-2" x1="241.27" y1="241.64" x2="109.28" y2="317.9"/><line class="cls-2" x1="264.35" y1="254.93" x2="129.21" y2="334.43"/><line class="cls-2" x1="171.94" y1="175.26" x2="310.16" y2="254.99"/><line class="cls-2" x1="153.9" y1="190" x2="288.57" y2="268.16"/><line class="cls-2" x1="195.02" y1="161.91" x2="333.23" y2="241.63"/><line class="cls-2" x1="125.9" y1="201.76" x2="264.1" y2="281.48"/><line class="cls-2" x1="263.56" y1="201.13" x2="217.58" y2="227.69"/><line class="cls-2" x1="306.46" y1="204.04" x2="241.17" y2="241.77"/><line class="cls-2" x1="218.43" y1="175.04" x2="171.94" y2="201.91"/><line class="cls-2" x1="172.05" y1="201.77" x2="31.02" y2="281.05"/><line class="cls-2" x1="311.42" y1="226.48" x2="264.24" y2="255.06"/></g><line class="cls-3" x1="172.05" y1="87" x2="172.05" y2="87.1"/><path class="cls-4" d="M156,78.42l1.66.86h0l136.53,78.93,5.69,3.28,11.91,6.89,55.6-32.15-155.76-90-.08.05c-3-1.71-5.7-1.92-7.7-.86h0"/><path class="cls-5" d="M156,78.42l1.66.86h0l136.53,78.93,5.69,3.28,25.68,14.62,43.94-38.88-157.87-91-.08.05c-3-1.71-5.7-1.92-7.7-.86h0"/><line class="cls-6" x1="294.17" y1="158.21" x2="298.45" y2="160.68"/><polyline class="cls-6" points="155.97 78.42 157.64 79.28 157.64 79.28 290.86 156.29"/><polyline class="cls-7" points="369.48 137.23 211.61 46.19 211.53 46.24"/><path class="cls-4" d="M145.85,72.19l165.92,96.19-8-4.61,8,4.49v.12h0c6.16,3.56,11.16,12.17,11.16,19.24s-5,9.92-11.16,6.36c-.12-.06-.23-.15-.35-.22L156.1,104.09,156,104"/><path class="cls-7" d="M324.44,201.3,156.1,104.09,156,104"/><polyline class="cls-7" points="145.85 72.19 311.77 168.38 303.79 163.77 311.76 168.26 356.5 193.98 311.77 168.38"/><ellipse class="cls-8" cx="309.48" cy="180.03" rx="5.4" ry="9.35" transform="translate(-48.55 180.8) rotate(-30.31)"/><ellipse class="cls-8" cx="155.04" cy="91.56" rx="5.37" ry="9.3" transform="translate(-25.01 90.33) rotate(-30.17)"/><ellipse class="cls-8" cx="179.86" cy="104.88" rx="5.4" ry="9.35" transform="translate(-28.35 105.11) rotate(-30.31)"/><ellipse class="cls-8" cx="204.7" cy="119.29" rx="5.4" ry="9.35" transform="translate(-32.22 119.61) rotate(-30.31)"/><ellipse class="cls-8" cx="231.33" cy="134.85" rx="5.4" ry="9.35" transform="translate(-36.43 135.18) rotate(-30.31)"/><ellipse class="cls-8" cx="256.93" cy="148.99" rx="5.4" ry="9.35" transform="translate(-40.07 150.03) rotate(-30.31)"/><ellipse class="cls-8" cx="282.88" cy="164.54" rx="5.4" ry="9.35" transform="translate(-44.37 165.25) rotate(-30.31)"/><path class="cls-9" d="M222.79,104.79l26.66,15.4a1.69,1.69,0,0,0,1.66,0l26.66-15.4a1.64,1.64,0,0,0,.84-1.44V72.59a1.67,1.67,0,0,0-.87-1.46l-27.33-15a1.71,1.71,0,0,0-1.64,0l-26,15a1.67,1.67,0,0,0-.84,1.45v30.78A1.62,1.62,0,0,0,222.79,104.79Z"/><line class="cls-10" x1="270.17" y1="76.24" x2="271.47" y2="75.49"/><polyline class="cls-10" points="228.61 75.49 249.51 87.56 267.94 77.47"/><line class="cls-10" x1="249.7" y1="108.37" x2="249.7" y2="87.56"/><polyline class="cls-11" points="239.18 62.69 266.27 78.33 266.27 86.14 261.38 89.04 261.38 81.22 234.29 65.58"/><path class="cls-9" d="M265.28,129.78l26.66,15.39a1.64,1.64,0,0,0,1.66,0l26.66-15.39a1.67,1.67,0,0,0,.84-1.45V97.57a1.67,1.67,0,0,0-.87-1.46l-27.33-15a1.65,1.65,0,0,0-1.64,0l-26,15a1.64,1.64,0,0,0-.84,1.44v30.78A1.66,1.66,0,0,0,265.28,129.78Z"/><line class="cls-10" x1="312.37" y1="101.22" x2="313.66" y2="100.47"/><polyline class="cls-10" points="271.1 100.47 292 112.54 310.43 102.45"/><line class="cls-10" x1="292.19" y1="133.35" x2="292.19" y2="112.54"/><polyline class="cls-11" points="281.67 87.67 308.76 103.31 308.76 111.13 303.87 114.02 303.87 106.21 276.78 90.57"/><path class="cls-9" d="M307.77,153.9l26.66,15.39a1.64,1.64,0,0,0,1.66,0l26.66-15.39a1.66,1.66,0,0,0,.84-1.44V121.7a1.7,1.7,0,0,0-.87-1.47l-27.33-15a1.71,1.71,0,0,0-1.64,0l-26,15a1.66,1.66,0,0,0-.84,1.44v30.79A1.68,1.68,0,0,0,307.77,153.9Z"/><line class="cls-10" x1="355.15" y1="125.35" x2="356.52" y2="124.59"/><polyline class="cls-10" points="313.66 124.59 334.57 136.66 352.92 126.57"/><line class="cls-10" x1="334.76" y1="157.47" x2="334.76" y2="136.66"/><polyline class="cls-11" points="324.16 111.8 351.25 127.44 351.25 135.25 346.36 138.14 346.36 130.33 319.27 114.69"/><line class="cls-10" x1="191.47" y1="61.59" x2="216.84" y2="76.24"/><line class="cls-10" x1="202.52" y1="48" x2="227.17" y2="62.23"/><line class="cls-10" x1="182.4" y1="65.92" x2="216.84" y2="85.81"/><line class="cls-10" x1="189.24" y1="80.88" x2="219.05" y2="98.09"/><path class="cls-12" d="M72.64,257.19c2.66-1.54,4-3.56,4-5.59L73.1,213.35v.2c-.07-1.44-1-2.87-2.94-4a16,16,0,0,0-14.34,0c-2,1.14-3,2.64-3,4.14l-2,21.25-12.62-7L26.77,241.06l-3.22-1.79-13,15v15.26L30.91,280.8l26.78-15,.24-6.9C62.85,260.06,68.68,259.48,72.64,257.19Zm-28.71-1.42,5.39-6.05v.14L44,255.81Z"/><path class="cls-12" d="M106.24,285.08c4.91,1.11,10.74.53,14.7-1.75,2.66-1.54,4-3.57,4-5.59l-3.54-38.26v.2c-.08-1.43-1-2.86-3-4a14,14,0,0,0-5.93-1.64l15.78-8.82.24-6.89c4.92,1.11,10.74.53,14.7-1.76,2.66-1.53,4-3.56,4-5.58l-3.54-38.26v.2c-.08-1.44-1-2.86-2.94-4a16,16,0,0,0-14.34,0c-2,1.14-3,2.64-3,4.14h0l-2,21.25-12.62-7L97.35,200.49l-3.22-1.78-13,15V229l20,11.07-2,21.08-12.62-7-11.44,13-3.22-1.78-13,15v15.26L79.24,307,106,292Zm-14-3.18,5.38-6V276l-5.36,6Zm27.64-72.61-5.36,6h0l5.38-6Z"/><path class="cls-12" d="M168.09,268c-.08-1.44-1.05-2.86-3-4a15.22,15.22,0,0,0-8.25-1.64l19.69-11,.24-6.89c4.92,1.11,10.75.53,14.71-1.75,2.66-1.54,4-3.56,4-5.59L192,198.91v.21c-.07-1.44-1.05-2.87-2.94-4a13.21,13.21,0,0,0-5-1.56l15-8.41.24-6.89c4.92,1.11,10.75.53,14.71-1.75,2.66-1.54,4-3.57,4-5.59l-3.54-38.26a.67.67,0,0,1,0,.2c-.07-1.43-1.05-2.86-2.94-4a15.89,15.89,0,0,0-14.34,0c-2,1.14-3,2.64-3,4.14h0l-2,21.24-12.62-7L168.11,160.3l-3.23-1.78-13,15v15.26l19.79,11-1.93,20.72-12.62-7-11.46,13.05-3.22-1.78-13,15V255l19.34,10.7a3.91,3.91,0,0,0-.9,2.4l-2,21.25-12.62-7L121.8,295.44l-3.22-1.78-13,15V324L126,335.28l26.78-15,.25-6.89c4.91,1.11,10.74.53,14.7-1.76,2.66-1.53,4-3.56,4-5.58l-3.54-38.26A.61.61,0,0,0,168.09,268ZM139,310.23l5.38-6v.13L139,310.27Zm29.23-74.81-5.36,6h0l5.39-6Zm22.47-66.21-5.36,5.95h0l5.39-6Z"/><path class="cls-12" d="M238.67,227.44c-.07-1.44-1-2.86-2.94-3.95a15.68,15.68,0,0,0-9.66-1.51l19.06-10.65.25-6.9c4.91,1.12,10.74.54,14.7-1.75,2.66-1.54,4-3.56,4-5.59l-3.54-38.25v.2c-.08-1.44-1-2.87-3-4a15.89,15.89,0,0,0-14.34,0c-2,1.14-2.95,2.64-2.95,4.14l-2,21.25-12.62-7-11.46,13.06L211,184.76l-13,15V215l20.39,11.27.47-.26a3.7,3.7,0,0,0-.39,1.6l-2,21.24-12.62-7L192.37,255l-3.22-1.78-13,15v15.26l20.39,11.28,26.78-15,.24-6.89c4.92,1.11,10.75.53,14.71-1.75,2.66-1.54,4-3.57,4-5.59l-3.54-38.26Zm-1.93-32.09-5.36,6h0l5.38-6Zm-27.21,74.31,5.39-6v.13l-5.36,5.95Z"/><path class="cls-12" d="M307.24,187.17v.2c-.08-1.44-1.05-2.87-3-4a15.87,15.87,0,0,0-14.33,0c-2,1.14-3,2.64-3,4.14l-2,21.25-12.62-7-11.46,13.05L257.61,213l-13,15V243.3L265,254.57l26.78-15,.25-6.9c4.91,1.12,10.74.53,14.7-1.75,2.66-1.54,4-3.56,4-5.59Zm-29.15,42.42,5.38-6.05v.13l-5.36,6Z"/><ellipse class="cls-13" cx="62.96" cy="213.73" rx="10.14" ry="5.85"/><ellipse class="cls-14" cx="62.96" cy="213.73" rx="10.14" ry="5.85"/><path class="cls-14" d="M76.63,251.6h0l-3.54-38.25c0,1.54-.9,2.93-2.77,4-4,2.36-10.67,2.34-14.72,0-2-1.14-2.72-2.13-2.77-3.64L49.29,251.6c0,2,1.33,4.05,4,5.59,5.32,3.07,14,3.07,19.35,0,2.66-1.54,4-3.56,4-5.59Z"/><path class="cls-15" d="M49.06,251.31c0,2.5,1.6,2.83,4.5,4.5,2.07,1.19,3,2.29,6.71,2.67L61,238.87a1.65,1.65,0,0,0-.86-1.51l-8.23-4.55-.2,2.19Z"/><polygon class="cls-14" points="30.91 280.8 10.52 269.53 10.52 254.26 30.91 265.31 30.91 280.8"/><polygon class="cls-16" points="58.62 239.27 38.23 228 23.51 244.77 43.9 255.81 58.62 239.27"/><polygon class="cls-16" points="43.93 250.55 23.55 239.27 10.52 254.26 30.91 265.31 43.93 250.55"/><polygon class="cls-14" points="58.62 239.51 43.93 255.81 43.93 250.55 30.91 265.31 30.91 280.8 57.69 265.84 58.62 239.51 58.62 239.51"/><polygon class="cls-17" points="41.35 263.62 41.35 269.67 47.55 266.18 47.55 260.13 41.35 263.62"/><polygon class="cls-17" points="49.04 265.35 55.11 261.93 55.24 255.81 49.04 259.29 49.04 265.35"/><polygon class="cls-17" points="33.66 267.94 33.66 267.97 33.66 273.99 39.86 270.51 39.86 264.45 33.66 267.94"/><ellipse class="cls-13" cx="133.55" cy="173.16" rx="10.14" ry="5.85"/><ellipse class="cls-14" cx="133.55" cy="173.16" rx="10.14" ry="5.85"/><path class="cls-14" d="M147.21,211h0l-3.54-38.26c0,1.54-.89,2.94-2.76,4-4,2.35-10.68,2.33-14.72,0-2-1.15-2.73-2.14-2.77-3.65L119.88,211c0,2,1.33,4.05,4,5.58,5.32,3.08,14,3.08,19.35,0,2.66-1.53,4-3.56,4-5.58Z"/><path class="cls-15" d="M119.65,210.74c0,2.51,1.6,2.83,4.49,4.5,2.07,1.19,3,2.29,6.72,2.68l.7-19.62a1.64,1.64,0,0,0-.85-1.51l-8.23-4.55-.21,2.19Z"/><polygon class="cls-14" points="101.5 240.24 81.11 228.96 81.11 213.7 101.5 224.74 101.5 240.24"/><polygon class="cls-16" points="129.2 198.71 108.81 187.43 94.1 204.2 114.48 215.24 129.2 198.71"/><polygon class="cls-16" points="114.52 209.98 94.13 198.71 81.11 213.7 101.5 224.74 114.52 209.98"/><polygon class="cls-14" points="129.2 198.94 114.52 215.24 114.52 209.98 101.5 224.74 101.5 240.24 128.28 225.27 129.2 198.94 129.2 198.94"/><polygon class="cls-17" points="111.94 223.05 111.94 229.1 118.14 225.62 118.14 219.56 111.94 223.05"/><polygon class="cls-17" points="119.63 224.78 125.7 221.37 125.83 215.24 119.63 218.72 119.63 224.78"/><polygon class="cls-17" points="104.25 227.37 104.25 227.4 104.25 233.42 110.45 229.94 110.45 223.89 104.25 227.37"/><ellipse class="cls-13" cx="204.32" cy="133.09" rx="10.14" ry="5.85"/><ellipse class="cls-14" cx="204.32" cy="133.09" rx="10.14" ry="5.85"/><path class="cls-14" d="M218,171h0l-3.54-38.26c0,1.54-.9,2.94-2.77,4-4,2.36-10.67,2.34-14.72,0-2-1.14-2.72-2.14-2.77-3.64L190.65,171c0,2,1.33,4,4,5.59,5.33,3.07,14,3.07,19.36,0,2.66-1.54,4-3.57,4-5.59Z"/><path class="cls-15" d="M190.42,170.66c0,2.51,1.6,2.83,4.5,4.5,2.06,1.2,3,2.3,6.71,2.68l.71-19.62a1.65,1.65,0,0,0-.86-1.51l-8.23-4.55-.2,2.2Z"/><polygon class="cls-14" points="172.27 200.16 151.88 188.88 151.88 173.62 172.27 184.66 172.27 200.16"/><polygon class="cls-16" points="199.97 158.63 179.59 147.35 164.87 164.12 185.26 175.16 199.97 158.63"/><polygon class="cls-16" points="185.29 169.9 164.91 158.63 151.88 173.62 172.27 184.66 185.29 169.9"/><polygon class="cls-14" points="199.97 158.86 185.29 175.16 185.29 169.9 172.27 184.66 172.27 200.16 199.05 185.19 199.97 158.86 199.97 158.86"/><polygon class="cls-17" points="182.71 182.97 182.71 189.02 188.91 185.54 188.91 179.49 182.71 182.97"/><polygon class="cls-17" points="190.4 184.7 196.47 181.29 196.6 175.16 190.4 178.65 190.4 184.7"/><polygon class="cls-17" points="175.02 187.29 175.02 187.32 175.02 193.35 181.22 189.86 181.22 183.81 175.02 187.29"/><ellipse class="cls-13" cx="111.26" cy="239.87" rx="10.14" ry="5.85"/><ellipse class="cls-14" cx="111.26" cy="239.87" rx="10.14" ry="5.85"/><path class="cls-14" d="M124.93,277.74h0l-3.54-38.26c0,1.54-.9,2.94-2.77,4-4,2.36-10.67,2.34-14.72,0-2-1.14-2.72-2.14-2.76-3.64l-3.54,37.9c0,2,1.33,4.05,4,5.59,5.32,3.07,14,3.07,19.35,0,2.66-1.54,4-3.57,4-5.59Z"/><path class="cls-15" d="M97.36,277.44c0,2.51,1.61,2.83,4.5,4.5,2.07,1.2,3,2.3,6.72,2.68l.7-19.62a1.68,1.68,0,0,0-.85-1.51l-8.23-4.55-.21,2.2Z"/><polygon class="cls-14" points="79.21 306.94 58.83 295.66 58.83 280.4 79.21 291.44 79.21 306.94"/><polygon class="cls-16" points="106.92 265.41 86.53 254.13 71.81 270.9 92.2 281.94 106.92 265.41"/><polygon class="cls-16" points="92.24 276.68 71.85 265.41 58.83 280.4 79.21 291.44 92.24 276.68"/><polygon class="cls-14" points="106.92 265.64 92.24 281.94 92.24 276.68 79.21 291.44 79.21 306.94 105.99 291.97 106.92 265.64 106.92 265.64"/><polygon class="cls-17" points="89.66 289.75 89.66 295.8 95.86 292.32 95.86 286.27 89.66 289.75"/><polygon class="cls-17" points="97.35 291.48 103.42 288.07 103.55 281.94 97.35 285.43 97.35 291.48"/><polygon class="cls-17" points="81.97 294.07 81.97 294.1 81.97 300.13 88.17 296.64 88.17 290.59 81.97 294.07"/><ellipse class="cls-13" cx="181.85" cy="199.3" rx="10.14" ry="5.85"/><ellipse class="cls-14" cx="181.85" cy="199.3" rx="10.14" ry="5.85"/><path class="cls-14" d="M195.52,237.17h0L192,198.91c0,1.54-.9,2.94-2.77,4-4,2.36-10.67,2.34-14.72,0-2-1.14-2.72-2.14-2.77-3.64l-3.54,37.87c0,2,1.33,4.05,4,5.59,5.33,3.07,14,3.07,19.36,0,2.66-1.54,4-3.56,4-5.59Z"/><path class="cls-15" d="M168,236.87c0,2.51,1.6,2.83,4.5,4.5,2.06,1.2,3,2.3,6.71,2.68l.71-19.62a1.66,1.66,0,0,0-.86-1.51l-8.23-4.55-.2,2.2Z"/><polygon class="cls-14" points="149.73 267.11 129.34 255.83 129.41 239.83 149.8 250.87 149.73 267.11"/><polygon class="cls-16" points="177.5 224.84 157.12 213.57 142.4 230.33 162.79 241.38 177.5 224.84"/><polygon class="cls-16" points="162.82 236.12 142.44 224.84 129.41 239.83 149.8 250.87 162.82 236.12"/><polygon class="cls-14" points="177.5 225.07 162.82 241.38 162.82 236.12 149.8 250.87 149.8 266.37 176.58 251.4 177.5 225.07 177.5 225.07"/><polygon class="cls-17" points="160.24 249.18 160.24 255.24 166.44 251.75 166.44 245.7 160.24 249.18"/><polygon class="cls-17" points="167.93 250.91 174 247.5 174.13 241.38 167.93 244.86 167.93 250.91"/><polygon class="cls-17" points="152.55 253.51 152.55 253.53 152.55 259.56 158.75 256.07 158.75 250.02 152.55 253.51"/><ellipse class="cls-13" cx="250.4" cy="159.22" rx="10.14" ry="5.85"/><ellipse class="cls-14" cx="250.4" cy="159.22" rx="10.14" ry="5.85"/><path class="cls-14" d="M264.07,197.09h0l-3.54-38.25c0,1.54-.9,2.93-2.77,4-4,2.36-10.67,2.34-14.72,0-2-1.14-2.72-2.13-2.76-3.64l-3.54,37.87c0,2,1.33,4,4,5.59,5.32,3.07,14,3.07,19.35,0,2.66-1.54,4-3.56,4-5.59Z"/><path class="cls-15" d="M236.5,196.8c0,2.5,1.61,2.83,4.5,4.5,2.07,1.19,3,2.29,6.72,2.67l.7-19.61a1.67,1.67,0,0,0-.85-1.51l-8.23-4.55-.21,2.19Z"/><polygon class="cls-14" points="218.35 226.29 197.96 215.02 197.96 199.75 218.35 210.8 218.35 226.29"/><polygon class="cls-16" points="246.06 184.76 225.67 173.49 210.96 190.26 231.34 201.3 246.06 184.76"/><polygon class="cls-16" points="231.38 196.04 210.99 184.76 197.96 199.75 218.35 210.8 231.38 196.04"/><polygon class="cls-14" points="246.06 185 231.38 201.3 231.38 196.04 218.35 210.8 218.35 226.29 245.13 211.33 246.06 185 246.06 185"/><polygon class="cls-17" points="228.8 209.11 228.8 215.16 235 211.67 235 205.62 228.8 209.11"/><polygon class="cls-17" points="236.49 210.84 242.56 207.42 242.69 201.3 236.49 204.78 236.49 210.84"/><polygon class="cls-17" points="221.11 213.43 221.11 213.46 221.11 219.48 227.31 216 227.31 209.94 221.11 213.43"/><ellipse class="cls-13" cx="157.98" cy="268.19" rx="10.14" ry="5.85"/><ellipse class="cls-14" cx="157.98" cy="268.19" rx="10.14" ry="5.85"/><path class="cls-14" d="M171.64,306.07h0l-3.54-38.26c0,1.54-.89,2.94-2.77,4-4,2.35-10.67,2.33-14.71,0-2-1.14-2.73-2.14-2.77-3.65L144.31,306c0,2,1.33,4,4,5.58,5.32,3.08,14,3.08,19.35,0,2.66-1.53,4-3.56,4-5.58Z"/><path class="cls-15" d="M144.08,305.77c0,2.51,1.6,2.83,4.49,4.5,2.07,1.19,3,2.3,6.72,2.68l.7-19.62a1.67,1.67,0,0,0-.85-1.51l-8.23-4.55-.21,2.19Z"/><polygon class="cls-14" points="125.92 335.27 105.54 323.99 105.54 308.73 125.92 319.77 125.92 335.27"/><polygon class="cls-16" points="153.63 293.74 133.24 282.46 118.53 299.23 138.91 310.27 153.63 293.74"/><polygon class="cls-16" points="138.95 305.01 118.56 293.74 105.54 308.73 125.92 319.77 138.95 305.01"/><polygon class="cls-14" points="153.63 293.97 138.95 310.27 138.95 305.01 125.92 319.77 125.92 335.27 152.7 320.3 153.63 293.97 153.63 293.97"/><polygon class="cls-17" points="136.37 318.08 136.37 324.13 142.57 320.65 142.57 314.59 136.37 318.08"/><polygon class="cls-17" points="144.06 319.81 150.13 316.4 150.26 310.27 144.06 313.76 144.06 319.81"/><polygon class="cls-17" points="128.68 322.4 128.68 322.43 128.68 328.45 134.88 324.97 134.88 318.92 128.68 322.4"/><ellipse class="cls-13" cx="228.56" cy="227.63" rx="10.14" ry="5.85"/><ellipse class="cls-14" cx="228.56" cy="227.63" rx="10.14" ry="5.85"/><path class="cls-14" d="M242.23,265.5h0l-3.54-38.26c0,1.54-.9,2.94-2.77,4a16.31,16.31,0,0,1-14.72,0c-2-1.14-2.72-2.14-2.77-3.64l-3.54,37.87c0,2,1.33,4,4,5.59,5.32,3.07,14,3.07,19.35,0,2.66-1.54,4-3.57,4-5.59Z"/><path class="cls-15" d="M214.66,265.2c0,2.51,1.61,2.83,4.5,4.5,2.07,1.2,3,2.3,6.72,2.68l.7-19.62a1.65,1.65,0,0,0-.86-1.51l-8.23-4.55-.2,2.2Z"/><polygon class="cls-14" points="196.51 294.7 176.12 283.42 176.12 268.16 196.51 279.2 196.51 294.7"/><polygon class="cls-16" points="224.22 253.17 203.83 241.89 189.11 258.66 209.5 269.7 224.22 253.17"/><polygon class="cls-16" points="209.53 264.44 189.15 253.17 176.12 268.16 196.51 279.2 209.53 264.44"/><polygon class="cls-14" points="224.22 253.4 209.53 269.7 209.53 264.44 196.51 279.2 196.51 294.7 223.29 279.73 224.22 253.4 224.22 253.4"/><polygon class="cls-17" points="206.96 277.51 206.96 283.56 213.15 280.08 213.15 274.03 206.96 277.51"/><polygon class="cls-17" points="214.64 279.24 220.71 275.83 220.84 269.7 214.64 273.19 214.64 279.24"/><polygon class="cls-17" points="199.26 281.83 199.26 281.86 199.26 287.89 205.46 284.4 205.46 278.35 199.26 281.83"/><ellipse class="cls-13" cx="297.11" cy="187.55" rx="10.14" ry="5.85"/><ellipse class="cls-14" cx="297.11" cy="187.55" rx="10.14" ry="5.85"/><path class="cls-14" d="M310.78,225.42h0l-3.54-38.25c0,1.54-.89,2.93-2.77,4-4,2.36-10.67,2.34-14.72,0-2-1.14-2.72-2.14-2.76-3.64l-3.54,37.87c0,2,1.33,4,4,5.59,5.32,3.07,14,3.07,19.35,0,2.66-1.54,4-3.56,4-5.59Z"/><path class="cls-15" d="M283.22,225.12c0,2.51,1.6,2.83,4.49,4.51,2.07,1.19,3,2.29,6.72,2.67l.7-19.62a1.68,1.68,0,0,0-.85-1.51l-8.23-4.55-.21,2.2Z"/><polygon class="cls-14" points="265.06 254.62 244.68 243.35 244.68 228.08 265.06 239.12 265.06 254.62"/><polygon class="cls-16" points="292.77 213.09 272.38 201.82 257.67 218.59 278.05 229.63 292.77 213.09"/><polygon class="cls-16" points="278.09 224.37 257.7 213.09 244.68 228.08 265.06 239.12 278.09 224.37"/><polygon class="cls-14" points="292.77 213.32 278.09 229.63 278.09 224.37 265.06 239.12 265.06 254.62 291.84 239.66 292.77 213.33 292.77 213.32"/><polygon class="cls-17" points="275.51 237.43 275.51 243.49 281.71 240 281.71 233.95 275.51 237.43"/><polygon class="cls-17" points="283.2 239.16 289.27 235.75 289.4 229.63 283.2 233.11 283.2 239.16"/><polygon class="cls-17" points="267.82 241.76 267.82 241.78 267.82 247.81 274.02 244.32 274.02 238.27 267.82 241.76"/><path class="cls-18" d="M135.33,87.31c-1-.79-12.15-9.47-22.65-12.9s-23.56-1.49-37.86,6.77c-33.72,19.46-61,66.61-61,105.31v8.74l10.92,6.4a5,5,0,0,0,5.06,0l119.58-69V123.9C149.33,106.9,144.07,94.38,135.33,87.31Z"/><path class="cls-4" d="M149.33,131.44v-7.57c0-38.7-27.34-54.28-61.06-34.81S27.21,155.67,27.21,194.37v7.07Z"/><path class="cls-19" d="M117.48,139.48l21-12.15a4.57,4.57,0,0,0,2.08-3.84c-.7-8.54-3.1-15.53-6.82-20.77-.58-.82-1.86-.5-2.87.75L112.82,125.9c-1,1.24-1.33,2.89-.75,3.71a20.46,20.46,0,0,1,3.36,9C115.58,139.73,116.46,140.07,117.48,139.48Z"/><path class="cls-19" d="M112.56,126.22l18.2-22.55c1.06-1.33,1.36-3.1.66-3.85a25.43,25.43,0,0,0-16.06-8c-1-.12-2.32,1-2.91,2.52L102,121.14c-.56,1.45-.24,2.69.72,2.81a13.33,13.33,0,0,1,7.19,3.23C110.53,127.74,111.67,127.33,112.56,126.22Z"/><path class="cls-19" d="M88.27,127.58a26.11,26.11,0,0,1,11-3.71,3.73,3.73,0,0,0,2.64-2.52L112.4,94.46c.61-1.56.19-2.86-.9-2.85-6.38.07-13.5,2-21,6a4.62,4.62,0,0,0-2.2,3.67v26.31Z"/><path class="cls-19" d="M74.54,137,64.09,122.25c-.59-.83-1.9-.44-2.91.84a127.52,127.52,0,0,0-16.06,26.55c-.7,1.56-.4,3,.66,3.08L64,154.27c.89.08,2-.82,2.66-2.12a67.29,67.29,0,0,1,7.19-11.52C74.79,139.39,75.11,137.78,74.54,137Z"/><path class="cls-19" d="M88.27,125.28v-24c0-1.37-1-1.87-2.2-1.12a95.5,95.5,0,0,0-21,18.29c-1.09,1.24-1.51,3-.9,3.88l10.49,14.79c.53.74,1.66.52,2.64-.54a49.87,49.87,0,0,1,9.06-7.79A4.6,4.6,0,0,0,88.27,125.28Z"/><path class="cls-19" d="M42.76,155.27a100.22,100.22,0,0,0-6.82,28.64c-.11,1.48.85,2.16,2.08,1.44l21-12.14A4.6,4.6,0,0,0,61,170a53.53,53.53,0,0,1,3.36-12.93c.58-1.48.25-2.75-.75-2.84l-18.09-1.54C44.62,152.63,43.34,153.78,42.76,155.27Z"/><path class="cls-20" d="M87.9,146c1.87-1.46,28.58-19.24,42.36-28.4,1-.63,1.19.8.27,1.62-13.33,11.9-39.16,34.94-41,36.39-2.53,2-5,1.42-5.39-1.24S85.36,147.94,87.9,146Z"/><path class="cls-21" d="M149.33,132.6v-8.73c0-38.7-27.34-54.28-61.06-34.81S27.21,155.67,27.21,194.37v7.07"/></svg>